<svg preserveAspectRatio="none" width="100%" height="100%" overflow="visible" style="display: block;" viewBox="0 0 13.5015 24.7513" fill="none" xmlns="http://www.w3.org/2000/svg">
<path id="Vector" d="M0.32969 1.92156C0.225166 1.81704 0.142255 1.69295 0.0856867 1.55638C0.0291187 1.41982 1.95409e-06 1.27345 1.96701e-06 1.12563C1.97994e-06 0.977807 0.0291188 0.831435 0.0856868 0.694868C0.142255 0.558301 0.225167 0.434212 0.329691 0.329688C0.434215 0.225164 0.558303 0.142253 0.69487 0.0856847C0.831437 0.0291168 0.977809 -1.29228e-08 1.12563 0C1.27345 1.29228e-08 1.41982 0.0291168 1.55639 0.0856848C1.69295 0.142253 1.81704 0.225165 1.92157 0.329689L13.1716 11.5797C13.2762 11.6842 13.3591 11.8082 13.4158 11.9448C13.4724 12.0814 13.5015 12.2278 13.5015 12.3756C13.5015 12.5235 13.4724 12.6699 13.4158 12.8064C13.3591 12.943 13.2762 13.0671 13.1716 13.1716L1.92156 24.4216C1.71047 24.6327 1.42416 24.7513 1.12563 24.7513C0.827092 24.7513 0.540784 24.6327 0.329688 24.4216C0.118593 24.2105 -2.02139e-08 23.9242 0 23.6256C2.02139e-08 23.3271 0.118593 23.0408 0.329689 22.8297L10.7852 12.3756L0.32969 1.92156Z" fill="var(--fill-0, #55585B)"/>
</svg>
