<svg preserveAspectRatio="none" width="100%" height="100%" overflow="visible" style="display: block;" viewBox="0 0 18.5714 20" fill="none" xmlns="http://www.w3.org/2000/svg">
<g id="Layer_2">
<path id="Vector" d="M18.5714 9.96917C18.5714 9.80473 18.4903 9.6814 18.3687 9.59918L15.287 7.79034L18.3687 5.9815C18.4903 5.89928 18.5714 5.77595 18.5714 5.61151C18.5714 5.44707 18.4903 5.32374 18.3687 5.24152L9.48846 0.061665C9.36681 -0.020555 9.20462 -0.020555 9.08297 0.061665L0.202745 5.28263C0.0810979 5.36485 0 5.48818 0 5.65262C0 5.81706 0.0810979 5.94039 0.202745 6.02261L3.28447 7.83145L0.202745 9.64029C0.0810979 9.72251 0 9.84584 0 10.0103C0 10.1747 0.0810979 10.298 0.202745 10.3803L3.28447 12.1891L0.202745 13.9979C0.0810979 14.0802 0 14.2035 0 14.3679C0 14.5324 0.0810979 14.6557 0.202745 14.7379L9.08297 19.9589C9.16407 20 9.20462 20 9.28571 20C9.36681 20 9.40736 20 9.48846 19.9589L18.3687 14.7379C18.4903 14.6557 18.5714 14.5324 18.5714 14.3679C18.5714 14.2035 18.4903 14.0802 18.3687 13.9979L15.287 12.1891L18.3687 10.3803C18.5309 10.2569 18.5714 10.1336 18.5714 9.96917ZM9.28571 0.883864L17.355 5.61151L9.28571 10.3803L1.21647 5.61151L9.28571 0.883864ZM17.355 14.3268L9.28571 19.0545L1.21647 14.3268L4.09545 12.6413L9.08297 15.5601C9.16407 15.6012 9.20462 15.6012 9.28571 15.6012C9.36681 15.6012 9.40736 15.6012 9.48846 15.5601L14.476 12.6413L17.355 14.3268ZM9.28571 14.6968L1.21647 9.96917L4.09545 8.28366L9.08297 11.2025C9.16407 11.2436 9.20462 11.2436 9.28571 11.2436C9.36681 11.2436 9.40736 11.2436 9.48846 11.2025L14.476 8.28366L17.355 9.96917L9.28571 14.6968Z" fill="var(--fill-0, #7D8083)"/>
</g>
</svg>
