<svg preserveAspectRatio="none" width="100%" height="100%" overflow="visible" style="display: block;" viewBox="0 0 20.2727 20" fill="none" xmlns="http://www.w3.org/2000/svg">
<g id="Group">
<path id="Vector" d="M20.2727 0H0V3.18182H6.95455V4.40909L4.77273 6.04545V9.63636H6.63636V10.6818H3.18182V8.72727H0V20H20.2727V8.72727H17.0909V10.6818H10.2727V7.22727H6.63636V8.68182H5.68182V6.45455L7.86364 4.81818V3.18182H20.2727V0ZM18 9.63636H19.3636V19.0909H0.909091V9.63636H2.27273V17.7273H17.9545V9.63636H18ZM17.0909 11.5909V16.8182H3.18182V11.5909H6.63636V14.4091H10.2727V11.5909H17.0909ZM7.54545 8.13636H9.36364V13.5H7.54545V8.13636ZM19.3636 2.27273H0.909091V0.909091H19.3636V2.27273Z" fill="var(--fill-0, #E84261)"/>
<path id="Vector_2" d="M15.3636 13.4999H12.2273V14.409H15.3636V13.4999Z" fill="var(--fill-0, #E84261)"/>
<path id="Vector_3" d="M14.2273 8.00018V6.90927H15.3636V6.00018H14.2273V4.86381H13.3182V6.00018H12.2273V6.90927H13.3182V8.00018H14.2273Z" fill="var(--fill-0, #E84261)"/>
</g>
</svg>
