<svg preserveAspectRatio="none" width="100%" height="100%" overflow="visible" style="display: block;" viewBox="0 0 19.5967 20" fill="none" xmlns="http://www.w3.org/2000/svg">
<g id="Group">
<path id="Vector" d="M19.5542 12.6122C19.5134 12.4082 19.3501 12.2449 19.1869 12.1224L17.2277 11.0204C17.3093 10.6122 17.3501 10.2041 17.3501 9.7551C17.3501 9.5102 17.3501 9.22449 17.3093 8.97959L19.1869 7.87755C19.5542 7.67347 19.7175 7.14286 19.4726 6.77551L17.4318 3.22449C17.2277 2.85714 16.6971 2.69388 16.3297 2.93878L14.6154 3.91837C14.0032 3.42857 13.3501 3.02041 12.6563 2.73469V0.816327C12.6563 0.367347 12.2889 0 11.8399 0H7.75831C7.30933 0 6.94198 0.367347 6.94198 0.816327V2.77551C6.2481 3.06122 5.59504 3.46939 4.9828 3.95918L3.26851 2.93878C3.06443 2.81633 2.86035 2.81633 2.65627 2.85714C2.45218 2.89796 2.28892 3.06122 2.16647 3.22449L0.125654 6.77551C-0.119244 7.14286 0.00320498 7.63265 0.411368 7.87755L2.28892 8.97959C2.2481 9.26531 2.2481 9.5102 2.2481 9.7551C2.2481 10.1633 2.28892 10.6122 2.37055 11.0204L0.411368 12.1224C0.207287 12.2449 0.0848376 12.4082 0.0440213 12.6122C0.00320494 12.8163 0.00320505 13.0204 0.125654 13.2245L2.16647 16.7755C2.28892 16.9796 2.45218 17.102 2.65627 17.1429C2.86035 17.1837 3.06443 17.1837 3.26851 17.0612L5.35014 15.8367C5.83994 16.2041 6.37055 16.4898 6.94198 16.7347V19.1837C6.94198 19.6327 7.30933 20 7.75831 20H11.8399C12.2889 20 12.6563 19.6327 12.6563 19.1837V16.7347C13.2277 16.4898 13.7583 16.2041 14.2481 15.8367L16.3297 17.0612C16.6971 17.2653 17.2277 17.1429 17.4318 16.7755L19.4726 13.2245C19.595 13.0612 19.6359 12.8163 19.5542 12.6122ZM16.7379 16.3673L14.1665 14.898L13.9624 15.0612C13.391 15.5102 12.7787 15.8367 12.1257 16.0816L11.8399 16.1633V19.1837H7.75831V16.1633L7.47259 16.0816C6.81953 15.8367 6.16647 15.5102 5.63586 15.0612L5.43178 14.898L2.86035 16.3673L0.819532 12.8163L3.26851 11.3878L3.22769 11.102C3.14606 10.6531 3.10525 10.2041 3.10525 9.71429C3.10525 9.38776 3.14606 9.06122 3.18688 8.77551L3.22769 8.4898L0.819532 7.18367L2.86035 3.63265L5.10525 4.93878L5.30933 4.73469C5.96239 4.16327 6.69708 3.71429 7.51341 3.42857L7.79912 3.34694V0.816327H11.8808V3.34694L12.1665 3.42857C12.9828 3.71429 13.7175 4.16327 14.3706 4.73469L14.5746 4.93878L16.8195 3.63265L18.8603 7.18367L16.493 8.53061L16.5338 8.81633C16.5746 9.14286 16.6154 9.46939 16.6154 9.7551C16.6154 10.2041 16.5746 10.6939 16.493 11.1429L16.3297 11.4286L18.7787 12.8571L16.7379 16.3673Z" fill="var(--fill-0, #7D8083)"/>
<path id="Vector_2" d="M9.79909 5.34698C7.39093 5.34698 5.39093 7.30617 5.39093 9.75515C5.39093 12.1633 7.35011 14.1633 9.79909 14.1633C12.2481 14.1633 14.2073 12.2041 14.2073 9.75515C14.2073 7.34698 12.2073 5.34698 9.79909 5.34698ZM9.79909 13.347C7.83991 13.347 6.20726 11.7551 6.20726 9.75515C6.20726 7.79596 7.79909 6.16331 9.79909 6.16331C11.7583 6.16331 13.3909 7.75515 13.3909 9.75515C13.3909 11.7143 11.7583 13.347 9.79909 13.347Z" fill="var(--fill-0, #7D8083)"/>
</g>
</svg>
