<svg preserveAspectRatio="none" width="100%" height="100%" overflow="visible" style="display: block;" viewBox="0 0 17 20" fill="none" xmlns="http://www.w3.org/2000/svg">
<path id="Vector" d="M16.8041 4.86487L8.69585 0.0600601C8.57834 -0.02002 8.42166 -0.02002 8.30415 0.0600601L0.195853 4.86487C0.078341 4.94495 0 5.06507 0 5.22523V14.7948C0 14.955 0.078341 15.0751 0.195853 15.1552L8.30415 19.96C8.38249 20 8.42166 20 8.5 20C8.57834 20 8.61751 20 8.69585 19.96L16.8041 15.1552C16.9217 15.0751 17 14.955 17 14.7948V5.18519C17 5.06506 16.9217 4.94495 16.8041 4.86487ZM8.5 0.860861L15.8249 5.18519L8.5 9.50951L1.17512 5.18519L8.5 0.860861ZM0.78341 5.90591L8.1083 10.2302V18.8789L0.78341 14.5546V5.90591ZM8.89171 18.8789V10.2302L16.2166 5.90591V14.5546L8.89171 18.8789Z" fill="var(--fill-0, #7D8083)"/>
</svg>
