<svg width="523" height="452" viewBox="0 0 523 452" fill="none" xmlns="http://www.w3.org/2000/svg">
<g id="&#208;&#191;&#208;&#184;&#209;&#129;&#209;&#140;&#208;&#188;&#208;&#190; (&#208;&#191;&#208;&#190;&#208;&#180;&#209;&#130;&#208;&#178;&#208;&#181;&#209;&#128;&#208;&#182;&#208;&#180;&#208;&#181;&#208;&#189;&#208;&#184;&#208;&#181; &#209;&#128;&#208;&#181;&#208;&#179;&#208;&#184;&#209;&#129;&#209;&#130;&#209;&#128;&#208;&#176;&#209;&#134;&#208;&#184;&#208;&#184;)">
<g id="Group 206">
<g id="Group 205">
<g id="Frame 1287">
<g id="&#208;&#184;&#208;&#187;&#208;&#187;&#209;&#142;&#209;&#129;&#209;&#130;&#209;&#128;&#208;&#176;&#209;&#134;&#208;&#184;&#209;&#143;_&#208;&#188;&#208;&#176;&#208;&#176;&#209;&#129;-01-01 1" clip-path="url(#clip0_0_1)">
<path id="Vector" d="M453.413 313.183C447.862 313.21 442.545 315.425 438.614 319.347L424.13 333.926C420.247 337.839 418.065 343.127 418.058 348.641V407.317C417.991 408.618 418.182 409.919 418.618 411.145C419.055 412.372 419.729 413.5 420.603 414.466C421.476 415.431 422.531 416.215 423.708 416.772C424.884 417.329 426.159 417.648 427.459 417.712H511.619C512.923 417.718 514.214 417.466 515.42 416.971C516.626 416.476 517.722 415.748 518.646 414.828C519.57 413.908 520.303 412.815 520.803 411.611C521.303 410.407 521.56 409.116 521.56 407.812V323.622C521.627 322.322 521.437 321.021 521 319.794C520.563 318.568 519.889 317.439 519.016 316.474C518.142 315.508 517.087 314.724 515.911 314.167C514.734 313.61 513.459 313.291 512.159 313.228H453.413V313.183Z" fill="#E1E4E6"/>
<path id="Vector_2" d="M184.784 114.609L6.16247 293.294C4.25517 295.108 2.72797 297.283 1.66994 299.693C0.611911 302.104 0.0442279 304.701 0 307.333L0 407.812C0.00119201 410.449 1.04892 412.978 2.91294 414.843C4.77697 416.708 7.30479 417.756 9.94091 417.757H110.07C115.31 417.759 120.338 415.689 124.059 411.997L164.947 371.094C166.793 369.246 168.252 367.049 169.241 364.631C170.229 362.213 170.727 359.623 170.705 357.01V299.413C170.706 296.81 171.223 294.232 172.227 291.83C173.23 289.428 174.701 287.249 176.552 285.419L305.559 156.366C306.651 155.385 307.512 154.174 308.079 152.82C308.647 151.466 308.908 150.003 308.843 148.537V118.748C308.842 116.111 307.794 113.583 305.93 111.718C304.066 109.853 301.538 108.805 298.902 108.804H198.458C193.316 108.872 188.406 110.956 184.784 114.609Z" fill="#E1E4E6"/>
<path id="Vector_3" d="M219.51 293.609C215.906 297.26 213.844 302.158 213.752 307.288V407.768C213.753 410.405 214.801 412.933 216.665 414.798C218.529 416.663 221.057 417.711 223.693 417.712H323.822C328.923 417.619 333.791 415.555 337.406 411.952L378.204 371.05C380.14 369.243 381.691 367.065 382.766 364.645C383.84 362.225 384.415 359.613 384.457 356.965V329.652C384.435 327.04 384.932 324.449 385.921 322.031C386.909 319.613 388.369 317.416 390.214 315.568L419.992 285.779C421.821 283.927 423.999 282.456 426.401 281.452C428.802 280.448 431.379 279.93 433.981 279.93H461.375C464.165 280.017 466.942 279.513 469.524 278.45C472.105 277.388 474.433 275.791 476.354 273.765L517.152 232.862C519.004 231.033 520.474 228.854 521.478 226.451C522.482 224.049 522.999 221.472 523 218.868V118.703C522.999 116.066 521.951 113.538 520.087 111.673C518.223 109.808 515.695 108.76 513.059 108.759H412.525C409.909 108.76 407.319 109.276 404.903 110.28C402.487 111.284 400.293 112.755 398.446 114.609L219.51 293.609Z" fill="#E1E4E6"/>
<g id="Group">
<path id="Vector_4" d="M178.082 0L460.071 191.329L453.683 263.73L171.694 72.446L178.082 0Z" fill="url(#paint0_linear_0_1)"/>
<path id="Vector_5" d="M171.694 72.446L453.683 263.73L441.988 269.085L159.999 77.7558L171.694 72.446Z" fill="url(#paint1_linear_0_1)"/>
<path id="Vector_6" d="M178.082 0L171.694 72.446L159.999 77.7557L166.386 5.3547L178.082 0Z" fill="url(#paint2_linear_0_1)"/>
</g>
<path id="Vector_7" d="M431.823 373.254L129.367 354.895L192.746 168.786C195.395 160.989 200.533 154.281 207.369 149.695C214.206 145.108 222.36 142.899 230.576 143.407L504.738 160.056C506.947 160.188 509.095 160.828 511.015 161.928C512.935 163.027 514.576 164.556 515.808 166.394C517.04 168.232 517.831 170.33 518.119 172.525C518.407 174.719 518.184 176.951 517.468 179.045L460.296 353.905C458.352 359.823 454.505 364.931 449.354 368.431C444.203 371.931 438.039 373.627 431.823 373.254Z" fill="url(#paint3_linear_0_1)"/>
<path id="Vector_8" d="M427.954 367.495L118.886 348.731L184.334 156.546C185.87 152.053 188.834 148.187 192.773 145.538C196.713 142.889 201.411 141.603 206.15 141.877L496.371 159.516C498.521 159.647 500.612 160.273 502.481 161.344C504.351 162.415 505.948 163.903 507.149 165.693C508.35 167.482 509.122 169.524 509.406 171.66C509.69 173.796 509.478 175.969 508.785 178.01L452.244 350.981C450.594 356.035 447.313 360.398 442.918 363.387C438.522 366.375 433.259 367.82 427.954 367.495Z" fill="url(#paint4_linear_0_1)"/>
<path id="Vector_9" d="M431.957 373.299L142.321 355.705C140.968 355.623 139.645 355.274 138.427 354.68C137.209 354.086 136.12 353.257 135.222 352.242C134.323 351.227 133.634 350.044 133.193 348.762C132.752 347.48 132.567 346.124 132.65 344.771C132.733 343.418 133.081 342.094 133.675 340.875C134.269 339.657 135.097 338.567 136.112 337.669C137.127 336.77 138.309 336.081 139.591 335.639C140.872 335.198 142.228 335.014 143.581 335.096L433.217 352.69C434.569 352.773 435.893 353.121 437.111 353.716C438.329 354.31 439.418 355.138 440.316 356.154C441.214 357.169 441.904 358.352 442.345 359.633C442.786 360.915 442.971 362.272 442.888 363.625C442.806 364.978 442.458 366.302 441.864 367.521C441.27 368.74 440.442 369.83 439.427 370.728C438.412 371.627 437.23 372.317 435.948 372.758C434.666 373.199 433.31 373.383 431.957 373.299Z" fill="url(#paint5_linear_0_1)"/>
<path id="Vector_10" opacity="0.3" d="M132.65 344.861C132.511 347.573 133.45 350.231 135.262 352.254C137.073 354.277 139.611 355.501 142.321 355.66L431.957 373.254C434.555 373.413 437.116 372.583 439.127 370.93C441.138 369.277 442.449 366.925 442.798 364.345L132.65 344.861Z" fill="url(#paint6_linear_0_1)"/>
<path id="Vector_11" d="M358.367 123.518C384.899 123.518 406.408 102.002 406.408 75.4609C406.408 48.9196 384.899 27.4036 358.367 27.4036C331.835 27.4036 310.327 48.9196 310.327 75.4609C310.327 102.002 331.835 123.518 358.367 123.518Z" fill="url(#paint7_radial_0_1)"/>
<path id="Vector_12" d="M358.367 123.518C384.899 123.518 406.408 102.002 406.408 75.4609C406.408 48.9196 384.899 27.4036 358.367 27.4036C331.835 27.4036 310.327 48.9196 310.327 75.4609C310.327 102.002 331.835 123.518 358.367 123.518Z" fill="url(#paint8_radial_0_1)"/>
<path id="Vector_13" d="M217.036 194.389L190.812 271.425L269.529 276.195L295.753 199.204L217.036 194.389Z" fill="url(#paint9_linear_0_1)"/>
<path id="Vector_14" d="M159.459 229.667L145.92 269.445L146.865 270.12L146.505 275.565L151.363 278.085L155.816 280.559L154.916 286.634L154.556 289.154L156.671 290.819L160.854 294.149L160.134 299.233L164.047 308.638L169.175 311.518L178.172 316.512C178.722 316.808 179.313 317.021 179.926 317.142C190.137 316.962 191.171 307.423 191.171 307.423L159.459 229.667Z" fill="url(#paint10_linear_0_1)"/>
<path id="Vector_15" d="M253.335 226.337L227.966 300.808C227.524 302.11 227.388 303.495 227.569 304.857C227.75 306.22 228.242 307.522 229.008 308.663C229.774 309.803 230.793 310.752 231.985 311.434C233.178 312.117 234.511 312.515 235.883 312.598L376.63 321.147C378.582 321.264 380.519 320.738 382.143 319.649C383.768 318.56 384.991 316.968 385.626 315.118L410.996 240.647C411.438 239.346 411.573 237.96 411.393 236.598C411.212 235.235 410.719 233.933 409.953 232.792C409.187 231.652 408.168 230.703 406.976 230.021C405.784 229.338 404.45 228.94 403.079 228.857L262.332 220.308C260.381 220.199 258.448 220.729 256.825 221.817C255.202 222.905 253.977 224.492 253.335 226.337Z" fill="url(#paint11_linear_0_1)"/>
<path id="Vector_16" d="M370.288 369.564L80.6522 351.97C79.2995 351.888 77.9762 351.54 76.758 350.945C75.5399 350.351 74.4506 349.523 73.5526 348.507C72.6545 347.492 71.9652 346.309 71.524 345.028C71.0828 343.746 70.8984 342.389 70.9812 341.036C71.0638 339.683 71.412 338.359 72.006 337.14C72.6 335.922 73.4282 334.832 74.4432 333.934C75.4582 333.035 76.6402 332.346 77.9217 331.905C79.2031 331.463 80.559 331.279 81.9117 331.362L371.548 348.956C372.9 349.038 374.224 349.387 375.442 349.981C376.66 350.575 377.749 351.403 378.647 352.419C379.545 353.434 380.235 354.617 380.676 355.899C381.117 357.18 381.302 358.537 381.219 359.89C381.137 361.243 380.789 362.567 380.195 363.786C379.601 365.005 378.773 366.095 377.758 366.994C376.743 367.892 375.561 368.582 374.279 369.023C372.997 369.464 371.641 369.648 370.288 369.564Z" fill="url(#paint12_linear_0_1)"/>
<path id="Vector_17" opacity="0.3" d="M70.9812 341.171C70.8424 343.884 71.7811 346.541 73.5927 348.564C75.4043 350.587 77.9419 351.811 80.6523 351.971L370.288 369.565C372.886 369.723 375.447 368.893 377.458 367.24C379.469 365.588 380.78 363.235 381.129 360.655L70.9812 341.171Z" fill="url(#paint13_linear_0_1)"/>
<path id="Vector_18" d="M322.967 273.36C326.749 272.31 330.082 270.05 332.458 266.925C338.261 259.411 337.361 248.971 330.479 243.661C323.597 238.352 313.296 240.107 307.493 247.621C301.691 255.136 302.59 265.575 309.472 270.885C310.134 271.376 310.825 271.827 311.542 272.235C296.968 273.585 283.293 284.969 282.394 299.593L341.184 303.148C342.039 289.289 335.112 277.23 322.967 273.36Z" fill="url(#paint14_linear_0_1)"/>
<path id="Vector_19" d="M162.788 406.553C174.961 406.553 184.829 396.681 184.829 384.504C184.829 372.327 174.961 362.455 162.788 362.455C150.615 362.455 140.747 372.327 140.747 384.504C140.747 396.681 150.615 406.553 162.788 406.553Z" fill="url(#paint15_radial_0_1)"/>
<path id="Vector_20" d="M162.788 406.553C174.961 406.553 184.829 396.681 184.829 384.504C184.829 372.327 174.961 362.455 162.788 362.455C150.615 362.455 140.747 372.327 140.747 384.504C140.747 396.681 150.615 406.553 162.788 406.553Z" fill="url(#paint16_radial_0_1)"/>
<path id="Vector_21" d="M324.182 377.844C324.137 377.799 324.137 377.844 324.182 377.844C324.262 377.862 324.338 377.893 324.408 377.934C324.363 377.934 324.363 377.889 324.317 377.889C324.3 377.872 324.278 377.859 324.255 377.852C324.232 377.844 324.207 377.841 324.182 377.844Z" fill="#858585"/>
<path id="Vector_22" d="M323.372 377.394C323.462 377.439 323.597 377.484 323.688 377.529C323.579 377.493 323.474 377.447 323.372 377.394Z" fill="#858585"/>
<path id="Vector_23" d="M322.562 376.989C322.653 377.034 322.788 377.079 322.878 377.125C322.762 377.111 322.652 377.064 322.562 376.989Z" fill="#858585"/>
<path id="Vector_24" d="M321.798 376.674C321.888 376.719 322.023 376.764 322.113 376.809C322.005 376.773 321.899 376.727 321.798 376.674Z" fill="#858585"/>
<path id="Vector_25" d="M319.998 376.044C320.133 376.089 320.223 376.134 320.359 376.179H320.313C320.213 376.123 320.108 376.078 319.998 376.044Z" fill="#858585"/>
<path id="Vector_26" d="M321.034 376.404C320.999 376.399 320.968 376.384 320.943 376.359H320.898C321.034 376.404 321.124 376.449 321.259 376.494H321.214C321.164 376.447 321.101 376.416 321.034 376.404Z" fill="#858585"/>
<path id="Vector_27" d="M319.054 375.774C319.144 375.819 319.279 375.819 319.369 375.864H319.324C319.234 375.819 319.144 375.819 319.054 375.774Z" fill="#858585"/>
<path id="Vector_28" d="M325.216 376.449C324.542 375.504 323.777 374.514 322.832 373.389C322.787 373.344 322.742 373.254 322.652 373.209C322.787 373.344 322.922 373.524 323.057 373.659C323.822 374.559 324.542 375.549 325.216 376.449Z" fill="#858585"/>
<path id="Vector_29" d="M323.057 373.659L325.936 377.394C325.89 377.309 325.829 377.232 325.756 377.169C324.85 375.843 323.874 374.566 322.832 373.344C323.777 374.469 324.541 375.504 325.216 376.404C324.541 375.549 323.822 374.559 323.057 373.659Z" fill="white"/>
<path id="Vector_30" d="M316.626 375.234C316.536 375.234 316.491 375.189 316.4 375.189C316.473 375.214 316.549 375.229 316.626 375.234Z" fill="#E0E0E0"/>
<path id="Vector_31" d="M319.369 375.864C319.504 375.909 319.594 375.909 319.73 375.954C319.594 375.909 319.459 375.909 319.369 375.864Z" fill="#D6D6D6"/>
<path id="Vector_32" d="M321.213 376.449H321.303C321.303 376.494 321.258 376.449 321.213 376.449Z" fill="#D6D6D6"/>
<path id="Vector_33" d="M320.269 376.134C320.314 376.134 320.359 376.179 320.269 376.134V376.134Z" fill="#D6D6D6"/>
<path id="Vector_34" d="M324.136 377.799C324.091 377.754 324.091 377.799 324.136 377.799C324.181 377.799 324.181 377.844 324.136 377.799Z" fill="#D1D1D1"/>
<path id="Vector_35" d="M321.213 376.449C321.168 376.404 321.078 376.404 321.033 376.359C321.083 376.407 321.146 376.438 321.213 376.449Z" fill="#D1D1D1"/>
<path id="Vector_36" d="M324.137 377.799C324.092 377.754 324.047 377.754 323.957 377.709C323.991 377.714 324.023 377.73 324.047 377.754C324.092 377.754 324.092 377.799 324.137 377.799Z" fill="#C7C7C7"/>
<path id="Vector_37" opacity="0.3" d="M256.215 362.59L354.859 368.575C346.941 358.058 336.027 350.183 323.552 345.986L290.041 343.961C277.125 346.559 265.317 353.061 256.215 362.59Z" fill="url(#paint17_radial_0_1)"/>
<path id="Vector_38" d="M330.884 388.418V388.509C330.929 388.464 330.929 388.418 330.884 388.418Z" fill="#A3A3A3"/>
<path id="Vector_39" d="M330.57 392.964C330.567 392.94 330.569 392.915 330.577 392.891C330.585 392.868 330.598 392.846 330.615 392.828C330.618 392.853 330.615 392.878 330.607 392.901C330.6 392.925 330.587 392.946 330.57 392.964Z" fill="#A3A3A3"/>
<path id="Vector_40" d="M326.746 402.774C326.791 402.728 326.791 402.683 326.837 402.638C326.837 402.65 326.832 402.661 326.823 402.67C326.815 402.678 326.803 402.683 326.791 402.683C326.791 402.728 326.746 402.728 326.746 402.774Z" fill="#A3A3A3"/>
<path id="Vector_41" d="M325.981 404.034C326.027 403.988 326.027 403.943 326.072 403.898V403.943C326.027 403.988 326.027 404.034 325.981 404.034Z" fill="#A3A3A3"/>
<path id="Vector_42" d="M327.466 401.469C327.511 401.423 327.511 401.378 327.556 401.333C327.556 401.345 327.552 401.356 327.543 401.365C327.535 401.373 327.523 401.378 327.511 401.378C327.511 401.423 327.466 401.423 327.466 401.469Z" fill="#A3A3A3"/>
<path id="Vector_43" d="M328.68 398.903C328.68 398.858 328.68 398.858 328.725 398.813C328.721 398.848 328.705 398.88 328.68 398.903Z" fill="#A3A3A3"/>
<path id="Vector_44" d="M318.604 413.752C318.66 413.701 318.706 413.64 318.739 413.572C318.739 413.662 318.694 413.707 318.604 413.752Z" fill="#A3A3A3"/>
<path id="Vector_45" d="M311.452 420.862C311.497 420.862 311.497 420.817 311.542 420.817C311.497 420.862 311.497 420.862 311.452 420.862Z" fill="#A3A3A3"/>
<path id="Vector_46" d="M328.185 400.028C328.18 400.062 328.164 400.094 328.14 400.118C328.143 400.083 328.159 400.051 328.185 400.028Z" fill="#A3A3A3"/>
<path id="Vector_47" d="M315.995 416.542L316.175 416.362L316.085 416.452L315.995 416.542Z" fill="#A3A3A3"/>
<path id="Vector_48" d="M323.192 408.173C323.238 408.128 323.238 408.083 323.283 408.037C323.283 408.083 323.238 408.128 323.192 408.173Z" fill="#A3A3A3"/>
<path id="Vector_49" d="M321.259 410.737C321.213 410.783 321.213 410.828 321.168 410.873C321.168 410.783 321.213 410.737 321.259 410.737Z" fill="#A3A3A3"/>
<path id="Vector_50" d="M324.227 406.778C324.272 406.733 324.272 406.688 324.317 406.643C324.277 406.68 324.246 406.727 324.227 406.778Z" fill="#A3A3A3"/>
<path id="Vector_51" d="M311.587 420.772C311.677 420.682 311.767 420.637 311.857 420.547L311.767 420.637C311.722 420.682 311.632 420.727 311.587 420.772Z" fill="#A3A3A3"/>
<path id="Vector_52" d="M325.126 405.428C325.163 405.388 325.193 405.342 325.217 405.292L325.171 405.338C325.171 405.383 325.126 405.383 325.126 405.428Z" fill="#A3A3A3"/>
<path id="Vector_53" d="M314.691 417.847L314.601 417.938L314.871 417.667L314.826 417.712C314.781 417.802 314.736 417.847 314.691 417.847Z" fill="#A3A3A3"/>
<path id="Vector_54" d="M330.389 393.998V394.088C330.344 394.043 330.344 393.998 330.389 393.998Z" fill="#A3A3A3"/>
<path id="Vector_55" d="M317.39 415.102L317.525 414.967L317.48 415.012L317.39 415.102Z" fill="#A3A3A3"/>
<path id="Vector_56" d="M330.029 395.213C330.029 395.168 330.029 395.168 330.074 395.123V395.168C330.029 395.168 330.029 395.168 330.029 395.213Z" fill="#A3A3A3"/>
<path id="Vector_57" d="M313.116 419.377L313.251 419.242C313.206 419.287 313.161 419.287 313.116 419.377C313.161 419.332 313.116 419.332 313.116 419.377Z" fill="#A3A3A3"/>
<path id="Vector_58" d="M319.998 412.222L320.088 412.132C320.043 412.177 319.998 412.177 319.998 412.222Z" fill="#A3A3A3"/>
<path id="Vector_59" d="M311.542 420.817C311.632 420.727 311.722 420.682 311.767 420.592C311.677 420.682 311.632 420.772 311.542 420.817Z" fill="#9E9E9E"/>
<path id="Vector_60" d="M318.604 413.797C318.604 413.752 318.65 413.752 318.604 413.797V413.797Z" fill="#9E9E9E"/>
<path id="Vector_61" d="M329.805 383.784C329.8 383.75 329.784 383.718 329.76 383.694L329.805 383.784Z" fill="#9E9E9E"/>
<path id="Vector_62" d="M313.026 419.467L313.116 419.377L313.161 419.332L313.026 419.467Z" fill="#9E9E9E"/>
<path id="Vector_63" d="M330.434 385.494C330.389 385.449 330.434 385.449 330.434 385.494V385.494Z" fill="#9E9E9E"/>
<path id="Vector_64" d="M314.825 417.712C314.87 417.667 314.87 417.712 314.825 417.712V417.712Z" fill="#999999"/>
<path id="Vector_65" d="M317.525 414.967C317.57 414.922 317.615 414.877 317.615 414.832L317.435 415.012C317.469 415.008 317.5 414.992 317.525 414.967Z" fill="#999999"/>
<path id="Vector_66" d="M318.604 413.798L318.785 413.617C318.83 413.572 318.83 413.527 318.875 413.527L318.604 413.798Z" fill="#999999"/>
<path id="Vector_67" d="M329.76 383.739C329.757 383.704 329.741 383.672 329.715 383.649C329.76 383.649 329.76 383.694 329.76 383.739Z" fill="#999999"/>
<path id="Vector_68" d="M315.905 416.632L315.995 416.542L316.086 416.452C316.04 416.542 315.95 416.587 315.905 416.632Z" fill="#949494"/>
<path id="Vector_69" d="M328.725 398.858C328.725 398.813 328.77 398.813 328.725 398.858V398.858Z" fill="#949494"/>
<path id="Vector_70" d="M324.182 406.823C324.207 406.799 324.223 406.767 324.227 406.732C324.227 406.778 324.227 406.777 324.182 406.823Z" fill="#949494"/>
<path id="Vector_71" d="M323.282 408.037C323.237 408.082 323.237 408.127 323.192 408.172C323.237 408.127 323.282 408.082 323.282 408.037C323.327 408.037 323.327 407.992 323.282 408.037Z" fill="#949494"/>
<path id="Vector_72" d="M329.76 383.694C329.76 383.649 329.76 383.649 329.715 383.604V383.649L329.76 383.694Z" fill="#949494"/>
<path id="Vector_73" d="M326.027 404.033C326.027 404.078 325.981 404.078 325.981 404.123C325.981 404.078 325.981 404.078 326.027 404.033Z" fill="#8F8F8F"/>
<path id="Vector_74" d="M330.794 387.428V387.519C330.839 387.474 330.839 387.474 330.794 387.428Z" fill="#8F8F8F"/>
<path id="Vector_75" d="M320.988 411.008C321.044 410.957 321.09 410.895 321.124 410.828C321.169 410.783 321.169 410.737 321.214 410.692C321.165 410.814 321.088 410.923 320.988 411.008Z" fill="#8F8F8F"/>
<path id="Vector_76" d="M328.725 398.859C328.742 398.841 328.755 398.819 328.763 398.796C328.77 398.772 328.773 398.747 328.77 398.723C328.77 398.768 328.725 398.814 328.725 398.859Z" fill="#8F8F8F"/>
<path id="Vector_77" d="M326.611 378.43C326.611 378.384 326.565 378.384 326.565 378.339C326.611 378.384 326.656 378.43 326.656 378.475L326.611 378.43Z" fill="#8F8F8F"/>
<path id="Vector_78" d="M329.715 383.604C329.715 383.649 329.76 383.649 329.715 383.604V383.604Z" fill="#8F8F8F"/>
<path id="Vector_79" d="M329.67 396.383C329.67 396.338 329.67 396.338 329.715 396.293C329.689 396.316 329.673 396.349 329.67 396.383Z" fill="#8A8A8A"/>
<path id="Vector_80" d="M327.511 401.378L327.556 401.288C327.553 401.322 327.536 401.355 327.511 401.378Z" fill="#8A8A8A"/>
<path id="Vector_81" d="M330.435 385.449C330.435 385.494 330.48 385.539 330.48 385.585C330.483 385.56 330.48 385.535 330.472 385.512C330.465 385.488 330.452 385.467 330.435 385.449Z" fill="#8A8A8A"/>
<path id="Vector_82" d="M323.282 408.037C323.227 408.089 323.181 408.15 323.147 408.217V408.172C323.237 408.142 323.282 408.097 323.282 408.037Z" fill="#8A8A8A"/>
<path id="Vector_83" d="M330.57 392.963C330.567 392.939 330.569 392.914 330.577 392.891C330.585 392.867 330.598 392.846 330.615 392.828V392.783C330.616 392.846 330.601 392.908 330.57 392.963C330.615 392.918 330.57 392.918 330.57 392.963Z" fill="#8A8A8A"/>
<path id="Vector_84" d="M325.981 404.033C325.981 404.078 325.936 404.078 325.936 404.123V404.078C325.947 404.078 325.959 404.073 325.967 404.065C325.976 404.056 325.981 404.045 325.981 404.033Z" fill="#8A8A8A"/>
<path id="Vector_85" d="M326.836 402.638C326.836 402.593 326.882 402.593 326.882 402.548C326.836 402.593 326.836 402.638 326.791 402.684C326.791 402.672 326.796 402.66 326.804 402.652C326.813 402.643 326.824 402.638 326.836 402.638Z" fill="#858585"/>
<path id="Vector_86" d="M330.884 388.418V388.554C330.894 388.546 330.903 388.536 330.908 388.524C330.914 388.512 330.917 388.499 330.917 388.486C330.917 388.473 330.914 388.46 330.908 388.449C330.903 388.437 330.894 388.427 330.884 388.418Z" fill="#858585"/>
<path id="Vector_87" d="M330.164 384.639C330.164 384.594 330.164 384.594 330.119 384.549V384.504V384.459C330.117 384.522 330.133 384.584 330.164 384.639Z" fill="#858585"/>
<path id="Vector_88" d="M324.137 406.867C324.182 406.822 324.182 406.867 324.137 406.867V406.867Z" fill="#858585"/>
<path id="Vector_89" d="M330.344 394.088C330.344 394.043 330.344 393.998 330.389 393.998C330.386 393.974 330.388 393.949 330.396 393.926C330.404 393.902 330.417 393.881 330.434 393.863C330.377 393.925 330.345 394.005 330.344 394.088Z" fill="#858585"/>
<path id="Vector_90" d="M328.635 398.994C328.64 398.959 328.655 398.928 328.68 398.903V398.813C328.68 398.768 328.725 398.723 328.725 398.678C328.722 398.789 328.691 398.898 328.635 398.994Z" fill="#858585"/>
<path id="Vector_91" d="M328.904 382.164C328.859 382.119 328.859 382.074 328.815 382.029L328.77 381.984C328.815 382.029 328.859 382.119 328.904 382.164C328.949 382.209 328.949 382.164 328.904 382.164Z" fill="#858585"/>
<path id="Vector_92" d="M329.355 382.84C329.31 382.749 329.31 382.704 329.264 382.704C329.219 382.704 329.31 382.794 329.355 382.84Z" fill="#858585"/>
<path id="Vector_93" d="M325.126 405.428L325.216 405.338C325.261 405.293 325.261 405.248 325.306 405.203C325.223 405.256 325.16 405.335 325.126 405.428Z" fill="#858585"/>
<path id="Vector_94" d="M327.556 401.333L327.421 401.603C327.426 401.569 327.441 401.537 327.466 401.513C327.466 401.468 327.511 401.468 327.511 401.423C327.511 401.378 327.511 401.333 327.556 401.333Z" fill="#858585"/>
<path id="Vector_95" d="M329.625 396.519C329.63 396.484 329.646 396.453 329.67 396.428C329.67 396.383 329.67 396.383 329.715 396.338C329.76 396.293 329.715 396.293 329.76 396.248C329.697 396.328 329.651 396.42 329.625 396.519Z" fill="#858585"/>
<path id="Vector_96" d="M325.891 404.213C325.891 404.168 325.936 404.168 325.936 404.123C325.936 404.078 325.981 404.078 325.981 404.033C325.969 404.1 325.938 404.163 325.891 404.213Z" fill="#858585"/>
<path id="Vector_97" d="M330.614 392.873V392.963C330.569 392.918 330.614 392.918 330.614 392.873Z" fill="#858585"/>
<path id="Vector_98" d="M327.645 380.049C327.555 379.914 327.465 379.734 327.375 379.599C327.15 379.239 326.925 378.879 326.656 378.519C326.611 378.474 326.566 378.429 326.566 378.384C326.566 378.339 326.476 378.249 326.431 378.159C326.791 378.744 327.24 379.374 327.645 380.049Z" fill="#858585"/>
<path id="Vector_99" d="M327.421 380.319L327.646 380.544C327.556 380.454 327.511 380.364 327.421 380.319Z" fill="#858585"/>
<path id="Vector_100" d="M326.926 379.779L327.151 380.005C327.061 379.914 326.971 379.869 326.926 379.779Z" fill="#858585"/>
<path id="Vector_101" d="M326.431 379.374L326.341 379.284C326.431 379.329 326.476 379.419 326.566 379.464C326.521 379.419 326.476 379.419 326.431 379.374Z" fill="#858585"/>
<path id="Vector_102" d="M325.846 378.924C325.801 378.879 325.756 378.834 325.711 378.834C325.756 378.834 325.846 378.879 325.846 378.924Z" fill="#858585"/>
<path id="Vector_103" d="M327.96 380.904C328.005 380.949 328.05 381.039 328.14 381.084L327.96 380.904Z" fill="#858585"/>
<path id="Vector_104" d="M328.41 381.399C328.455 381.489 328.545 381.534 328.59 381.624C328.507 381.571 328.444 381.492 328.41 381.399Z" fill="#858585"/>
<path id="Vector_105" d="M326.34 378.024C326.385 378.114 326.475 378.159 326.52 378.249L327.195 379.329C327.96 380.499 328.769 381.759 329.354 382.794C328.859 381.939 328.275 380.994 327.69 380.004C327.285 379.329 326.835 378.699 326.43 378.069C326.25 377.844 326.115 377.574 325.936 377.394C326.07 377.619 326.205 377.844 326.34 378.024Z" fill="white"/>
<path id="Vector_106" d="M265.301 387.384C265.267 387.388 265.235 387.404 265.211 387.429C265.301 387.384 265.346 387.339 265.436 387.293C265.346 387.339 265.301 387.339 265.301 387.384Z" fill="white"/>
<path id="Vector_107" d="M272.589 383.874C272.454 383.919 272.364 383.964 272.229 384.009C272.351 383.972 272.472 383.926 272.589 383.874Z" fill="white"/>
<path id="Vector_108" d="M269.8 385.134C269.665 385.179 269.53 385.269 269.395 385.314C269.537 385.273 269.674 385.212 269.8 385.134Z" fill="#FAFAFA"/>
<path id="Vector_109" d="M265.346 387.339C265.301 387.339 265.301 387.384 265.256 387.384C265.279 387.358 265.311 387.342 265.346 387.339L265.616 387.204C265.531 387.258 265.44 387.303 265.346 387.339Z" fill="#F5F5F5"/>
<path id="Vector_110" d="M267.46 386.259C267.505 386.259 267.55 386.214 267.595 386.214C267.577 386.231 267.556 386.243 267.532 386.251C267.509 386.259 267.484 386.262 267.46 386.259Z" fill="#F5F5F5"/>
<path id="Vector_111" d="M263.502 388.329C263.547 388.284 263.592 388.284 263.637 388.239C263.592 388.239 263.592 388.284 263.502 388.329C263.547 388.284 263.502 388.284 263.502 388.329Z" fill="#F0F0F0"/>
<path id="Vector_112" d="M261.522 389.409C261.613 389.364 261.658 389.319 261.748 389.273C261.736 389.273 261.724 389.278 261.716 389.287C261.707 389.295 261.703 389.307 261.703 389.319C261.668 389.319 261.634 389.328 261.602 389.343C261.571 389.359 261.544 389.381 261.522 389.409Z" fill="#F0F0F0"/>
<path id="Vector_113" d="M265.436 387.294C265.526 387.249 265.571 387.204 265.661 387.204H265.706C265.571 387.249 265.481 387.249 265.436 387.294Z" fill="#F0F0F0"/>
<path id="Vector_114" d="M265.301 387.384C265.346 387.384 265.346 387.339 265.391 387.339C265.342 387.386 265.279 387.418 265.211 387.429C265.235 387.404 265.267 387.389 265.301 387.384Z" fill="#EBEBEB"/>
<path id="Vector_115" d="M263.547 388.284C263.592 388.284 263.637 388.239 263.682 388.239C263.763 388.204 263.839 388.158 263.907 388.104C263.783 388.154 263.662 388.215 263.547 388.284Z" fill="#EBEBEB"/>
<path id="Vector_116" d="M261.702 389.274C261.792 389.229 261.837 389.184 261.882 389.184C261.837 389.184 261.837 389.229 261.792 389.229C261.769 389.254 261.737 389.27 261.702 389.274Z" fill="#EBEBEB"/>
<path id="Vector_117" d="M261.703 389.273C261.613 389.319 261.568 389.364 261.478 389.409H261.523C261.574 389.353 261.635 389.307 261.703 389.273Z" fill="#E6E6E6"/>
<path id="Vector_118" d="M253.291 394.268C253.312 394.241 253.34 394.219 253.371 394.203C253.402 394.187 253.436 394.179 253.471 394.178C253.426 394.178 253.426 394.223 253.381 394.223C253.357 394.248 253.325 394.264 253.291 394.268Z" fill="#D1D1D1"/>
<path id="Vector_119" d="M249.423 396.878C249.513 396.833 249.603 396.743 249.693 396.698C249.648 396.743 249.603 396.743 249.603 396.788C249.568 396.789 249.534 396.797 249.503 396.813C249.472 396.829 249.444 396.851 249.423 396.878Z" fill="#CCCCCC"/>
<path id="Vector_120" d="M251.536 395.393C251.491 395.393 251.491 395.438 251.446 395.438C251.491 395.438 251.536 395.438 251.536 395.393Z" fill="#CCCCCC"/>
<path id="Vector_121" d="M249.558 396.744C249.603 396.698 249.648 396.698 249.648 396.653C249.648 396.608 249.783 396.563 249.828 396.518C249.76 396.616 249.666 396.694 249.558 396.744Z" fill="#C7C7C7"/>
<path id="Vector_122" d="M325.936 378.969C325.981 378.969 325.981 379.014 326.026 379.014C326.071 379.014 326.116 379.104 326.161 379.104C326.08 379.069 326.004 379.024 325.936 378.969Z" fill="#BDBDBD"/>
<path id="Vector_123" d="M243.08 401.513C243.215 401.423 243.35 401.288 243.486 401.198C243.362 401.317 243.226 401.423 243.08 401.513Z" fill="#B8B8B8"/>
<path id="Vector_124" d="M326.431 379.374C325.531 378.384 324.677 377.484 323.912 376.629C324.407 377.259 324.902 377.889 325.397 378.564L325.531 378.699C325.576 378.744 325.666 378.789 325.711 378.834C325.756 378.879 325.801 378.924 325.846 378.924L325.891 378.969C325.981 379.014 326.026 379.104 326.116 379.149C326.202 379.195 326.278 379.256 326.341 379.329C326.386 379.329 326.386 379.329 326.431 379.374Z" fill="#B8B8B8"/>
<path id="Vector_125" d="M328.86 382.029C328.815 381.984 328.86 381.984 328.86 382.029V382.029Z" fill="#B3B3B3"/>
<path id="Vector_126" d="M327.961 380.905C327.915 380.86 327.87 380.814 327.87 380.769C327.907 380.81 327.937 380.855 327.961 380.905Z" fill="#B3B3B3"/>
<path id="Vector_127" d="M328.815 382.03C328.77 381.984 328.77 381.939 328.725 381.894C328.765 381.931 328.796 381.978 328.815 382.03Z" fill="#ADADAD"/>
<path id="Vector_128" d="M327.151 379.329L326.476 378.249C326.431 378.159 326.341 378.114 326.296 378.024C326.611 378.474 326.881 378.879 327.151 379.329Z" fill="#A3A3A3"/>
<path id="Vector_129" d="M327.15 379.329L328.905 382.164C328.905 382.209 328.95 382.209 328.95 382.254C329.042 382.379 329.117 382.515 329.175 382.659C329.202 382.68 329.224 382.708 329.24 382.739C329.255 382.77 329.264 382.804 329.265 382.839C328.623 381.632 327.917 380.46 327.15 379.329Z" fill="#A3A3A3"/>
<path id="Vector_130" d="M329.782 382.177C315.195 356.115 281.71 344.231 253.921 353.635C240.531 358.154 229.016 366.984 221.174 378.744V378.789C208.714 393.926 208.265 430.352 217.621 442.235C213.662 405.985 328.14 381.435 329.782 382.177Z" fill="url(#paint18_radial_0_1)"/>
<path id="Vector_131" d="M329.516 381.754C320.38 365.443 303.04 353.766 285.209 350.931C280.041 349.928 274.274 349.833 268.971 350.301C264.248 350.661 259.17 351.89 254.577 353.226H254.532C241.147 357.755 229.635 366.582 221.785 378.335V378.38C209.339 393.517 208.853 429.938 218.232 441.826C214.903 422.41 327.874 381.007 329.516 381.754Z" fill="url(#paint19_linear_0_1)"/>
<path id="Vector_132" d="M329.656 381.916C320.52 365.605 303.18 353.932 285.349 351.093C280.181 350.09 274.414 349.995 269.111 350.463C264.388 350.823 259.314 352.051 254.717 353.388H254.672C251.162 354.579 247.761 356.07 244.506 357.843C235.408 362.782 227.656 369.873 221.925 378.497V378.542C209.479 393.679 208.997 430.104 218.372 441.988C215.043 422.576 328.014 381.174 329.656 381.916Z" fill="url(#paint20_linear_0_1)"/>
<path id="Vector_133" d="M287.477 438.411C256.35 454.745 225.133 456.635 217.801 442.595C210.469 428.556 229.721 403.943 260.848 387.609C291.975 371.274 323.192 369.385 330.524 383.424C337.856 397.463 318.604 422.077 287.477 438.411Z" fill="url(#paint21_linear_0_1)"/>
<path id="Vector_134" d="M144.931 221.253L181.213 313.183C184.811 310.244 184.811 305.758 184.811 305.758L149.636 218.688L149.564 218.656L141.242 222.513L144.931 221.253Z" fill="url(#paint22_linear_0_1)"/>
<path id="Vector_135" d="M146.663 221.212C146.843 221.037 126.272 229.154 123.974 229.42L121.99 232.867H122.125L129.007 249.286L133.82 249.601L136.924 256.936L135.665 263.46L140.748 267.42L140.298 273.45L149.249 278.49L148.124 287.039L154.467 291.494L153.837 297.389L157.661 306.568L171.92 314.983C178.397 316.108 181.681 313.453 183.345 310.708L146.663 221.212Z" fill="url(#paint23_linear_0_1)"/>
<path id="Vector_136" d="M142.816 223.773C141.062 225.213 138.556 225.316 136.622 226.396L168.815 305.623L177.767 310.348L142.816 223.773Z" fill="url(#paint24_linear_0_1)"/>
<path id="Vector_137" d="M133.015 227.017C131.756 227.557 130.51 228.785 129.205 229.19L157.993 300.286L163.661 303.256L133.015 227.017Z" fill="url(#paint25_linear_0_1)"/>
<path id="Vector_138" d="M466.544 119.036C455.528 115.437 454.003 97.8065 464.295 92.4113C455.636 89.5179 448.34 98.6614 449.28 106.81C449.419 115.212 458.335 123.487 466.584 119.041L466.544 119.036Z" fill="url(#paint26_linear_0_1)"/>
<path id="Vector_139" d="M489.017 82.305L461.668 73.5305L453.562 74.228L480.911 83.007L489.017 82.305Z" fill="url(#paint27_linear_0_1)"/>
<path id="Vector_140" d="M488.71 114.852L469.166 137.922L477.267 137.224L496.816 114.15L488.71 114.852Z" fill="url(#paint28_linear_0_1)"/>
<path id="Vector_141" d="M488.711 114.852L496.817 114.15L489.017 82.3049L480.911 83.0069L488.711 114.852Z" fill="#F1F1F1"/>
<path id="Vector_142" d="M480.911 83.0069L453.562 74.2458L434.018 97.3161L441.817 129.143L469.166 137.917L488.711 114.847L480.911 83.0069ZM473.151 109.857C469.031 126.551 448.83 120.049 449.352 105.857C450.085 85.8777 476.858 89.5675 473.151 109.857Z" fill="url(#paint29_linear_0_1)"/>
<path id="Vector_143" d="M81.0475 284.407C81.0894 283.402 80.8984 282.402 80.4894 281.484C80.0805 280.565 79.4646 279.754 78.6901 279.113C77.9156 278.473 77.0034 278.02 76.0249 277.791C75.0464 277.562 74.0281 277.562 73.0498 277.792C73.1128 284.884 67.4811 291.899 60.5449 293.361C60.6439 300.7 69.0329 301.38 73.7335 297.528C77.8943 294.545 81.079 289.64 81.0475 284.407Z" fill="url(#paint30_linear_0_1)"/>
<path id="Vector_144" d="M91.0423 268.059L83.0491 261.634L62.0742 258.646L70.0674 265.071L91.0423 268.059Z" fill="white"/>
<path id="Vector_145" d="M70.0677 265.071L62.0745 258.646L41.8193 279.381L49.8125 285.806L70.0677 265.071Z" fill="url(#paint31_linear_0_1)"/>
<path id="Vector_146" d="M41.8193 279.381L42.5525 303.099L50.5457 309.524L49.8125 285.806L41.8193 279.381Z" fill="url(#paint32_linear_0_1)"/>
<path id="Vector_147" d="M91.0427 268.059L70.0679 265.071L49.8262 285.806L50.5594 309.524L71.5208 312.508L91.7624 291.777L91.0427 268.059ZM81.0074 285.055C80.6025 292.835 72.5328 301.987 64.2338 299.269C59.7356 297.164 59.902 291.705 61.7553 287.507C64.895 278.485 80.6115 272.1 81.0074 285.055Z" fill="url(#paint33_linear_0_1)"/>
<path id="Vector_148" d="M122.643 186.816C112.202 191.037 103.229 177.295 111.285 169.425C96.7107 176.669 110.205 197.813 122.8 186.74C122.752 186.774 122.699 186.799 122.643 186.816Z" fill="url(#paint34_linear_0_1)"/>
<path id="Vector_149" d="M143.608 223.242C155.006 214.751 160.39 199.415 157.259 185.606C152.869 162.239 124.873 147.767 103.601 158.985C56.6762 184.629 99.737 253.952 143.608 223.242ZM122.799 186.74C112.318 196.437 98.0592 180.071 108.855 170.883C119.102 162.778 131.975 177.614 122.799 186.74Z" fill="url(#paint35_linear_0_1)"/>
<path id="Vector_150" d="M137.644 221.212C101.249 241.047 68.7725 190.245 102.108 165.595C66.9282 190.794 100.975 243.671 138.692 220.551C138.35 220.776 137.999 221.001 137.644 221.212Z" fill="url(#paint36_linear_0_1)"/>
<path id="Vector_151" d="M161.254 191.554C161.029 159.453 124.369 141.504 99.0762 161.609C99.436 161.375 99.7959 161.159 100.169 160.916L99.6249 161.28C141.854 136.532 178.837 197.413 141.228 224.88C143.788 223.012 144.229 222.891 141.782 224.547C153.526 217.91 161.484 205.189 161.254 191.554Z" fill="url(#paint37_linear_0_1)"/>
<path id="Vector_152" d="M143.041 223.57L143.549 223.183C143.859 222.936 144.165 222.684 144.449 222.432L144.849 222.099C145.299 221.725 145.695 221.347 146.104 220.956L146.252 220.812C146.608 220.465 146.959 220.114 147.301 219.759L147.651 219.376C147.917 219.093 148.182 218.8 148.439 218.508C148.573 218.355 148.704 218.197 148.834 218.058C149.068 217.779 149.284 217.495 149.523 217.212L149.927 216.69C150.143 216.406 150.35 216.123 150.557 215.835L150.926 215.322C151.196 214.926 151.466 214.526 151.722 214.116L151.817 213.977C152.127 213.482 152.424 212.987 152.716 212.478L152.793 212.339C153.036 211.889 153.274 211.439 153.503 210.989L153.593 210.813C153.814 210.363 154.043 209.913 154.228 209.463C154.286 209.328 154.349 209.198 154.408 209.063C154.574 208.68 154.731 208.289 154.889 207.902C154.965 207.699 155.046 207.501 155.123 207.299C155.249 206.966 155.37 206.629 155.487 206.287C155.555 206.084 155.627 205.886 155.69 205.684C155.811 205.319 155.923 204.95 156.031 204.577C156.081 204.406 156.135 204.239 156.18 204.068C156.333 203.524 156.472 202.979 156.598 202.43C156.598 202.39 156.598 202.349 156.621 202.313C156.738 201.8 156.841 201.287 156.936 200.77L156.976 200.54C157.066 200.027 157.147 199.514 157.214 198.997C157.214 198.943 157.214 198.893 157.237 198.839C157.313 198.268 157.372 197.692 157.417 197.116C157.417 196.981 157.417 196.842 157.444 196.707C157.475 196.257 157.502 195.807 157.52 195.384C157.52 195.249 157.52 195.114 157.52 194.979C157.52 194.529 157.52 194.079 157.52 193.629C157.52 193.498 157.52 193.368 157.52 193.237C157.52 192.661 157.484 192.081 157.448 191.505C157.448 191.482 157.448 191.46 157.448 191.442C157.408 190.884 157.358 190.326 157.295 189.768C157.295 189.583 157.246 189.399 157.223 189.214C157.174 188.814 157.12 188.418 157.057 188.022C157.021 187.806 156.981 187.572 156.945 187.374C156.859 186.893 156.774 186.411 156.666 185.93C156.54 185.36 156.4 184.788 156.247 184.215L156.193 184.004C156.049 183.477 155.892 182.951 155.744 182.424L155.64 182.105C155.451 181.529 155.253 180.953 155.033 180.377C154.812 179.801 154.632 179.351 154.417 178.847C154.345 178.681 154.264 178.519 154.192 178.352C154.039 178.01 153.886 177.668 153.742 177.331C153.697 177.232 153.647 177.133 153.598 177.034C153.413 176.656 153.22 176.282 153.027 175.913C152.977 175.819 152.928 175.72 152.874 175.625C152.64 175.175 152.397 174.766 152.15 174.343L151.988 174.077C151.776 173.722 151.538 173.371 151.331 173.024C151.268 172.93 151.209 172.835 151.146 172.745C150.881 172.336 150.607 171.94 150.328 171.544L150.157 171.314C149.914 170.981 149.667 170.653 149.415 170.329L149.203 170.055C148.906 169.677 148.6 169.308 148.304 168.943C148.25 168.876 148.191 168.813 148.137 168.75C147.867 168.439 147.593 168.129 147.314 167.85L147.076 167.593C146.749 167.242 146.416 166.9 146.077 166.567L145.92 166.414C145.618 166.122 145.317 165.834 145.02 165.555C144.934 165.474 144.849 165.393 144.759 165.316C144.408 164.997 144.048 164.686 143.684 164.38L143.54 164.268C143.234 164.016 142.924 163.768 142.613 163.525L142.119 163.147L141.381 162.607L140.873 162.252L140.099 161.734L139.604 161.411C139.321 161.235 139.037 161.06 138.75 160.889L138.3 160.628C137.899 160.394 137.499 160.178 137.094 159.957L136.811 159.809C136.451 159.62 136.087 159.44 135.722 159.264L135.493 159.152C135.093 158.958 134.683 158.778 134.278 158.603C133.874 158.427 133.428 158.247 133.001 158.081L132.673 157.95C132.133 157.743 131.588 157.554 131.04 157.374C130.842 157.307 130.644 157.253 130.446 157.19C130.122 157.091 129.794 156.987 129.465 156.897C129.249 156.834 129.016 156.78 128.804 156.722C128.494 156.641 128.183 156.56 127.873 156.488L127.122 156.321C126.847 156.267 126.573 156.204 126.299 156.155C126.024 156.105 125.79 156.065 125.534 156.02L124.706 155.889C124.445 155.849 124.185 155.817 123.919 155.786C123.654 155.754 123.388 155.718 123.118 155.691L122.322 155.624C122.052 155.601 121.787 155.579 121.517 155.565L120.734 155.534C120.451 155.534 120.172 155.511 119.889 155.507H119.106C118.823 155.507 118.539 155.507 118.26 155.507L117.509 155.543C117.194 155.543 116.88 155.574 116.569 155.601C116.259 155.628 116.065 155.642 115.818 155.669C115.571 155.696 115.193 155.732 114.882 155.772C114.477 155.822 114.068 155.871 113.663 155.934C113.119 156.024 112.575 156.123 112.035 156.236L111.513 156.353C111.113 156.438 110.713 156.528 110.317 156.632L110.024 156.708C109.521 156.84 109.017 156.99 108.513 157.158L108.27 157.235C107.744 157.406 107.217 157.581 106.696 157.775C106.174 157.968 105.598 158.198 105.063 158.423L104.838 158.517C104.33 158.738 103.83 158.967 103.336 159.206L103.066 159.341C102.574 159.584 102.093 159.836 101.622 160.097L101.392 160.223C100.907 160.502 100.421 160.785 99.9485 161.078C99.93 161.091 99.9105 161.103 99.89 161.114C85.271 170.293 78.7487 189.012 85.2575 206.111C91.8113 223.377 109.399 233.299 126.672 230.563C129.046 230.19 131.378 229.587 133.635 228.763C136.463 227.72 139.151 226.331 141.637 224.628C141.826 224.497 142.011 224.371 142.191 224.241C142.478 224.016 142.762 223.792 143.041 223.57ZM133.01 223.638L132.538 223.831L132.335 223.912C132.043 224.025 131.741 224.128 131.436 224.236C131.215 224.313 130.986 224.394 130.779 224.466C130.459 224.569 130.131 224.664 129.803 224.758C129.605 224.817 129.411 224.88 129.209 224.934C128.831 225.037 128.449 225.127 128.062 225.217L127.788 225.28C127.14 225.424 126.492 225.554 125.826 225.662L125.08 225.761L124.58 225.824L123.865 225.905L122.966 225.977L122.264 226.018H121.998C121.769 226.018 121.549 226.018 121.306 226.018C121.063 226.018 120.919 226.018 120.725 226.018C120.361 226.018 120.001 226.018 119.637 225.995C119.488 225.995 119.335 225.995 119.187 225.995H119.115C118.634 225.973 118.152 225.937 117.676 225.892L117.374 225.856C117.028 225.82 116.682 225.775 116.34 225.73H116.178C115.998 225.707 115.813 225.671 115.634 225.644C115.314 225.595 114.999 225.541 114.684 225.478C114.486 225.442 114.293 225.397 114.095 225.356L113.578 225.239L113.218 225.158L112.566 224.996L111.734 224.767L111.104 224.538L110.776 224.43L110.326 224.286C110.074 224.2 109.817 224.11 109.57 224.016L108.837 223.737C108.585 223.638 108.338 223.539 108.095 223.435L107.789 223.3L107.442 223.147C107.11 222.999 106.781 222.841 106.457 222.697L105.864 222.4C105.526 222.225 105.189 222.045 104.86 221.856C104.73 221.788 104.604 221.716 104.478 221.644L104.298 221.545L103.916 221.316L103.057 220.78L102.652 220.515C102.35 220.317 102.058 220.11 101.752 219.903L101.446 219.687C101.081 219.423 100.721 219.148 100.367 218.863L100.317 218.827C99.8675 218.463 99.4177 218.085 98.9679 217.698L98.626 217.383C98.3066 217.09 97.9918 216.798 97.6814 216.483C97.5285 216.334 97.3845 216.186 97.2316 216.033C96.9617 215.759 96.6963 215.484 96.4399 215.201L95.9901 214.706C95.7322 214.406 95.4803 214.106 95.2344 213.806L94.8431 213.324C94.5552 212.96 94.2763 212.591 94.0064 212.213C93.9299 212.109 93.849 212.006 93.777 211.902C93.4351 211.421 93.1023 210.926 92.7874 210.422C92.7019 210.287 92.6255 210.152 92.54 210.017C92.3106 209.639 92.0902 209.261 91.8698 208.874C91.7663 208.689 91.6674 208.496 91.5639 208.307C91.3795 207.96 91.2041 207.614 91.0286 207.258C90.9792 207.155 90.9297 207.047 90.8757 206.939L90.6553 206.489C90.5968 206.354 90.5338 206.224 90.4754 206.089C90.2864 205.661 90.1065 205.234 89.9356 204.802C89.9459 204.781 89.9549 204.76 89.9626 204.739C89.7871 204.289 89.6207 203.816 89.4588 203.348L89.3238 202.934C89.2654 202.754 89.2114 202.57 89.1574 202.385L89.0494 202.039C88.9505 201.706 88.8605 201.373 88.7706 201.035C88.7121 200.797 88.6491 200.558 88.5906 200.315C88.5052 199.964 88.4332 199.613 88.3612 199.258C88.3252 199.087 88.2893 198.92 88.2578 198.749C88.2263 198.578 88.1993 198.466 88.1723 198.322C88.0823 197.822 88.0104 197.323 87.9474 196.819C87.9474 196.639 87.9024 196.455 87.8844 196.275C87.8574 196.023 87.8305 195.775 87.808 195.523C87.808 195.433 87.808 195.343 87.781 195.253C87.781 195.028 87.7495 194.803 87.736 194.583C87.736 194.272 87.7 193.962 87.691 193.651C87.691 193.431 87.691 193.201 87.691 192.999C87.691 192.855 87.691 192.715 87.691 192.576C87.691 192.436 87.691 192.229 87.691 192.058C87.691 191.887 87.691 191.653 87.691 191.451C87.691 191.122 87.7225 190.798 87.7405 190.474C87.7405 190.29 87.763 190.11 87.7765 189.925C87.7765 189.867 87.7765 189.813 87.7765 189.754C87.8035 189.43 87.8349 189.106 87.8754 188.783C87.8754 188.603 87.9159 188.418 87.9384 188.234C87.9924 187.851 88.0509 187.469 88.1138 187.091C88.1453 186.893 88.1858 186.695 88.2218 186.497C88.2848 186.173 88.3477 185.849 88.4197 185.525C88.4647 185.309 88.5187 185.075 88.5726 184.872C88.6266 184.67 88.6896 184.4 88.7526 184.166C88.7526 184.103 88.7841 184.035 88.802 183.972C88.865 183.734 88.937 183.522 89.0045 183.27C89.0719 183.018 89.1574 182.748 89.2429 182.492C89.3283 182.235 89.4003 182.042 89.4813 181.79C89.5622 181.538 89.6117 181.43 89.6747 181.254L89.7512 181.038C89.8681 180.741 89.9896 180.444 90.111 180.138C90.1965 179.931 90.2774 179.72 90.3719 179.513C90.5068 179.203 90.6508 178.901 90.7947 178.613C90.8667 178.46 90.9342 178.307 91.0061 178.163L91.2086 177.758C91.384 177.421 91.5639 177.088 91.7483 176.755L91.9148 176.453C92.1277 176.087 92.3436 175.727 92.5625 175.373L92.7829 175.027C92.9134 174.829 93.0438 174.631 93.1787 174.437C93.2327 174.356 93.2822 174.275 93.3407 174.194C93.4846 173.983 93.6331 173.776 93.7905 173.569C93.9479 173.362 94.0964 173.146 94.2403 172.939C94.3843 172.732 94.5507 172.538 94.6901 172.336C94.8296 172.133 95.0185 171.931 95.1849 171.733C95.3514 171.535 95.5178 171.346 95.6887 171.152C95.8596 170.959 96.0351 170.761 96.2105 170.572C96.3859 170.383 96.5614 170.199 96.7413 170.014L97.2901 169.461L97.8478 168.934L98.4281 168.403L99.0128 167.904C99.2108 167.733 99.4132 167.566 99.6156 167.404L100.227 166.927L100.857 166.477L101.491 166.027C101.689 165.892 101.887 165.757 102.09 165.627C105.825 163.191 110.033 161.573 114.437 160.88C132.11 158.081 148.978 170.329 152.123 188.207C153.24 194.326 152.565 200.638 150.178 206.382C147.792 212.126 143.797 217.057 138.673 220.582C138.489 220.708 138.304 220.834 138.115 220.956C137.926 221.077 137.62 221.271 137.373 221.406C137.126 221.541 136.95 221.667 136.734 221.788C136.518 221.91 136.222 222.081 135.961 222.238C135.7 222.396 135.511 222.472 135.308 222.585C135.106 222.697 134.769 222.855 134.499 222.981L133.833 223.296C133.595 223.381 133.298 223.503 133.01 223.638Z" fill="url(#paint38_linear_0_1)"/>
</g>
</g>
</g>
</g>
</g>
<defs>
<linearGradient id="paint0_linear_0_1" x1="297.589" y1="159.872" x2="336.283" y2="100.681" gradientUnits="userSpaceOnUse">
<stop stop-color="#EBEBEB"/>
<stop offset="1" stop-color="#B89FA0"/>
</linearGradient>
<linearGradient id="paint1_linear_0_1" x1="154.911" y1="161.527" x2="458.752" y2="179.945" gradientUnits="userSpaceOnUse">
<stop stop-color="#808080"/>
<stop offset="0.68" stop-color="#E6E6E6"/>
</linearGradient>
<linearGradient id="paint2_linear_0_1" x1="171.41" y1="-0.409612" x2="166.644" y2="78.151" gradientUnits="userSpaceOnUse">
<stop stop-color="#545454"/>
<stop offset="0.43" stop-color="#858585"/>
<stop offset="0.52" stop-color="#8F8585"/>
<stop offset="0.66" stop-color="#A98484"/>
<stop offset="0.84" stop-color="#D38383"/>
<stop offset="1" stop-color="#FF8282"/>
</linearGradient>
<linearGradient id="paint3_linear_0_1" x1="330.797" y1="149.471" x2="317.645" y2="366.298" gradientUnits="userSpaceOnUse">
<stop stop-color="#F0BEC1"/>
<stop offset="0.35" stop-color="#F0535C"/>
<stop offset="0.6" stop-color="#C87176"/>
<stop offset="0.86" stop-color="#A48C8D"/>
<stop offset="1" stop-color="#969696"/>
</linearGradient>
<linearGradient id="paint4_linear_0_1" x1="235.669" y1="102.069" x2="380.351" y2="391.78" gradientUnits="userSpaceOnUse">
<stop stop-color="#404040"/>
<stop offset="0.56" stop-color="#6A6A6A"/>
<stop offset="0.67" stop-color="#636363"/>
<stop offset="0.83" stop-color="#505050"/>
<stop offset="1" stop-color="#343433"/>
</linearGradient>
<linearGradient id="paint5_linear_0_1" x1="287.769" y1="343.875" x2="287.769" y2="376.197" gradientUnits="userSpaceOnUse">
<stop offset="0.56" stop-color="#6A6A6A"/>
<stop offset="0.67" stop-color="#636363"/>
<stop offset="0.83" stop-color="#505050"/>
<stop offset="1" stop-color="#343433"/>
</linearGradient>
<linearGradient id="paint6_linear_0_1" x1="287.859" y1="352.807" x2="285.838" y2="379.536" gradientUnits="userSpaceOnUse">
<stop/>
<stop offset="0.26" stop-color="#070707" stop-opacity="0.77"/>
<stop offset="0.63" stop-color="#1A1A1A" stop-opacity="0.43"/>
<stop offset="1" stop-color="#343433" stop-opacity="0.1"/>
</linearGradient>
<radialGradient id="paint7_radial_0_1" cx="0" cy="0" r="1" gradientTransform="matrix(-78.1588 -18.8576 18.8509 -78.1866 373.675 106.617)" gradientUnits="userSpaceOnUse">
<stop offset="0.11" stop-color="#C27278"/>
<stop offset="0.52" stop-color="#997F81"/>
<stop offset="0.77" stop-color="#858585"/>
<stop offset="1" stop-color="#B0B0B0"/>
</radialGradient>
<radialGradient id="paint8_radial_0_1" cx="0" cy="0" r="1" gradientUnits="userSpaceOnUse" gradientTransform="translate(379.329 64.522) scale(76.9724 76.9997)">
<stop offset="0.08" stop-color="#DBDBDB" stop-opacity="0.7"/>
<stop offset="0.39" stop-color="#989898" stop-opacity="0.46"/>
<stop offset="0.65" stop-color="#636363" stop-opacity="0.42"/>
<stop offset="0.77" stop-color="#4F4F4F" stop-opacity="0.4"/>
<stop offset="1" stop-color="#7D7D7D" stop-opacity="0.05"/>
</radialGradient>
<linearGradient id="paint9_linear_0_1" x1="221.698" y1="192.045" x2="264.871" y2="278.499" gradientUnits="userSpaceOnUse">
<stop stop-color="#F0535C"/>
<stop offset="0.18" stop-color="#E9555F"/>
<stop offset="0.44" stop-color="#D65B68"/>
<stop offset="0.74" stop-color="#B66476"/>
<stop offset="1" stop-color="#966E84"/>
</linearGradient>
<linearGradient id="paint10_linear_0_1" x1="150.337" y1="241.574" x2="179.247" y2="319.53" gradientUnits="userSpaceOnUse">
<stop stop-color="#4F4F4F"/>
<stop offset="1" stop-color="#545454"/>
</linearGradient>
<linearGradient id="paint11_linear_0_1" x1="287.407" y1="206.44" x2="351.589" y2="334.955" gradientUnits="userSpaceOnUse">
<stop stop-color="#D6D6D6"/>
<stop offset="1" stop-color="white"/>
</linearGradient>
<linearGradient id="paint12_linear_0_1" x1="226.73" y1="340.173" x2="225.48" y2="360.789" gradientUnits="userSpaceOnUse">
<stop stop-color="#CBCBCB"/>
<stop offset="0.46" stop-color="#CBCBCB"/>
<stop offset="0.61" stop-color="#CDC4C4"/>
<stop offset="0.84" stop-color="#D3B1B1"/>
<stop offset="1" stop-color="#D99F9F"/>
</linearGradient>
<linearGradient id="paint13_linear_0_1" x1="226.194" y1="349.091" x2="224.173" y2="375.815" gradientUnits="userSpaceOnUse">
<stop/>
<stop offset="0.26" stop-color="#070707" stop-opacity="0.77"/>
<stop offset="0.63" stop-color="#1A1A1A" stop-opacity="0.43"/>
<stop offset="1" stop-color="#343433" stop-opacity="0.1"/>
</linearGradient>
<linearGradient id="paint14_linear_0_1" x1="310.407" y1="304.523" x2="329.507" y2="243.803" gradientUnits="userSpaceOnUse">
<stop stop-opacity="0.2"/>
<stop offset="0.13" stop-color="#070506" stop-opacity="0.2"/>
<stop offset="0.31" stop-color="#1A1317" stop-opacity="0.2"/>
<stop offset="0.53" stop-color="#3A2A33" stop-opacity="0.2"/>
<stop offset="0.77" stop-color="#654A59" stop-opacity="0.2"/>
<stop offset="1" stop-color="#966E84" stop-opacity="0.2"/>
</linearGradient>
<radialGradient id="paint15_radial_0_1" cx="0" cy="0" r="1" gradientTransform="matrix(-4.42672 -36.5334 36.5204 -4.42829 152.987 398.484)" gradientUnits="userSpaceOnUse">
<stop offset="0.11" stop-color="#C27278"/>
<stop offset="0.51" stop-color="#9E4E50"/>
<stop offset="0.71" stop-color="#945959"/>
<stop offset="1" stop-color="#FF9191"/>
</radialGradient>
<radialGradient id="paint16_radial_0_1" cx="0" cy="0" r="1" gradientTransform="matrix(-36.5204 4.42829 -4.42672 -36.5334 177.699 396.634)" gradientUnits="userSpaceOnUse">
<stop offset="0.11" stop-color="#DBDBDB" stop-opacity="0.5"/>
<stop offset="0.32" stop-color="#B2B2B2" stop-opacity="0.47"/>
<stop offset="0.62" stop-color="#7D7D7D" stop-opacity="0.42"/>
<stop offset="0.77" stop-color="#696969" stop-opacity="0.4"/>
<stop offset="1" stop-color="#B0B0B0" stop-opacity="0"/>
</radialGradient>
<radialGradient id="paint17_radial_0_1" cx="0" cy="0" r="1" gradientUnits="userSpaceOnUse" gradientTransform="translate(286.865 356.695) scale(35.2295 35.242)">
<stop/>
<stop offset="0.26" stop-color="#070707" stop-opacity="0.77"/>
<stop offset="0.63" stop-color="#1A1A1A" stop-opacity="0.43"/>
<stop offset="1" stop-color="#343433" stop-opacity="0.1"/>
</radialGradient>
<radialGradient id="paint18_radial_0_1" cx="0" cy="0" r="1" gradientUnits="userSpaceOnUse" gradientTransform="translate(268.337 407.128) scale(69.2176 69.2422)">
<stop offset="0.11" stop-color="white"/>
<stop offset="0.33" stop-color="#CBCBCB"/>
<stop offset="0.54" stop-color="#969696"/>
<stop offset="0.67" stop-color="#828282"/>
<stop offset="0.85" stop-color="#C5595B"/>
<stop offset="1" stop-color="#FFA1A3"/>
</radialGradient>
<linearGradient id="paint19_linear_0_1" x1="299.684" y1="338.818" x2="276.529" y2="378.201" gradientUnits="userSpaceOnUse">
<stop stop-color="white" stop-opacity="0.7"/>
<stop offset="1" stop-color="white" stop-opacity="0"/>
</linearGradient>
<linearGradient id="paint20_linear_0_1" x1="299.824" y1="338.984" x2="276.673" y2="378.363" gradientUnits="userSpaceOnUse">
<stop stop-color="white" stop-opacity="0.9"/>
<stop offset="1" stop-color="white" stop-opacity="0"/>
</linearGradient>
<linearGradient id="paint21_linear_0_1" x1="364.253" y1="357.309" x2="245.582" y2="438.818" gradientUnits="userSpaceOnUse">
<stop offset="0.01" stop-color="#C9C9C9"/>
<stop offset="0.26" stop-color="#ACACAC"/>
<stop offset="0.76" stop-color="#777777"/>
<stop offset="1" stop-color="#636363"/>
</linearGradient>
<linearGradient id="paint22_linear_0_1" x1="151.916" y1="234.712" x2="180.124" y2="309.288" gradientUnits="userSpaceOnUse">
<stop stop-color="#DC5B62"/>
<stop offset="0.51" stop-color="#A37375"/>
<stop offset="1" stop-color="#8E8B8B"/>
</linearGradient>
<linearGradient id="paint23_linear_0_1" x1="174.052" y1="320.256" x2="104.32" y2="156.74" gradientUnits="userSpaceOnUse">
<stop stop-color="#8A8A8A"/>
<stop offset="0.21" stop-color="#A1A1A1"/>
<stop offset="0.52" stop-color="#BEBEBE"/>
<stop offset="0.8" stop-color="#D0D0D0"/>
<stop offset="1" stop-color="#D6D6D6"/>
</linearGradient>
<linearGradient id="paint24_linear_0_1" x1="140.859" y1="225.132" x2="165.574" y2="290.507" gradientUnits="userSpaceOnUse">
<stop stop-color="#A17272"/>
<stop offset="1" stop-color="#939393" stop-opacity="0"/>
</linearGradient>
<linearGradient id="paint25_linear_0_1" x1="130.559" y1="239.236" x2="194.273" y2="287.69" gradientUnits="userSpaceOnUse">
<stop stop-color="#A17272"/>
<stop offset="1" stop-color="#939393" stop-opacity="0"/>
</linearGradient>
<linearGradient id="paint26_linear_0_1" x1="456.787" y1="124.656" x2="459.587" y2="91.849" gradientUnits="userSpaceOnUse">
<stop offset="0.01" stop-color="#BDBDBD"/>
<stop offset="1" stop-color="#E06066"/>
</linearGradient>
<linearGradient id="paint27_linear_0_1" x1="454.215" y1="72.1221" x2="485.061" y2="83.216" gradientUnits="userSpaceOnUse">
<stop stop-color="#909090"/>
<stop offset="1" stop-color="#E6E6E6"/>
</linearGradient>
<linearGradient id="paint28_linear_0_1" x1="473.912" y1="137.472" x2="492.727" y2="113.792" gradientUnits="userSpaceOnUse">
<stop stop-color="#C79D9F"/>
<stop offset="0.58" stop-color="#C1696D"/>
<stop offset="1" stop-color="#815959"/>
</linearGradient>
<linearGradient id="paint29_linear_0_1" x1="462.846" y1="76.3112" x2="460.001" y2="133.426" gradientUnits="userSpaceOnUse">
<stop stop-color="#8A8A8A"/>
<stop offset="0.21" stop-color="#A1989A"/>
<stop offset="0.52" stop-color="#BEABAE"/>
<stop offset="0.8" stop-color="#D0B6BB"/>
<stop offset="1" stop-color="#D6BABF"/>
</linearGradient>
<linearGradient id="paint30_linear_0_1" x1="63.8825" y1="300.259" x2="79.3946" y2="280.34" gradientUnits="userSpaceOnUse">
<stop stop-color="#AF6C70"/>
<stop offset="0.51" stop-color="#6E6E6E"/>
<stop offset="1" stop-color="#5E5959"/>
</linearGradient>
<linearGradient id="paint31_linear_0_1" x1="45.8317" y1="282.778" x2="65.1224" y2="262.662" gradientUnits="userSpaceOnUse">
<stop stop-color="#D4C6C7"/>
<stop offset="1" stop-color="#F5A4A9"/>
</linearGradient>
<linearGradient id="paint32_linear_0_1" x1="45.6698" y1="280.123" x2="46.6285" y2="306.955" gradientUnits="userSpaceOnUse">
<stop stop-color="#6E6E6E"/>
<stop offset="1" stop-color="#ACACAB"/>
</linearGradient>
<linearGradient id="paint33_linear_0_1" x1="58.3007" y1="310.807" x2="83.4634" y2="266.492" gradientUnits="userSpaceOnUse">
<stop stop-color="#BBBBBB"/>
<stop offset="1" stop-color="#7B7B7B"/>
</linearGradient>
<linearGradient id="paint34_linear_0_1" x1="113.075" y1="167.863" x2="114.254" y2="189.781" gradientUnits="userSpaceOnUse">
<stop stop-color="#AF6C70"/>
<stop offset="0.35" stop-color="#878787"/>
<stop offset="1" stop-color="#DBDBDB"/>
</linearGradient>
<linearGradient id="paint35_linear_0_1" x1="83.2423" y1="193.03" x2="158.141" y2="193.03" gradientUnits="userSpaceOnUse">
<stop stop-color="#BBBBBB"/>
<stop offset="1" stop-color="#7B7B7B"/>
</linearGradient>
<linearGradient id="paint36_linear_0_1" x1="102.36" y1="164.264" x2="117.57" y2="227.181" gradientUnits="userSpaceOnUse">
<stop stop-color="#AF6C70"/>
<stop offset="0.35" stop-color="#878787"/>
<stop offset="1" stop-color="#DBDBDB"/>
</linearGradient>
<linearGradient id="paint37_linear_0_1" x1="129.268" y1="147.682" x2="131.834" y2="229.892" gradientUnits="userSpaceOnUse">
<stop stop-color="#AF6C70"/>
<stop offset="0.35" stop-color="#878787"/>
<stop offset="1" stop-color="#DBDBDB"/>
</linearGradient>
<linearGradient id="paint38_linear_0_1" x1="174.244" y1="320.193" x2="104.148" y2="155.813" gradientUnits="userSpaceOnUse">
<stop stop-color="#8A8A8A"/>
<stop offset="0.21" stop-color="#A1A1A1"/>
<stop offset="0.52" stop-color="#BEBEBE"/>
<stop offset="0.8" stop-color="#D0D0D0"/>
<stop offset="1" stop-color="#D6D6D6"/>
</linearGradient>
<clipPath id="clip0_0_1">
<rect width="523" height="452" fill="white"/>
</clipPath>
</defs>
</svg>
