<svg width="245" height="46" viewBox="0 0 245 46" fill="none" xmlns="http://www.w3.org/2000/svg">
<g id="&#208;&#191;&#208;&#184;&#209;&#129;&#209;&#140;&#208;&#188;&#208;&#190; (&#208;&#191;&#208;&#190;&#208;&#180;&#209;&#130;&#208;&#178;&#208;&#181;&#209;&#128;&#208;&#182;&#208;&#180;&#208;&#181;&#208;&#189;&#208;&#184;&#208;&#181; &#209;&#128;&#208;&#181;&#208;&#179;&#208;&#184;&#209;&#129;&#209;&#130;&#209;&#128;&#208;&#176;&#209;&#134;&#208;&#184;&#208;&#184;)">
<g id="Group 206">
<g id="Group 205">
<g id="Frame 1287">
<g id="Frame 1286">
<g id="loogoo-01 2" clip-path="url(#clip0_0_1)">
<g id="Group">
<g id="Group_2">
<g id="Group_3">
<path id="Vector" d="M96.642 0.369873L88.8662 17.7586H93.0627L94.6672 14.0589H102.813L104.418 17.7586H108.614L100.715 0.369873H96.642ZM95.9015 10.9758L98.7403 4.31625L101.456 10.9758H95.9015Z" fill="#55585B"/>
<path id="Vector_2" d="M116.39 18.1287C117.748 18.1287 118.859 17.882 119.97 17.5121C121.08 17.1421 122.068 16.4021 122.808 15.6622C123.672 14.7989 124.29 13.9357 124.66 12.8257C125.03 11.7158 125.277 10.4826 125.277 9.24933C125.277 7.89276 125.03 6.78284 124.66 5.67292C124.29 4.563 123.549 3.57641 122.808 2.83646C121.944 1.97319 121.08 1.35657 119.97 0.986595C118.859 0.616622 117.748 0 116.39 0C114.786 0 113.428 0.246649 112.194 0.739946C110.96 1.23324 109.972 2.09651 109.108 3.08311L111.7 5.42627C112.317 4.68633 113.058 4.19303 113.798 3.82306C114.539 3.45308 115.403 3.32976 116.267 3.32976C117.007 3.32976 117.748 3.45308 118.365 3.69973C118.982 3.94638 119.599 4.31635 119.97 4.80965C120.34 5.30295 120.71 6.16622 120.957 6.78284C121.08 7.02949 121.08 7.15281 121.08 7.39946H114.045V10.4826H121.08C121.08 10.7292 120.957 11.0992 120.834 11.3458C120.587 12.0858 120.216 12.5791 119.723 13.0724C119.229 13.5657 118.735 13.9357 118.118 14.1823C117.501 14.429 116.761 14.5523 116.02 14.5523C115.156 14.5523 114.292 14.429 113.552 14.059C112.811 13.689 112.07 13.1957 111.453 12.4558L108.861 14.7989C109.725 15.7855 110.713 16.6488 111.947 17.1421C113.428 17.882 114.909 18.1287 116.39 18.1287Z" fill="#55585B"/>
<path id="Vector_3" d="M132.683 12.949H136.262C137.867 12.949 139.225 12.7023 140.335 12.209C141.446 11.7158 142.31 10.9758 142.927 9.98921C143.544 9.00261 143.791 7.89269 143.791 6.65945C143.791 5.30288 143.544 4.19296 142.927 3.20637C142.31 2.21977 141.446 1.47983 140.335 0.986528C139.225 0.493231 137.867 0.246582 136.262 0.246582H128.733V17.7586H132.806V12.949H132.683ZM138.854 4.43961C139.471 4.93291 139.718 5.67286 139.718 6.65945C139.718 7.64605 139.471 8.38599 138.854 8.87929C138.237 9.37259 137.25 9.61924 136.016 9.61924H132.683V3.57634H136.016C137.25 3.57634 138.237 3.94631 138.854 4.43961Z" fill="#55585B"/>
<path id="Vector_4" d="M161.934 2.58978C161.07 1.72651 160.083 1.10989 158.972 0.739913C157.861 0.246615 156.503 0.123291 155.146 0.123291C153.788 0.123291 152.554 0.36994 151.32 0.739913C150.209 1.23321 149.098 1.84983 148.234 2.58978C147.37 3.45305 146.753 4.31632 146.259 5.42624C145.765 6.53616 145.519 7.7694 145.519 9.00265C145.519 10.3592 145.765 11.4691 146.259 12.5791C146.753 13.689 147.37 14.6756 148.234 15.4155C149.098 16.2788 150.085 16.8954 151.32 17.2654C152.554 17.7587 153.788 17.882 155.146 17.882C156.503 17.882 157.738 17.6354 158.972 17.2654C160.083 16.7721 161.194 16.1555 161.934 15.4155C162.798 14.5522 163.415 13.689 163.909 12.5791C164.403 11.4691 164.65 10.2359 164.65 9.00265C164.65 7.64608 164.403 6.53616 163.909 5.42624C163.415 4.43964 162.798 3.45305 161.934 2.58978ZM160.206 11.3458C159.959 12.0858 159.589 12.5791 159.095 13.0724C158.602 13.5656 157.985 13.9356 157.367 14.1823C156.75 14.4289 156.01 14.5522 155.146 14.5522C154.405 14.5522 153.665 14.4289 152.924 14.1823C152.307 13.9356 151.69 13.5656 151.196 13.0724C150.702 12.5791 150.332 11.9624 150.085 11.3458C149.838 10.6059 149.715 9.86592 149.715 9.12597C149.715 8.2627 149.838 7.52275 150.085 6.90613C150.332 6.16619 150.702 5.67289 151.196 5.17959C151.69 4.68629 152.307 4.31632 152.924 4.06967C153.541 3.82302 154.282 3.6997 155.146 3.6997C155.886 3.6997 156.627 3.82302 157.367 4.06967C157.985 4.31632 158.602 4.68629 159.095 5.17959C159.589 5.67289 159.959 6.28951 160.206 6.90613C160.453 7.64608 160.576 8.38603 160.576 9.12597C160.576 9.86592 160.453 10.7292 160.206 11.3458Z" fill="#55585B"/>
<path id="Vector_5" d="M184.151 0.369873L177.733 11.2224L171.191 0.369873H167.735V17.7586H171.562V7.52269L176.745 15.9087H178.473L183.657 7.39936V17.7586H187.483V0.369873H184.151Z" fill="#55585B"/>
<path id="Vector_6" d="M197.728 0.369873L189.952 17.8819H194.149L195.753 14.1822H203.899L205.504 17.8819H209.7L201.924 0.369873H197.728ZM196.864 10.9758L199.703 4.31625L202.418 10.9758H196.864Z" fill="#55585B"/>
<path id="Vector_7" d="M227.597 0.369873H223.277L218.711 7.39936H215.748V0.369873H211.799V17.7586H215.748V10.7291H218.587L223.154 17.7586H227.721L221.796 8.75593L227.597 0.369873Z" fill="#55585B"/>
<path id="Vector_8" d="M240.434 14.1822C239.693 14.5522 238.952 14.6755 238.089 14.6755C237.225 14.6755 236.484 14.5522 235.867 14.3055C235.126 14.0589 234.633 13.6889 234.139 13.1956C233.645 12.7023 233.275 12.0857 233.028 11.4691C232.781 10.7291 232.658 9.98918 232.658 9.24923C232.658 8.38596 232.781 7.64601 233.028 7.02939C233.275 6.28944 233.645 5.79615 234.139 5.30285C234.633 4.80955 235.25 4.43958 235.867 4.19293C236.607 3.94628 237.348 3.82296 238.089 3.82296C238.952 3.82296 239.693 3.94628 240.434 4.31625C241.174 4.68623 241.791 5.17952 242.408 5.79615L245 3.45298C244.136 2.46639 243.149 1.72644 241.915 1.10982C240.68 0.616522 239.323 0.369873 237.842 0.369873C236.484 0.369873 235.25 0.616522 234.015 0.986495C232.781 1.35647 231.917 2.09641 231.053 2.83636C230.189 3.69963 229.572 4.5629 229.078 5.67282C228.585 6.78274 228.338 8.01599 228.338 9.24923C228.338 10.6058 228.585 11.7157 229.078 12.8256C229.572 13.9356 230.189 14.9222 231.053 15.6621C231.917 16.402 232.905 17.142 234.015 17.512C235.126 18.0053 236.484 18.1286 237.718 18.1286C239.199 18.1286 240.68 17.8819 241.915 17.3886C243.149 16.8953 244.136 16.0321 245 15.0455L242.408 12.7023C241.791 13.3189 241.174 13.8122 240.434 14.1822Z" fill="#55585B"/>
<path id="Vector_9" d="M105.159 28.2412L98.6172 39.0938L92.0757 28.2412H88.7432V45.7533H92.5694V35.5173L97.6298 43.9034H99.4812L104.665 35.2707V45.7533H108.491L108.368 28.2412H105.159Z" fill="#55585B"/>
<path id="Vector_10" d="M118.119 28.2412L110.343 45.7533H114.539L116.144 42.0535H124.29L125.894 45.7533H130.091L122.315 28.2412H118.119ZM117.255 38.8471L120.093 32.1876L122.809 38.8471H117.255Z" fill="#55585B"/>
<path id="Vector_11" d="M137.867 28.2412L130.091 45.7533H134.287L135.892 42.0535H144.038L145.642 45.7533H149.839L142.063 28.2412H137.867ZM137.003 38.8471L139.841 32.1876L142.557 38.8471H137.003Z" fill="#55585B"/>
<path id="Vector_12" d="M162.675 36.874C162.058 36.504 161.441 36.2574 160.7 36.0107C159.96 35.7641 159.219 35.6407 158.479 35.3941C157.738 35.2708 157.121 35.0241 156.504 34.9008C155.887 34.7775 155.393 34.5308 155.023 34.2842C154.652 34.0375 154.529 33.6675 154.529 33.1743C154.529 32.8043 154.652 32.4343 154.899 32.1877C155.146 31.941 155.516 31.6944 156.01 31.4477C156.504 31.3244 157.121 31.2011 157.985 31.2011C158.725 31.2011 159.589 31.3244 160.33 31.571C161.194 31.8177 161.934 32.1877 162.798 32.5576L164.033 29.4745C163.169 28.9812 162.305 28.6112 161.194 28.3646C160.083 28.118 159.096 27.9946 157.985 27.9946C156.38 27.9946 155.023 28.2413 153.912 28.7346C152.801 29.2279 152.06 29.8445 151.443 30.7078C150.95 31.571 150.579 32.4343 150.579 33.4209C150.579 34.4075 150.826 35.1474 151.196 35.7641C151.567 36.3807 152.06 36.874 152.677 37.244C153.295 37.6139 153.912 37.8606 154.652 38.1072C155.393 38.3539 156.133 38.4772 156.874 38.7239C157.615 38.8472 158.232 39.0938 158.849 39.2171C159.466 39.3405 159.96 39.5871 160.33 39.8338C160.7 40.0804 160.824 40.4504 160.824 40.9437C160.824 41.3137 160.7 41.6836 160.453 41.9303C160.206 42.1769 159.836 42.4236 159.342 42.5469C158.849 42.6702 158.232 42.7936 157.368 42.7936C156.257 42.7936 155.269 42.6702 154.282 42.3003C153.295 41.9303 152.431 41.5603 151.567 40.9437L150.209 44.0268C150.95 44.6434 152.06 45.1367 153.295 45.5067C154.529 45.8767 155.887 46.1233 157.368 46.1233C158.972 46.1233 160.453 45.8767 161.564 45.3834C162.675 44.8901 163.416 44.2734 164.033 43.4102C164.526 42.5469 164.897 41.6836 164.897 40.697C164.897 39.8338 164.65 38.9705 164.28 38.4772C163.662 37.7373 163.169 37.244 162.675 36.874Z" fill="#55585B"/>
</g>
</g>
<g id="Group_4">
<path id="Vector_13" d="M25.0554 25.0349L44.4333 5.79625C45.2972 4.93298 45.6675 3.82306 45.6675 2.71314V1.47989C45.6675 0.616622 45.0504 0 44.1864 0H29.9924C28.8816 0 27.6474 0.493298 26.9068 1.23324L0.370277 27.748C0.123426 27.9946 0 28.3646 0 28.8579V44.2735C0 45.1367 0.617129 45.7533 1.48111 45.7533H15.6751C16.7859 45.7533 18.0202 45.2601 18.7607 44.5201L22.4635 40.8204C23.3275 39.9571 23.6977 38.8472 23.6977 37.7373V28.3646C23.8212 27.008 24.3149 25.8981 25.0554 25.0349Z" fill="#E84261"/>
<path id="Vector_14" d="M28.2646 29.9678V44.1501C28.2646 45.0134 28.8818 45.63 29.7458 45.63H43.9397C45.0505 45.63 46.2848 45.1367 47.0254 44.3968L50.7281 40.6971C51.5921 39.8338 51.9624 38.7239 51.9624 37.6139V30.8311C51.9624 29.7212 52.4561 28.4879 53.1966 27.748L55.7886 25.1582C56.6526 24.2949 57.7634 23.9249 58.8742 23.9249H65.6626C66.7735 23.9249 68.0077 23.4316 68.7483 22.6917L72.451 18.992C73.315 18.1287 73.6853 17.0188 73.6853 15.9088V1.47989C73.6853 0.616622 73.0682 0 72.2042 0H58.2571C57.1463 0 55.912 0.493298 55.1714 1.23324L29.4989 26.8847C28.6349 27.748 28.2646 28.8579 28.2646 29.9678Z" fill="#E84261"/>
<path id="Vector_15" d="M58.6275 28.6112L56.8996 30.3377C56.6527 30.5844 56.5293 30.9543 56.5293 31.3243V44.1501C56.5293 45.0133 57.1464 45.6299 58.0104 45.6299H72.5746C73.4386 45.6299 74.0557 45.0133 74.0557 44.1501V29.7211C74.0557 28.8578 73.4386 28.2412 72.5746 28.2412H59.6149C59.2447 28.2412 58.8744 28.3645 58.6275 28.6112Z" fill="#E84261"/>
</g>
</g>
</g>
</g>
</g>
</g>
</g>
</g>
<defs>
<clipPath id="clip0_0_1">
<rect width="245" height="46" fill="white"/>
</clipPath>
</defs>
</svg>
