<svg xmlns="http://www.w3.org/2000/svg" version="1.1" xmlns:xlink="http://www.w3.org/1999/xlink" width="1000" height="1000"><metadata><rdf:RDF xmlns:rdf="http://www.w3.org/1999/02/22-rdf-syntax-ns#" xmlns:dc="http://purl.org/dc/elements/1.1/"><rdf:Description><dc:creator>RealFaviconGenerator</dc:creator><dc:source>https://realfavicongenerator.net</dc:source></rdf:Description></rdf:RDF></metadata><g clip-path="url(#SvgjsClipPath1189)"><rect width="1000" height="1000" fill="#ffffff"></rect><g transform="matrix(15.686274509803921,0,0,15.686274509803921,100,100)"><svg xmlns="http://www.w3.org/2000/svg" version="1.1" xmlns:xlink="http://www.w3.org/1999/xlink" id="Layer_1" x="0px" y="0px" viewBox="0 0 51 51" style="enable-background:new 0 0 51 51;" xml:space="preserve" width="51" height="51"><style type="text/css">
	.st0{fill:#E84261;}
</style><g>
	<path class="st0" d="M17.7,27l12.7-12.7c0.5-0.5,0.9-1.3,0.9-2v-0.8c0-0.5-0.5-1-1-1h-9.3c-0.8,0-1.5,0.3-2,0.9L1.4,28.8
		c-0.1,0.1-0.3,0.4-0.3,0.7v10.1c0,0.5,0.5,1,1,1h9.3c0.8,0,1.5-0.3,2-0.9l2.4-2.4c0.5-0.5,0.9-1.3,0.9-2V29
		C16.8,28.2,17.2,27.5,17.7,27z"></path>
	<path class="st0" d="M19.7,30.2v9.3c0,0.5,0.5,1,1,1h9.3c0.8,0,1.5-0.3,2-0.9l2.4-2.4c0.5-0.5,0.9-1.3,0.9-2v-4.5
		c0-0.8,0.3-1.5,0.9-2L38,27c0.5-0.5,1.3-0.9,2-0.9h4.5c0.8,0,1.5-0.3,2-0.9l2.4-2.4c0.5-0.5,0.9-1.3,0.9-2v-9.3c0-0.5-0.5-1-1-1
		h-9.3c-0.8,0-1.5,0.3-2,0.9L20.6,28.2C20,28.7,19.7,29.4,19.7,30.2z"></path>
	<path class="st0" d="M39.7,29.3l-1.1,1.1c-0.2,0.2-0.3,0.4-0.3,0.7v8.4c0,0.5,0.5,1,1,1h9.6c0.5,0,1-0.5,1-1V30c0-0.5-0.5-1-1-1
		h-8.5C40.1,29,39.9,29.1,39.7,29.3z"></path>
</g></svg></g></g><defs><clipPath id="SvgjsClipPath1189"><rect width="1000" height="1000" x="0" y="0" rx="150" ry="150"></rect></clipPath></defs></svg>