<?xml version="1.0" encoding="utf-8"?>
<!-- Generator: Adobe Illustrator 26.2.1, SVG Export Plug-In . SVG Version: 6.00 Build 0)  -->
<svg version="1.1" xmlns="http://www.w3.org/2000/svg" xmlns:xlink="http://www.w3.org/1999/xlink" x="0px" y="0px"
	 viewBox="0 0 60 60" style="enable-background:new 0 0 60 60;" xml:space="preserve">
<style type="text/css">
	.st0{fill:#CBD1D5;}
	.st1{fill:#7D8083;}
</style>
<g id="Layer_1">
	<path class="st0" d="M50,60H10C4.5,60,0,55.5,0,50V10C0,4.5,4.5,0,10,0h40c5.5,0,10,4.5,10,10v40C60,55.5,55.5,60,50,60z"/>
</g>
<g id="Layer_2">
	<g>
		<g>
			<path class="st1" d="M36.8,49h-8.3c-0.6,0-1-0.4-1-1V19.7h-6.2c-0.6,0-1-0.4-1-1V12c0-0.6,0.4-1,1-1h15.5c0.6,0,1,0.4,1,1v36
				C37.8,48.6,37.3,49,36.8,49z M29.4,47h6.3V13H22.2v4.7h6.2c0.6,0,1,0.4,1,1V47z"/>
		</g>
	</g>
</g>
</svg>
