<?xml version="1.0" encoding="utf-8"?>
<!-- Generator: Adobe Illustrator 26.2.1, SVG Export Plug-In . SVG Version: 6.00 Build 0)  -->
<svg version="1.0" id="Layer_1" xmlns="http://www.w3.org/2000/svg" xmlns:xlink="http://www.w3.org/1999/xlink" x="0px" y="0px"
	 viewBox="0 0 25.4 31.2" style="enable-background:new 0 0 25.4 31.2;" xml:space="preserve">
<style type="text/css">
	.st0{fill:#55585B;}
</style>
<path class="st0" d="M22.7,14.7c1-1.2,1.7-2.4,2.1-3.5c0.4-1.1,0.6-2.3,0.6-3.5c0-1.5-0.4-2.9-1.1-4c-0.8-1.1-1.9-2-3.3-2.7
	c-1.5-0.7-3.2-1-5.3-1C13.2,0,11,0.4,9,1.3C7,2.1,5.3,3.3,4,4.7L7,7.3c1.1-1.1,2.3-2,3.7-2.6s2.8-0.9,4.3-0.9c2.1,0,3.6,0.4,4.5,1.2
	c1,0.8,1.5,1.9,1.5,3.2c0,0.8-0.2,1.6-0.5,2.4c-0.3,0.8-0.9,1.6-1.7,2.5c-0.8,0.9-1.8,1.9-3.2,3l-15,12l-0.6,3h22.1l0.7-3.8H7.5
	l11.1-8.8C20.3,17.1,21.7,15.8,22.7,14.7z"/>
</svg>
