<?xml version="1.0" encoding="utf-8"?>
<!-- Generator: Adobe Illustrator 26.2.1, SVG Export Plug-In . SVG Version: 6.00 Build 0)  -->
<svg version="1.1" xmlns="http://www.w3.org/2000/svg" xmlns:xlink="http://www.w3.org/1999/xlink" x="0px" y="0px"
	 viewBox="0 0 60 60" style="enable-background:new 0 0 60 60;" xml:space="preserve">
<style type="text/css">
	.st0{fill:#CBD1D5;}
	.st1{fill:#7D8083;}
</style>
<g id="Layer_1">
	<path class="st0" d="M50,60H10C4.5,60,0,55.5,0,50V10C0,4.5,4.5,0,10,0h40c5.5,0,10,4.5,10,10v40C60,55.5,55.5,60,50,60z"/>
</g>
<g id="Layer_2">
	<path class="st1" d="M44.2,40.3H31.5l6.3-6c1.7-1.6,3-3.1,3.9-4.4c0.9-1.3,1.6-2.6,1.9-3.9c0.3-1.2,0.5-2.4,0.5-3.7
		c0-2.4-0.6-4.4-1.8-6.1c-1.2-1.7-2.9-3-5-4c-2.1-0.9-4.5-1.4-7.3-1.4c-3.3,0-6.3,0.6-8.8,1.9c-2.6,1.3-4.6,3-6.1,5.1
		c-0.1,0.2-0.2,0.5-0.1,0.8s0.2,0.5,0.4,0.6l6,3.8c0.4,0.3,1,0.2,1.4-0.3c0.8-1.1,1.7-1.9,2.8-2.4c1.1-0.5,2.4-0.8,3.7-0.8
		c1.6,0,2.8,0.3,3.6,0.9c0.7,0.6,1.1,1.4,1.1,2.5c0,0.4-0.1,0.9-0.2,1.5c-0.2,0.5-0.5,1.2-0.9,1.9c-0.5,0.7-1.2,1.5-2.2,2.5L16.7,42
		c-0.2,0.2-0.3,0.5-0.3,0.7V48c0,0.6,0.4,1,1,1h26.7c0.6,0,1-0.4,1-1v-6.7C45.2,40.8,44.7,40.3,44.2,40.3z M43.2,47H18.4v-3.9
		l13.3-12.6c1.2-1,2-2,2.5-2.8c0.6-0.9,0.9-1.6,1.2-2.4c0.2-0.7,0.3-1.4,0.3-2c0-1.7-0.6-3.1-1.8-4c-1.1-0.9-2.8-1.4-4.8-1.4
		c-1.6,0-3.1,0.3-4.5,0.9c-1.1,0.5-2.2,1.3-3,2.3l-4.3-2.8c1.2-1.5,2.8-2.7,4.7-3.6c2.3-1.1,5-1.7,8-1.7c2.5,0,4.7,0.4,6.5,1.2
		c1.8,0.8,3.2,1.9,4.2,3.3c1,1.4,1.5,3,1.5,5c0,1.1-0.1,2.1-0.4,3.2c-0.3,1-0.8,2.1-1.6,3.2c-0.8,1.2-2,2.5-3.6,4l-8.2,7.7
		c-0.3,0.3-0.4,0.7-0.2,1.1s0.5,0.6,0.9,0.6h14.2V47z"/>
</g>
</svg>
