<?xml version="1.0" encoding="utf-8"?>
<!-- Generator: Adobe Illustrator 26.2.1, SVG Export Plug-In . SVG Version: 6.00 Build 0)  -->
<svg version="1.0" id="Layer_1" xmlns="http://www.w3.org/2000/svg" xmlns:xlink="http://www.w3.org/1999/xlink" x="0px" y="0px"
	 viewBox="0 0 26.9 31.2" style="enable-background:new 0 0 26.9 31.2;" xml:space="preserve">
<style type="text/css">
	.st0{fill:#55585B;}
</style>
<path class="st0" d="M26.9,0H6.6L5.8,3.8h14.7L11,13.3l-0.6,3.1h2.3c2.3,0,4,0.4,5.1,1.2c1.1,0.8,1.7,1.9,1.7,3.5
	c0,1.3-0.3,2.4-1,3.3c-0.7,0.9-1.6,1.6-2.9,2.1c-1.2,0.5-2.7,0.7-4.5,0.7c-1.9,0-3.7-0.3-5.2-0.9c-1.5-0.6-2.7-1.5-3.6-2.4L0,27.3
	c1.1,1.2,2.6,2.2,4.4,2.9c1.9,0.7,4,1,6.3,1c2.6,0,4.9-0.4,6.9-1.3s3.5-2.1,4.6-3.7c1.1-1.6,1.6-3.3,1.6-5.3c0-1.7-0.4-3.1-1.2-4.3
	c-0.8-1.2-1.9-2.1-3.4-2.7c-0.9-0.4-1.9-0.7-3.1-0.8L26.4,3L26.9,0z"/>
</svg>
