<?xml version="1.0" encoding="utf-8"?>
<!-- Generator: Adobe Illustrator 26.2.1, SVG Export Plug-In . SVG Version: 6.00 Build 0)  -->
<svg version="1.1" xmlns="http://www.w3.org/2000/svg" xmlns:xlink="http://www.w3.org/1999/xlink" x="0px" y="0px"
	 viewBox="0 0 60 60" style="enable-background:new 0 0 60 60;" xml:space="preserve">
<style type="text/css">
	.st0{fill:#CBD1D5;}
	.st1{fill:#7D8083;}
</style>
<g id="Layer_1">
	<path class="st0" d="M50,60H10C4.5,60,0,55.5,0,50V10C0,4.5,4.5,0,10,0h40c5.5,0,10,4.5,10,10v40C60,55.5,55.5,60,50,60z"/>
</g>
<g id="Layer_2">
	<path class="st1" d="M41.4,28.3c-1.3-1.2-3-2-5-2.5l6.8-7.8c0.2-0.2,0.2-0.4,0.2-0.7V12c0-0.6-0.4-1-1-1H17.7c-0.6,0-1,0.4-1,1v6.6
		c0,0.6,0.4,1,1,1h12.8l-5.8,6.6c-0.2,0.2-0.2,0.4-0.2,0.7v5.4c0,0.6,0.4,1,1,1h3.7c2.1,0,3.6,0.3,4.5,1c0.8,0.6,1.2,1.3,1.2,2.4
		c0,1.1-0.4,1.9-1.3,2.5c-1,0.7-2.4,1-4.3,1c-1.7,0-3.4-0.3-5.1-0.8c-1.7-0.5-3.2-1.3-4.4-2.2c-0.2-0.2-0.5-0.2-0.8-0.2
		c-0.3,0.1-0.5,0.3-0.7,0.5L15,43.8c-0.2,0.4-0.1,1,0.3,1.3c1.8,1.3,4,2.3,6.5,3c2.5,0.7,5.1,1,7.6,1c3.5,0,6.5-0.6,8.7-1.7
		c2.3-1.2,4.1-2.7,5.2-4.6c1.1-1.9,1.7-3.9,1.7-6.1C45.1,33.2,43.8,30.4,41.4,28.3z M41.7,41.6c-0.9,1.6-2.4,2.9-4.4,3.8
		c-2,1-4.6,1.5-7.8,1.5c-2.4,0-4.7-0.3-7.1-1c-2-0.5-3.7-1.3-5.1-2.2l2.3-4.5c1.2,0.7,2.5,1.3,4,1.8c1.9,0.6,3.8,0.9,5.7,0.9
		c2.3,0,4.1-0.5,5.4-1.4c1.4-1,2.2-2.4,2.2-4.2c0-1.7-0.7-3-2-4c-1.2-0.9-3.1-1.4-5.7-1.4h-2.7v-4l7-8c0.3-0.3,0.3-0.7,0.2-1.1
		c-0.2-0.4-0.5-0.6-0.9-0.6H18.7V13h22.8v3.9l-7.7,8.8c-0.2,0.3-0.3,0.7-0.2,1s0.4,0.6,0.8,0.6c2.4,0.4,4.3,1.2,5.7,2.4
		c2,1.8,3,4,3,6.8C43.1,38.4,42.6,40.1,41.7,41.6z"/>
</g>
</svg>
