<?xml version="1.0" encoding="utf-8"?>
<!-- Generator: Adobe Illustrator 26.2.1, SVG Export Plug-In . SVG Version: 6.00 Build 0)  -->
<svg version="1.1" xmlns="http://www.w3.org/2000/svg" xmlns:xlink="http://www.w3.org/1999/xlink" x="0px" y="0px"
	 viewBox="0 0 60 60" style="enable-background:new 0 0 60 60;" xml:space="preserve">
<style type="text/css">
	.st0{fill:#CBD1D5;}
	.st1{fill:#7D8083;}
</style>
<g id="Layer_1">
	<path class="st0" d="M50,60H10C4.5,60,0,55.5,0,50V10C0,4.5,4.5,0,10,0h40c5.5,0,10,4.5,10,10v40C60,55.5,55.5,60,50,60z"/>
</g>
<g id="Layer_2">
	<path class="st1" d="M51.2,17.2l-20.7-12c-0.3-0.2-0.7-0.2-1,0l-20.7,12c-0.3,0.2-0.5,0.5-0.5,0.9V42c0,0.4,0.2,0.7,0.5,0.9
		l20.7,12c0.2,0.1,0.3,0.1,0.5,0.1s0.3,0,0.5-0.1l20.7-12c0.3-0.2,0.5-0.5,0.5-0.9V18C51.7,17.7,51.5,17.4,51.2,17.2z M30,7.2
		L48.7,18L30,28.8L11.3,18L30,7.2z M10.3,19.8L29,30.6v21.6L10.3,41.4V19.8z M31,52.2V30.6l18.7-10.8v21.6L31,52.2z"/>
</g>
</svg>
