<?xml version="1.0" encoding="utf-8"?>
<!-- Generator: Adobe Illustrator 26.2.1, SVG Export Plug-In . SVG Version: 6.00 Build 0)  -->
<svg version="1.1" xmlns="http://www.w3.org/2000/svg" xmlns:xlink="http://www.w3.org/1999/xlink" x="0px" y="0px"
	 viewBox="0 0 60 60" style="enable-background:new 0 0 60 60;" xml:space="preserve">
<style type="text/css">
	.st0{fill:#CBD1D5;}
	.st1{fill:#7D8083;}
</style>
<g id="Layer_1">
	<path class="st0" d="M50,60H10C4.5,60,0,55.5,0,50V10C0,4.5,4.5,0,10,0h40c5.5,0,10,4.5,10,10v40C60,55.5,55.5,60,50,60z"/>
</g>
<g id="Layer_2">
	<path class="st1" d="M46.7,32.7h-4.9v-5.7c0-0.6-0.4-1-1-1H33c-0.6,0-1,0.4-1,1v5.7h-6.7l14.6-20.1c0.2-0.3,0.3-0.7,0.1-1
		C39.7,11.2,39.4,11,39,11h-8.7c-0.3,0-0.6,0.1-0.8,0.4l-17,22.8c-0.1,0.2-0.2,0.4-0.2,0.6v5.6c0,0.6,0.4,1,1,1h18.4V48
		c0,0.6,0.4,1,1,1h8.1c0.6,0,1-0.4,1-1v-6.6h4.9c0.6,0,1-0.4,1-1v-6.8C47.7,33.1,47.2,32.7,46.7,32.7z M45.7,39.4h-4.9
		c-0.6,0-1,0.4-1,1V47h-6.1v-6.6c0-0.6-0.4-1-1-1H14.3v-4.3L30.8,13h6.3L22.5,33.1c-0.2,0.3-0.3,0.7-0.1,1c0.2,0.3,0.5,0.5,0.9,0.5
		H33c0.6,0,1-0.4,1-1v-5.7h5.9v5.7c0,0.6,0.4,1,1,1h4.9V39.4z"/>
</g>
</svg>
