<?xml version="1.0" encoding="utf-8"?>
<!-- Generator: Adobe Illustrator 26.2.1, SVG Export Plug-In . SVG Version: 6.00 Build 0)  -->
<svg version="1.1" xmlns="http://www.w3.org/2000/svg" xmlns:xlink="http://www.w3.org/1999/xlink" x="0px" y="0px"
	 viewBox="0 0 60 60" style="enable-background:new 0 0 60 60;" xml:space="preserve">
<style type="text/css">
	.st0{fill:#CBD1D5;}
	.st1{fill:#7D8083;}
</style>
<g id="Layer_1">
	<path class="st0" d="M50,60H10C4.5,60,0,55.5,0,50V10C0,4.5,4.5,0,10,0h40c5.5,0,10,4.5,10,10v40C60,55.5,55.5,60,50,60z"/>
</g>
<g id="Layer_3">
	<g>
		<path class="st1" d="M46.9,44.6c1.8-1.8,1.8-4.6,0-6.4c-0.8-0.8-2-1.3-3.2-1.3c-1.2,0-2.3,0.5-3.2,1.3L30.1,48.7
			c-0.4,0.4-0.4,1,0,1.4c0.2,0.2,0.5,0.3,0.7,0.3s0.5-0.1,0.7-0.3L42,39.7c0.9-0.9,2.6-0.9,3.5,0c1,1,1,2.6,0,3.5
			c-0.9,0.9-2.6,0.9-3.5,0c-0.4-0.4-1-0.4-1.4,0c-0.4,0.4-0.4,1,0,1.4c0.8,0.8,2,1.3,3.2,1.3C44.9,45.9,46,45.5,46.9,44.6z"/>
		<path class="st1" d="M30.1,24.3c0.4-0.4,0.4-1,0-1.4c-3.2-3.2-3.2-8.3,0-11.5c3.2-3.2,8.3-3.2,11.5,0s3.2,8.3,0,11.5L26.2,38.2
			c-0.4,0.4-0.4,1,0,1.4c0.2,0.2,0.5,0.3,0.7,0.3s0.5-0.1,0.7-0.3L43,24.3c3.9-3.9,3.9-10.4,0-14.3C39,6,32.6,6,28.7,10
			c-3.9,3.9-3.9,10.4,0,14.3C29.1,24.7,29.7,24.7,30.1,24.3z"/>
		<path class="st1" d="M23.5,42.4c-0.4-0.4-1-0.4-1.4,0l-8.8,8.8c-0.4,0.4-0.4,1,0,1.4c0.2,0.2,0.5,0.3,0.7,0.3s0.5-0.1,0.7-0.3
			l8.8-8.8C23.9,43.4,23.9,42.8,23.5,42.4z"/>
		<path class="st1" d="M8.4,42.8c0.3,0,0.5-0.1,0.7-0.3l13.1-13.1c1.7-1.7,1.7-4.6,0-6.3c-0.8-0.8-2-1.3-3.2-1.3
			c-1.2,0-2.3,0.5-3.2,1.3s-1.3,2-1.3,3.2c0,0.6,0.4,1,1,1s1-0.4,1-1c0-0.7,0.3-1.3,0.7-1.8c0.9-0.9,2.6-0.9,3.5,0c1,1,1,2.5,0,3.5
			L7.7,41.1c-0.4,0.4-0.4,1,0,1.4C7.9,42.7,8.2,42.8,8.4,42.8z"/>
		<path class="st1" d="M50.2,34.7c-1.8-1.8-4.1-2.7-6.6-2.7s-4.8,1-6.6,2.7L20.5,51.3c-0.4,0.4-0.4,1,0,1.4c0.2,0.2,0.5,0.3,0.7,0.3
			s0.5-0.1,0.7-0.3l16.5-16.5c1.4-1.4,3.2-2.2,5.2-2.2s3.8,0.8,5.2,2.2c1.4,1.4,2.2,3.2,2.2,5.2c0,2-0.8,3.8-2.2,5.2
			s-3.2,2.2-5.2,2.2c-0.6,0-1,0.4-1,1s0.4,1,1,1c2.5,0,4.8-1,6.6-2.7c1.8-1.8,2.7-4.1,2.7-6.6C53,38.8,52,36.5,50.2,34.7z"/>
		<path class="st1" d="M39.6,13.6c-2-2-5.3-2-7.3,0c-1,1-1.5,2.2-1.5,3.6c0,1.4,0.5,2.7,1.5,3.7c0.4,0.4,1,0.4,1.4,0s0.4-1,0-1.4
			c-0.6-0.6-0.9-1.4-0.9-2.3c0-0.8,0.3-1.6,0.9-2.2c1.2-1.2,3.3-1.2,4.5,0c1.2,1.2,1.2,3.3,0,4.5L7.3,50.4c-0.4,0.4-0.4,1,0,1.4
			C7.5,52,7.8,52.1,8,52.1s0.5-0.1,0.7-0.3l30.9-30.9C41.6,18.9,41.6,15.6,39.6,13.6z"/>
	</g>
</g>
</svg>
