<svg width="60" height="60" viewBox="0 0 60 60" fill="none" xmlns="http://www.w3.org/2000/svg">
<path d="M24.8747 35.3429V12.9214C24.8747 12.4683 24.6947 12.0338 24.3744 11.7134C24.054 11.3931 23.6195 11.2131 23.1664 11.2131C22.7134 11.2131 22.2788 11.3931 21.9585 11.7134C21.6381 12.0338 21.4581 12.4683 21.4581 12.9214V35.3429C19.8478 35.7587 18.4444 36.7475 17.5109 38.124C16.5775 39.5005 16.1781 41.1702 16.3877 42.8201C16.5972 44.47 17.4013 45.9869 18.6493 47.0863C19.8972 48.1857 21.5033 48.7923 23.1664 48.7923C24.8296 48.7923 26.4356 48.1857 27.6836 47.0863C28.9315 45.9869 29.7356 44.47 29.9452 42.8201C30.1547 41.1702 29.7554 39.5005 28.8219 38.124C27.8885 36.7475 26.4851 35.7587 24.8747 35.3429ZM23.1664 45.3792C22.4907 45.3792 21.8301 45.1788 21.2683 44.8034C20.7064 44.4279 20.2685 43.8943 20.0099 43.27C19.7513 42.6457 19.6836 41.9588 19.8155 41.296C19.9473 40.6332 20.2727 40.0245 20.7505 39.5466C21.2283 39.0688 21.8371 38.7434 22.4999 38.6116C23.1626 38.4798 23.8496 38.5474 24.4739 38.806C25.0982 39.0646 25.6318 39.5025 26.0072 40.0644C26.3826 40.6262 26.583 41.2868 26.583 41.9625C26.583 42.8687 26.2231 43.7377 25.5823 44.3785C24.9416 45.0192 24.0726 45.3792 23.1664 45.3792ZM31.7079 31.2857V12.9214C31.7079 10.656 30.808 8.48348 29.2062 6.88163C27.6043 5.27979 25.4318 4.37988 23.1664 4.37988C20.9011 4.37988 18.7285 5.27979 17.1267 6.88163C15.5248 8.48348 14.6249 10.656 14.6249 12.9214V31.2857C12.4146 33.0553 10.8085 35.4678 10.0286 38.1897C9.24875 40.9116 9.33354 43.8086 10.2713 46.4802C11.209 49.1518 12.9534 51.4663 15.2634 53.1036C17.5734 54.741 20.335 55.6204 23.1664 55.6204C25.9979 55.6204 28.7594 54.741 31.0694 53.1036C33.3794 51.4663 35.1238 49.1518 36.0616 46.4802C36.9993 43.8086 37.0841 40.9116 36.3042 38.1897C35.5243 35.4678 33.9182 33.0553 31.7079 31.2857ZM23.1664 52.2124C20.9839 52.2125 18.8584 51.5161 17.0992 50.2244C15.34 48.9327 14.0391 47.1132 13.3858 45.0308C12.7325 42.9484 12.7609 40.7118 13.4669 38.6467C14.173 36.5816 15.5198 34.7957 17.3112 33.5492C17.5379 33.3909 17.7228 33.1799 17.85 32.9345C17.9772 32.689 18.0429 32.4163 18.0415 32.1398V12.9214C18.0415 11.5622 18.5815 10.2586 19.5426 9.29754C20.5037 8.33643 21.8072 7.79649 23.1664 7.79649C24.5256 7.79649 25.8292 8.33643 26.7903 9.29754C27.7514 10.2586 28.2913 11.5622 28.2913 12.9214V32.1398C28.2913 32.4148 28.3577 32.6858 28.4848 32.9297C28.612 33.1736 28.7961 33.3832 29.0216 33.5406C30.8168 34.7859 32.1671 36.5722 32.8756 38.639C33.584 40.7057 33.6135 42.9448 32.9598 45.0295C32.306 47.1142 31.0033 48.9355 29.2415 50.2276C27.4798 51.5198 25.3512 52.2152 23.1664 52.2124ZM35.4021 19.919C35.1547 19.5396 35.0681 19.0774 35.1614 18.6341C35.2547 18.1908 35.5203 17.8027 35.8997 17.5552C39.1028 15.4646 41.6374 16.5409 43.4824 17.3288C45.1608 18.0463 46.1773 18.4734 47.8578 17.3822C48.2375 17.1347 48.7 17.0482 49.1435 17.1417C49.587 17.2352 49.9752 17.5011 50.2227 17.8808C50.4702 18.2605 50.5567 18.723 50.4632 19.1665C50.3697 19.6101 50.1039 19.9983 49.7241 20.2457C48.3383 21.149 47.0827 21.4629 45.9488 21.4629C44.454 21.4629 43.1899 20.9205 42.1414 20.4742C40.463 19.7546 39.4465 19.3275 37.766 20.4187C37.578 20.5411 37.3677 20.6253 37.1471 20.6665C36.9266 20.7076 36.7001 20.7049 36.4806 20.6585C36.2611 20.6121 36.0528 20.5229 35.8678 20.396C35.6828 20.2692 35.5245 20.1071 35.4021 19.919ZM50.2217 24.7151C50.4691 25.0946 50.5557 25.5568 50.4624 26.0001C50.3691 26.4434 50.1035 26.8314 49.7241 27.079C48.3383 27.9822 47.0827 28.2961 45.9488 28.2961C44.454 28.2961 43.1899 27.7537 42.1414 27.3074C40.4609 26.59 39.4465 26.1586 37.766 27.2541C37.578 27.3766 37.3677 27.4609 37.1471 27.5022C36.9265 27.5434 36.6999 27.5408 36.4803 27.4945C36.2607 27.4482 36.0523 27.3591 35.8672 27.2323C35.682 27.1055 35.5236 26.9435 35.4011 26.7554C35.1536 26.3757 35.0671 25.9132 35.1606 25.4697C35.2541 25.0262 35.52 24.638 35.8997 24.3905C39.1028 22.3 41.6374 23.3762 43.4824 24.1642C45.163 24.8817 46.1773 25.3151 47.8578 24.2176C48.2373 23.9701 48.6995 23.8835 49.1428 23.9768C49.5861 24.0701 49.9741 24.3357 50.2217 24.7151Z" fill="#7D8083"/>
</svg>
