<svg width="60" height="42" viewBox="0 0 60 42" fill="none" xmlns="http://www.w3.org/2000/svg">
<path d="M48.4746 22.4497C49.7602 23.7312 50.4887 25.4629 50.4999 27.2641C50.511 29.0652 49.8038 30.7881 48.534 32.0539C46.484 34.0971 43.1487 34.7249 40.6062 33.5478C40.2028 33.3523 39.8907 33.0078 39.7368 32.5883C39.5829 32.1688 39.5997 31.7079 39.7834 31.3048C39.9671 30.9016 40.3032 30.5884 40.7193 30.4325C41.1354 30.2766 41.5983 30.2905 42.0083 30.4712C43.26 31.0506 45.0628 30.682 46.1102 29.6381C46.7452 29.0052 47.0987 28.1437 47.0932 27.2431C47.0876 26.3426 46.7234 25.4767 46.0805 24.836C45.4377 24.1953 44.569 23.8322 43.6655 23.8267C42.762 23.8211 41.8977 24.1735 41.2627 24.8064L24.5043 41.5101C24.1868 41.8265 23.7547 42.0027 23.3029 42C22.8512 41.9972 22.4168 41.8157 22.0954 41.4953C21.774 41.1749 21.5918 40.742 21.5891 40.2917C21.5863 39.8414 21.7631 39.4107 22.0805 39.0943L38.839 22.3906C40.1089 21.1248 41.8375 20.42 43.6445 20.4311C45.4515 20.4422 47.189 21.1683 48.4746 22.4497ZM26.7796 19.9156C28.0495 18.6499 28.7567 16.9269 28.7456 15.1258C28.7344 13.3247 28.0059 11.5929 26.7203 10.3115C25.4346 9.03004 23.6972 8.3039 21.8902 8.29281C20.0831 8.28171 18.3546 8.98657 17.0847 10.2523C15.0347 12.2955 14.4049 15.62 15.5858 18.1542C15.782 18.5562 16.1277 18.8674 16.5485 19.0207C16.9694 19.1741 17.4318 19.1574 17.8362 18.9743C18.2407 18.7911 18.5549 18.4562 18.7113 18.0414C18.8677 17.6267 18.8538 17.1653 18.6725 16.7566C18.0912 15.509 18.461 13.7121 19.5084 12.6681C20.1434 12.0353 21.0076 11.6828 21.9112 11.6884C22.8147 11.6939 23.6834 12.057 24.3262 12.6977C24.969 13.3384 25.3333 14.2043 25.3389 15.1049C25.3444 16.0054 24.9908 16.8669 24.3559 17.4998L9.99151 31.8172C9.67404 32.1337 9.49725 32.5644 9.50003 33.0147C9.50282 33.465 9.68494 33.8979 10.0064 34.2183C10.3278 34.5386 10.7621 34.7201 11.2139 34.7229C11.6656 34.7257 12.0978 34.5495 12.4153 34.233L26.7796 19.9156ZM35.0995 1.95963C33.0496 4.00285 32.4197 7.32728 33.6007 9.86152C33.7968 10.2635 34.1425 10.5747 34.5633 10.728C34.9842 10.8814 35.4466 10.8647 35.8511 10.6816C36.2555 10.4984 36.5698 10.1635 36.7262 9.74875C36.8826 9.33402 36.8686 8.87266 36.6874 8.46392C36.106 7.21636 36.4758 5.41943 37.5232 4.37545C38.1582 3.74258 39.0225 3.39015 39.926 3.3957C40.8295 3.40125 41.6982 3.76432 42.341 4.40503C42.9839 5.04575 43.3481 5.91163 43.3537 6.81219C43.3592 7.71275 43.0057 8.57422 42.3707 9.2071L16.036 35.4557C15.7186 35.7722 15.5418 36.2029 15.5445 36.6532C15.5473 37.1035 15.7295 37.5364 16.0509 37.8568C16.3723 38.1771 16.8066 38.3587 17.2584 38.3614C17.7101 38.3642 18.1423 38.188 18.4598 37.8716L44.7945 11.6229C46.0644 10.3572 46.7715 8.63423 46.7604 6.83311C46.7493 5.03198 46.0207 3.30022 44.7351 2.01879C43.4495 0.737358 41.712 0.0112243 39.905 0.000129032C38.098 -0.0109662 36.3694 0.693886 35.0995 1.95963Z" fill="#7D8083"/>
</svg>
