<?xml version="1.0" encoding="utf-8"?>
<!-- Generator: Adobe Illustrator 26.2.1, SVG Export Plug-In . SVG Version: 6.00 Build 0)  -->
<svg version="1.0" id="Layer_1" xmlns="http://www.w3.org/2000/svg" xmlns:xlink="http://www.w3.org/1999/xlink" x="0px" y="0px"
	 viewBox="0 0 36 47" style="enable-background:new 0 0 36 47;" xml:space="preserve">
<style type="text/css">
	.st0{fill:#7D8083;}
</style>
<path class="st0" d="M34.6,20.2c-0.6-1.9-1-3-1.4-4c-0.4-1-0.9-1.7-1.5-2.9c-0.3-0.6-1-0.9-1.6-0.7s-1.1,0.6-1.2,1.3
	c-0.3,2.2-1.1,3.7-2,4.7c-0.2-0.7-0.4-1.4-0.7-2.2c-0.8-2.3-2-5.2-3.5-7.4l0,0c-2.9-4.2-6.8-7-8.9-8.7c-0.4-0.4-1.1-0.4-1.6-0.2
	c-0.5,0.2-0.9,0.8-0.9,1.4c0,1.6-0.2,3.6-0.6,5.5c-0.4,1.9-0.9,3.7-1.5,4.8c-0.7,1.3-1,1.8-1.4,2.3C7.3,14.6,6.9,15,6,16v0
	c-1.6,1.8-2.5,2.6-4.1,5v0C0.2,23.7,0,27.2,0,29.5C0,39.6,8.2,47,18,47c9.9,0,18-7.8,18-17.9C36,26.7,35.9,24.1,34.6,20.2z M18,44
	C9.7,44,3,37.8,3,29.5c0-2.2,0.3-4.9,1.5-6.9l0,0c1.3-2.2,2-2.6,3.7-4.6h0c0.8-0.9,1.4-1.5,1.9-2.1c0.5-0.7,1-1.4,1.7-2.7
	c0.8-1.5,1.4-3.5,1.8-5.6c0.2-1,0.4-2.1,0.5-3.1c2,1.6,4.2,3.6,6.1,6.3l0,0c1.3,1.9,2.4,4.5,3.2,6.7c0.4,1.1,0.7,2.1,0.9,2.9
	c0.1,0.4,0.2,0.7,0.2,0.9c0.1,0.3,0,0.3,0,0.2c0,0.6,0.3,1.1,0.8,1.3c0.5,0.3,1.1,0.2,1.6-0.2c0.6-0.4,2.5-1.7,3.8-4.4
	c0.3,0.7,0.6,1.6,1,3c1.2,3.6,1.3,5.8,1.3,8C33,37.5,26.3,44,18,44z"/>
</svg>
