<?xml version="1.0" encoding="utf-8"?>
<!-- Generator: Adobe Illustrator 26.2.1, SVG Export Plug-In . SVG Version: 6.00 Build 0)  -->
<svg version="1.1" id="Layer_1" xmlns="http://www.w3.org/2000/svg" xmlns:xlink="http://www.w3.org/1999/xlink" x="0px" y="0px"
	 viewBox="0 0 60.2 60.6" style="enable-background:new 0 0 60.2 60.6;" xml:space="preserve">
<style type="text/css">
	.st0{fill:#7D8083;}
</style>
<path class="st0" d="M41.8,9.2v1.3c0.5,0,0.9,0.4,0.9,0.9h1.3h1.3c0-2-1.6-3.5-3.5-3.5V9.2z M39.6,11.4h1.3c0-0.5,0.4-0.9,0.9-0.9
	V9.2V7.9c-2,0-3.5,1.6-3.5,3.5H39.6z M41.8,13.6v-1.3c-0.5,0-0.9-0.4-0.9-0.9h-1.3h-1.3c0,2,1.6,3.5,3.5,3.5V13.6z M44.1,11.4h-1.3
	c0,0.5-0.4,0.9-0.9,0.9v1.3v1.3c2,0,3.5-1.6,3.5-3.5H44.1z M18.4,49.6v1.3c0.5,0,0.9,0.4,0.9,0.9h1.3h1.3c0-2-1.6-3.5-3.5-3.5V49.6z
	 M16.1,51.9h1.3c0-0.5,0.4-0.9,0.9-0.9v-1.3v-1.3c-2,0-3.5,1.6-3.5,3.5H16.1z M18.4,54.1v-1.3c-0.5,0-0.9-0.4-0.9-0.9h-1.3h-1.3
	c0,2,1.6,3.5,3.5,3.5V54.1z M20.6,51.9h-1.3c0,0.5-0.4,0.9-0.9,0.9v1.3v1.3c2,0,3.5-1.6,3.5-3.5H20.6z M53.6,29.4v1.3
	c0.5,0,0.9,0.4,0.9,0.9h1.3h1.3c0-2-1.6-3.5-3.5-3.5V29.4z M51.3,31.7h1.3c0-0.5,0.4-0.9,0.9-0.9v-1.3v-1.3c-2,0-3.5,1.6-3.5,3.5
	H51.3z M53.6,33.9v-1.3c-0.5,0-0.9-0.4-0.9-0.9h-1.3H50c0,2,1.6,3.5,3.5,3.5V33.9z M55.8,31.7h-1.3c0,0.5-0.4,0.9-0.9,0.9v1.3v1.3
	c2,0,3.5-1.6,3.5-3.5H55.8z M6.7,29.4v1.3c0.5,0,0.9,0.4,0.9,0.9h1.3h1.3c0-2-1.6-3.5-3.5-3.5V29.4z M4.4,31.7h1.3
	c0-0.5,0.4-0.9,0.9-0.9v-1.3v-1.3c-2,0-3.5,1.6-3.5,3.5H4.4z M6.7,33.9v-1.3c-0.5,0-0.9-0.4-0.9-0.9H4.4H3.1c0,2,1.6,3.5,3.5,3.5
	V33.9z M8.9,31.7H7.6c0,0.5-0.4,0.9-0.9,0.9v1.3v1.3c2,0,3.5-1.6,3.5-3.5H8.9z M41.8,49.6v1.3c0.5,0,0.9,0.4,0.9,0.9h1.3h1.3
	c0-2-1.6-3.5-3.5-3.5V49.6z M39.6,51.9h1.3c0-0.5,0.4-0.9,0.9-0.9v-1.3v-1.3c-2,0-3.5,1.6-3.5,3.5H39.6z M41.8,54.1v-1.3
	c-0.5,0-0.9-0.4-0.9-0.9h-1.3h-1.3c0,2,1.6,3.5,3.5,3.5V54.1z M44.1,51.9h-1.3c0,0.5-0.4,0.9-0.9,0.9v1.3v1.3c2,0,3.5-1.6,3.5-3.5
	H44.1z M18.4,9.2v1.3c0.5,0,0.9,0.4,0.9,0.9h1.3h1.3c0-2-1.6-3.5-3.5-3.5V9.2z M16.1,11.4h1.3c0-0.5,0.4-0.9,0.9-0.9V9.2V7.9
	c-2,0-3.5,1.6-3.5,3.5H16.1z M18.4,13.6v-1.3c-0.5,0-0.9-0.4-0.9-0.9h-1.3h-1.3c0,2,1.6,3.5,3.5,3.5V13.6z M20.6,11.4h-1.3
	c0,0.5-0.4,0.9-0.9,0.9v1.3v1.3c2,0,3.5-1.6,3.5-3.5H20.6z M1.3,42.3l0.6,1.1L18.5,34l-0.6-1.1l-0.6-1.1L0.7,41.1L1.3,42.3z
	 M6.4,51.1l1.1-0.6l-5.1-8.8l-1.1,0.6l-1.1,0.6l5.1,8.8L6.4,51.1z M22.9,41.6l-0.6-1.1L5.7,50l0.6,1.1L7,52.2l16.5-9.5L22.9,41.6z
	 M22.9,35.7h-1.3v5.8h1.3h1.3v-5.8H22.9z M17.8,32.8L17.2,34l5.1,2.9l0.6-1.1l0.6-1.1l-5.1-2.9L17.8,32.8z M53.9,51.1l0.6-1.1
	L38,40.4l-0.6,1.1l-0.6,1.1l16.5,9.5L53.9,51.1z M58.9,42.3l-1.1-0.6l-5.1,8.8l1.1,0.6l1.1,0.6l5.1-8.8L58.9,42.3z M42.4,32.8
	L41.8,34l16.5,9.5l0.6-1.1l0.6-1.1l-16.5-9.5L42.4,32.8z M37.4,35.7l0.6,1.1l5.1-2.9l-0.6-1.1l-0.6-1.1l-5.1,2.9L37.4,35.7z
	 M37.4,41.6h1.3v-5.8h-1.3h-1.3v5.8H37.4z M35.2,1.3h-1.3v19h1.3h1.3v-19H35.2z M25,1.3v1.3h10.1V1.3V0H25V1.3z M25,20.3h1.3v-19H25
	h-1.3v19H25z M30.1,23.2l0.6-1.1l-5.1-2.9L25,20.3l-0.6,1.1l5.1,2.9L30.1,23.2z M35.2,20.3l-0.6-1.1L29.5,22l0.6,1.1l0.6,1.1
	l5.1-2.9L35.2,20.3z M42.6,31.6h-1.3c0,0.5,0,0.9-0.1,1.3l1.3,0.2l1.3,0.2c0.1-0.6,0.1-1.1,0.1-1.6H42.6z M35.3,20.2l-0.5,1.2
	c3.9,1.7,6.6,5.7,6.6,10.2h1.3h1.3c0-5.6-3.4-10.4-8.2-12.6L35.3,20.2z M30.1,44.1v-1.3c-2.5,0-4.7-0.8-6.6-2.1l-0.8,1.1L22,42.8
	c2.3,1.7,5.1,2.6,8.1,2.6V44.1z M37.6,41.6l-0.8-1c-1.9,1.4-4.2,2.3-6.7,2.3v1.3v1.3c3.1,0,6-1,8.3-2.8L37.6,41.6z M17.6,31.6h1.3
	c0-4.6,2.8-8.5,6.8-10.3l-0.5-1.2l-0.5-1.2c-4.9,2.1-8.3,7-8.3,12.7H17.6z M17.7,32.9l1.3-0.2c-0.1-0.3-0.1-0.6-0.1-1.1h-1.3h-1.3
	c0,0.4,0,1,0.1,1.5L17.7,32.9z M30.1,24.7V26c3,0,5.5,2.5,5.5,5.5h1.3h1.3c0-4.5-3.6-8.1-8.1-8.1V24.7z M23.3,31.5h1.3
	c0-3,2.5-5.5,5.5-5.5v-1.3v-1.3c-4.5,0-8.1,3.6-8.1,8.1H23.3z M30.1,38.3V37c-3,0-5.5-2.5-5.5-5.5h-1.3H22c0,4.5,3.6,8.1,8.1,8.1
	V38.3z M36.9,31.5h-1.3c0,3-2.5,5.5-5.5,5.5v1.3v1.3c4.5,0,8.1-3.6,8.1-8.1H36.9z M49.2,31.5h-1.3c0,1.5-0.2,3-0.5,4.4l1.3,0.3
	l1.3,0.3c0.4-1.6,0.6-3.3,0.6-5H49.2z M35.2,13.2l-0.3,1.3c7.6,2.1,13.1,8.9,13.1,17.1h1.3h1.3c0-9.3-6.3-17.2-15-19.6L35.2,13.2z
	 M30.1,50.6v-1.3c-4.9,0-9.2-1.9-12.5-5.1l-0.9,0.9L15.8,46c3.7,3.6,8.7,5.9,14.3,5.9V50.6z M43.5,45.1l-0.9-0.9
	c-3.2,3.2-7.6,5.1-12.5,5.1v1.3v1.3c5.6,0,10.6-2.2,14.3-5.9L43.5,45.1z M11,31.5h1.3c0-8.1,5.5-15.1,13.1-17.1L25,13.2l-0.3-1.3
	c-8.7,2.3-15,10.3-15,19.6H11z M11.6,36.3l1.3-0.3c-0.3-1.4-0.5-2.9-0.5-4.5H11H9.7c0,1.8,0.2,3.5,0.6,5.1L11.6,36.3z M57.9,31.5
	h-1.3c0,3-0.5,6-1.4,8.6l1.2,0.4l1.2,0.4c1.1-3,1.6-6.2,1.6-9.5H57.9z M35.2,4.3L35,5.5c12.4,2.3,21.7,13.1,21.7,26h1.3h1.3
	C59.2,17.3,49,5.5,35.4,3L35.2,4.3z M30.1,59.3V58C22,58,14.8,54.4,10,48.7l-1,0.8l-1,0.8c5.3,6.3,13.3,10.2,22.1,10.2V59.3z
	 M51.3,49.6l-1-0.8C45.4,54.4,38.2,58,30.1,58v1.3v1.3c8.9,0,16.8-4,22.1-10.2L51.3,49.6z M2.3,31.5h1.3c0-12.9,9.3-23.7,21.7-26
	L25,4.3L24.8,3C11.2,5.5,1,17.3,1,31.5H2.3z M3.9,40.8l1.2-0.4c-1-2.8-1.5-5.7-1.5-8.8H2.3H1c0,3.4,0.6,6.6,1.7,9.7L3.9,40.8z
	 M1.3,42.3l-0.6-1.1c-0.3,0.2-0.5,0.5-0.6,0.8c-0.1,0.3,0,0.7,0.1,1L1.3,42.3z M6.4,51.1l-1.1,0.6C5.4,52,5.7,52.2,6,52.3
	s0.7,0,1-0.1L6.4,51.1z M22.9,41.6l0.6,1.1c0.4-0.2,0.7-0.7,0.7-1.1H22.9z M22.9,35.7h1.3c0-0.5-0.3-0.9-0.7-1.1L22.9,35.7z
	 M17.8,32.8l0.6-1.1c-0.4-0.2-0.9-0.2-1.3,0L17.8,32.8z M53.9,51.1l-0.6,1.1c0.3,0.2,0.7,0.2,1,0.1c0.3-0.1,0.6-0.3,0.8-0.6
	L53.9,51.1z M58.9,42.3l1.1,0.6c0.2-0.3,0.2-0.7,0.1-1c-0.1-0.3-0.3-0.6-0.6-0.8L58.9,42.3z M42.4,32.8l0.6-1.1
	c-0.4-0.2-0.9-0.2-1.3,0L42.4,32.8z M37.4,35.7l-0.6-1.1c-0.4,0.2-0.7,0.7-0.7,1.1H37.4z M37.4,41.6h-1.3c0,0.5,0.2,0.9,0.7,1.1
	L37.4,41.6z M35.2,1.3h1.3c0-0.7-0.6-1.3-1.3-1.3V1.3z M25,1.3V0c-0.7,0-1.3,0.6-1.3,1.3H25z M25,20.3h-1.3c0,0.5,0.3,0.9,0.7,1.1
	L25,20.3z M30.1,23.2l-0.6,1.1c0.4,0.2,0.9,0.2,1.3,0L30.1,23.2z M35.2,20.3l0.6,1.1c0.4-0.2,0.7-0.7,0.7-1.1H35.2z"/>
</svg>
