<?xml version="1.0" encoding="utf-8"?>
<!-- Generator: Adobe Illustrator 26.2.1, SVG Export Plug-In . SVG Version: 6.00 Build 0)  -->
<svg version="1.0" id="Layer_1" xmlns="http://www.w3.org/2000/svg" xmlns:xlink="http://www.w3.org/1999/xlink" x="0px" y="0px"
	 viewBox="0 0 58.6 57.9" style="enable-background:new 0 0 58.6 57.9;" xml:space="preserve">
<style type="text/css">
	.st0{fill:#7D8083;}
</style>
<path class="st0" d="M58.6,20.9c0-8.6-6.5-15.6-14.8-16.7V1.5c0-0.8-0.7-1.5-1.5-1.5c-11.5,0-21,9.3-21,20.8c0,0.1,0,0.1,0,0.2
	l-1.3-1.3l0.3-0.3c0.6-0.6,0.6-1.5,0-2.1L8.3,5.3c-0.6-0.6-1.5-0.6-2.1,0L0.4,11c-0.6,0.6-0.6,1.5,0,2.1l12.1,12
	c0.6,0.6,1.5,0.6,2.1,0l0.2-0.2l1.9,1.9l-11,11c0,0,0,0,0,0c-2.5,2.6-2.6,6.8,0,9.4l0,0l0,0l-4.1,4c-0.6,0.6-0.6,1.5,0,2.1l4,4
	c0.3,0.3,0.7,0.4,1.1,0.4s0.8-0.2,1.1-0.4l4.1-4.1c2.6,2.4,6.6,2.3,9.1-0.2l13-13c2.5,1.1,5.3,1.7,8.2,1.7c0.8,0,1.5-0.7,1.5-1.5
	v-2.7C52.2,36.5,58.6,29.5,58.6,20.9z M7.9,40l2.1-2.1l0.9,0.9l-4.1,4.1C6.8,41.8,7.1,40.8,7.9,40z M14.5,42.3l-4.7,4.7l-1.4-1.4
	l4.7-4.7L14.5,42.3z M13.3,50.4l-1.3-1.3l4.7-4.6l1.3,1.3L13.3,50.4z M12.1,35.8l8.1-8.1l11.1,11l-8.1,8.1L12.1,35.8z M31.2,18.7
	L31.2,18.7c1.3-1.1,3-1.5,4.6-1.4l-1.3,1.3c-0.3,0.3-0.4,0.7-0.4,1.1c0,0.4,0.2,0.8,0.4,1.1l2.3,2.3c1,1,1,2.5,0,3.4
	c-1,1-2.5,1-3.5,0l-2.3-2.3c-0.6-0.6-1.5-0.6-2.1,0l-4,3.9l-2.4-2.4L31.2,18.7z M39.7,19.2c2.3,2.3,2.5,5.9,0.5,8.3c0,0,0,0,0,0
	l-6.9,8.9l-6.2-6.2l2.9-2.9l1.3,1.3c2.1,2.1,5.6,2.1,7.7,0c2.1-2.1,2.1-5.5,0-7.7l-1.3-1.3l1.2-1.2C39.1,18.7,39.4,18.9,39.7,19.2
	C39.7,19.2,39.7,19.2,39.7,19.2z M40.8,31.6v7.2c-1.6-0.1-3.2-0.5-4.7-1L40.8,31.6z M43.8,20.1v-4c1.8,0.8,3.1,2.7,3.1,4.8
	c0,1.9-1.1,3.6-2.6,4.5C44.7,23.7,44.5,21.8,43.8,20.1z M40.8,3.1v13.1c-3.4-2.6-8.2-2.6-11.6,0.2l0,0l-4.9,4
	C24.7,11.2,31.8,3.8,40.8,3.1z M3.6,12.1l3.6-3.6l10,9.9L17,18.6c0,0-0.1,0-0.1,0.1l-3.1,3.1c-0.1,0.1-0.1,0.1-0.2,0.2L3.6,12.1z
	 M17,22.8l1-1l2.1,2l-0.5,0.4c-0.1,0.1-0.2,0.1-0.3,0.2l-0.3,0.3L17,22.8z M4.9,52.4l3-3l1.9,1.8l-3,3L4.9,52.4z M15.9,52l4.2-4.1
	l1.1,1L19,51C18.2,51.8,17,52.2,15.9,52z M43.8,34.6v-5.7c3.5-0.9,6.1-4.1,6.1-8s-2.6-7-6.1-8V7.3c6.6,1,11.8,6.8,11.8,13.7
	C55.6,27.8,50.5,33.5,43.8,34.6z"/>
</svg>
