<?xml version="1.0" encoding="utf-8"?>
<!-- Generator: Adobe Illustrator 26.2.1, SVG Export Plug-In . SVG Version: 6.00 Build 0)  -->
<svg version="1.1" xmlns="http://www.w3.org/2000/svg" xmlns:xlink="http://www.w3.org/1999/xlink" x="0px" y="0px"
	 viewBox="0 0 60 60" style="enable-background:new 0 0 60 60;" xml:space="preserve">
<style type="text/css">
	.st0{fill:#CBD1D5;}
	.st1{fill:#7D8083;}
</style>
<g id="Layer_1">
	<path class="st0" d="M50,60H10C4.5,60,0,55.5,0,50V10C0,4.5,4.5,0,10,0h40c5.5,0,10,4.5,10,10v40C60,55.5,55.5,60,50,60z"/>
</g>
<g id="Layer_2">
	<g>
		<path class="st1" d="M49.3,32.8l-2.7,0l-0.1-1.3c-0.1-0.9-0.9-1.7-1.8-1.7h-2c-0.1-0.9-0.9-1.5-1.8-1.5h-3.1l1-1.8
			c0.5,0.1,1,0.2,1.5,0.2c2.1,0,4.2-1.1,5.3-3.1l4.8-8.3c0.9-1.6,0.4-3.7-1.3-4.7l-7.8-4.5c-1.6-0.9-3.7-0.4-4.7,1.3L32,15.8
			c-0.8,1.4-1,3.1-0.6,4.7c0.4,1.4,1.2,2.5,2.3,3.3l-2.6,4.5h-11c-0.4,0-0.7,0.1-0.9,0.3L16,30.5c-0.6,0.3-0.9,0.9-0.9,1.6v3.5
			c0,0.6,0.3,1.2,0.9,1.6l3.3,1.9c0.3,0.1,0.6,0.2,0.9,0.2h6.4v3.5l-1.6,2.7c-0.3,0.6-0.3,1.3,0,1.8c0.3,0.6,0.9,0.9,1.6,0.9h2.7
			c0.6,0,1.2-0.3,1.6-0.9l2.1-3.6c0.2-0.3,0.2-0.6,0.2-0.9v-3.6h4.9l0.3,2.8h-2.3c-0.4,0-0.8,0.2-1.1,0.5c-0.3,0.3-0.4,0.7-0.3,1.1
			c0.2,2.1,1.8,3.5,4.3,3.8l0.6,5.2c0.1,0.9,0.9,1.6,1.8,1.6H47c0.5,0,1-0.2,1.4-0.6c0.3-0.4,0.5-0.9,0.5-1.4l-1.5-12.9h2.1
			c1,0,1.8-0.8,1.8-1.8v-2.8C51.2,33.7,50.3,32.8,49.3,32.8z M44.6,32.8l-1.2,0c-0.4,0-0.7-0.3-0.7-0.7v-0.3h1.8L44.6,32.8z
			 M38.6,8.4c0.3-0.5,0.8-0.7,1.2-0.7c0.2,0,0.5,0.1,0.7,0.2l7.8,4.5c0.7,0.4,0.9,1.3,0.5,1.9l-1.1,1.9c-0.9,0.3-4.2,1.3-7.2-0.4
			c-2.2-1.2-4.2-1.3-5.7-1L38.6,8.4z M33.4,17.4c0.8-0.4,3.3-1.4,6.1,0.2c1.6,0.9,3.3,1.2,4.8,1.2c0.7,0,1.4-0.1,2-0.2l-2.3,4
			c-1.1,2-3.7,2.7-5.7,1.5l-3-1.7l0,0c-1-0.5-1.7-1.4-1.9-2.5C33.1,19.1,33.2,18.2,33.4,17.4z M35.4,24.8l1.6,0.9l-1.5,2.6h-2.1
			L35.4,24.8z M17,32.1l1.9-1.1v5.5L17,35.5V32.1z M31.2,42.8l-2,3.5h-2.3l1.4-2.5c0.2-0.3,0.3-0.6,0.3-0.9v-3.6h2.6L31.2,42.8z
			 M36.9,44.1h1.8l0.2,1.3C38.1,45.3,37.3,44.9,36.9,44.1z M46.8,52.3h-5.2l-1.5-13h5.2L46.8,52.3z M49.2,37.3l-28.3,0v-7h19.8v1.8
			c0,1.4,1.1,2.6,2.6,2.7h5.8V37.3z"/>
		<rect x="9" y="36.4" transform="matrix(0.8676 -0.4973 0.4973 0.8676 -17.1787 10.3344)" class="st1" width="3.6" height="2"/>
		<rect x="9.8" y="28.3" transform="matrix(0.4998 -0.8662 0.8662 0.4998 -20.708 24.4496)" class="st1" width="2" height="3.6"/>
		<rect x="7.8" y="32.8" class="st1" width="3.6" height="2"/>
	</g>
</g>
</svg>
