<svg width="26" height="27" viewBox="0 0 26 27" fill="none" xmlns="http://www.w3.org/2000/svg">
<path d="M5 20.0596C5 20.5204 5 20.7509 5.02089 20.9512C5.19433 22.6144 6.41681 23.9882 8.06941 24.3772C8.26846 24.4241 8.50067 24.4545 8.96491 24.5154L17.7542 25.6685C20.2561 25.9967 21.507 26.1608 22.4779 25.781C23.3304 25.4475 24.0404 24.8358 24.489 24.0485C25 23.1518 25 21.9101 25 19.4266V7.57352C25 5.09004 25 3.8483 24.489 2.95158C24.0404 2.16428 23.3304 1.55264 22.4779 1.21914C21.507 0.839297 20.2561 1.00341 17.7542 1.33164L8.96491 2.4847C8.50061 2.54561 8.26847 2.57606 8.06941 2.62292C6.41681 3.01188 5.19433 4.38573 5.02089 6.04891C5 6.24924 5 6.47968 5 6.94056M13 8.25246L18.3333 13.5001M18.3333 13.5001L13 18.7477M18.3333 13.5001H1" stroke="#7D8083" stroke-width="2" stroke-linecap="round" stroke-linejoin="round"/>
</svg>
