<svg width="26" height="26" viewBox="0 0 26 26" fill="none" xmlns="http://www.w3.org/2000/svg">
<path d="M13 0C10.4288 0 7.91543 0.762437 5.77759 2.1909C3.63975 3.61935 1.97351 5.64968 0.989572 8.02512C0.0056327 10.4006 -0.251811 13.0144 0.249797 15.5362C0.751405 18.0579 1.98953 20.3743 3.80762 22.1924C5.6257 24.0105 7.94208 25.2486 10.4638 25.7502C12.9856 26.2518 15.5995 25.9944 17.9749 25.0104C20.3503 24.0265 22.3807 22.3603 23.8091 20.2224C25.2376 18.0846 26 15.5712 26 13C25.9964 9.5533 24.6256 6.24882 22.1884 3.81163C19.7512 1.37445 16.4467 0.00363977 13 0ZM13 24C10.8244 24 8.69767 23.3549 6.88873 22.1462C5.07979 20.9375 3.66989 19.2195 2.83733 17.2095C2.00477 15.1995 1.78693 12.9878 2.21137 10.854C2.63581 8.72022 3.68345 6.7602 5.22183 5.22183C6.76021 3.68345 8.72022 2.6358 10.854 2.21136C12.9878 1.78692 15.1995 2.00476 17.2095 2.83733C19.2195 3.66989 20.9375 5.07979 22.1462 6.88873C23.3549 8.69767 24 10.8244 24 13C23.9967 15.9164 22.8367 18.7123 20.7745 20.7745C18.7123 22.8367 15.9164 23.9967 13 24ZM7.00001 10.5C7.00001 10.2033 7.08798 9.91332 7.2528 9.66665C7.41762 9.41997 7.65189 9.22771 7.92598 9.11418C8.20007 9.00065 8.50167 8.97094 8.79264 9.02882C9.08361 9.0867 9.35089 9.22956 9.56067 9.43934C9.77044 9.64912 9.91331 9.91639 9.97118 10.2074C10.0291 10.4983 9.99936 10.7999 9.88583 11.074C9.77229 11.3481 9.58003 11.5824 9.33336 11.7472C9.08669 11.912 8.79668 12 8.50001 12C8.10218 12 7.72065 11.842 7.43935 11.5607C7.15804 11.2794 7.00001 10.8978 7.00001 10.5ZM20 10.5C20 10.7652 19.8946 11.0196 19.7071 11.2071C19.5196 11.3946 19.2652 11.5 19 11.5H16C15.7348 11.5 15.4804 11.3946 15.2929 11.2071C15.1054 11.0196 15 10.7652 15 10.5C15 10.2348 15.1054 9.98043 15.2929 9.79289C15.4804 9.60536 15.7348 9.5 16 9.5H19C19.2652 9.5 19.5196 9.60536 19.7071 9.79289C19.8946 9.98043 20 10.2348 20 10.5ZM18.865 16.5C17.5788 18.7238 15.4413 20 13 20C10.5588 20 8.42126 18.725 7.13376 16.5C7.06809 16.3862 7.02548 16.2607 7.00835 16.1304C6.99122 16.0002 6.99991 15.8679 7.03392 15.741C7.06793 15.6142 7.1266 15.4952 7.20657 15.391C7.28654 15.2868 7.38625 15.1994 7.50001 15.1338C7.61376 15.0681 7.73934 15.0255 7.86957 15.0083C7.99979 14.9912 8.13212 14.9999 8.25898 15.0339C8.38585 15.0679 8.50478 15.1266 8.60897 15.2066C8.71317 15.2865 8.8006 15.3862 8.86626 15.5C9.79876 17.1138 11.2663 18 13 18C14.7338 18 16.2013 17.1125 17.135 15.5C17.1975 15.3805 17.2836 15.2749 17.388 15.1895C17.4924 15.1041 17.6129 15.0407 17.7425 15.0031C17.872 14.9655 18.0078 14.9546 18.1417 14.9708C18.2756 14.9871 18.4048 15.0303 18.5215 15.0978C18.6383 15.1652 18.7402 15.2557 18.8211 15.3636C18.902 15.4715 18.9603 15.5946 18.9924 15.7256C19.0245 15.8566 19.0297 15.9927 19.0078 16.1258C18.9859 16.2589 18.9374 16.3862 18.865 16.5Z" fill="#7D8083"/>
</svg>
