<?xml version="1.0" encoding="utf-8"?>
<!-- Generator: Adobe Illustrator 26.2.1, SVG Export Plug-In . SVG Version: 6.00 Build 0)  -->
<svg version="1.0" id="Layer_1" xmlns="http://www.w3.org/2000/svg" xmlns:xlink="http://www.w3.org/1999/xlink" x="0px" y="0px"
	 viewBox="0 0 42.5 46" style="enable-background:new 0 0 42.5 46;" xml:space="preserve">
<style type="text/css">
	.st0{fill:#7D8083;}
</style>
<g>
	<path class="st0" d="M40.7,10.6V7.1c0-3.9-3.2-7.1-7.1-7.1H8.8C4.9,0,1.8,3.2,1.8,7.1v3.5c-1,0-1.8,0.8-1.8,1.8v7.1
		c0,1,0.8,1.8,1.8,1.8V30c0,2.2,0.7,4.3,1.9,6l4.3,6.2c1.7,2.4,4.4,3.8,7.3,3.8h12c2.9,0,5.6-1.4,7.3-3.8l4.3-6.2
		c1.2-1.8,1.9-3.9,1.9-6v-8.7c1,0,1.8-0.8,1.8-1.8v-7.1C42.5,11.4,41.7,10.6,40.7,10.6z M37.2,30c0,1.4-0.4,2.8-1.3,4l-4.3,6.2
		c-1,1.4-2.6,2.3-4.4,2.3h-12c-1.7,0-3.4-0.9-4.4-2.3L6.6,34c-0.8-1.2-1.3-2.6-1.3-4V7.1c0-2,1.6-3.5,3.5-3.5h24.8
		c2,0,3.5,1.6,3.5,3.5V30z"/>
	<path class="st0" d="M31,8.8h-4.4c0-1-0.8-1.8-1.8-1.8h-7.1c-1,0-1.8,0.8-1.8,1.8h-4.4c-1.5,0-2.7,1.2-2.7,2.7v8.8
		c0,1.5,1.2,2.7,2.7,2.7H31c1.5,0,2.7-1.2,2.7-2.7v-8.8C33.6,10,32.4,8.8,31,8.8z M30.1,19.5H12.4v-7.1h17.7V19.5z"/>
	<path class="st0" d="M26.5,31.8H15.9c-1,0-1.8,0.8-1.8,1.8s0.8,1.8,1.8,1.8h10.6c1,0,1.8-0.8,1.8-1.8S27.5,31.8,26.5,31.8z"/>
</g>
</svg>
