<?xml version="1.0" encoding="utf-8"?>
<!-- Generator: Adobe Illustrator 26.2.1, SVG Export Plug-In . SVG Version: 6.00 Build 0)  -->
<svg version="1.1" xmlns="http://www.w3.org/2000/svg" xmlns:xlink="http://www.w3.org/1999/xlink" x="0px" y="0px"
	 viewBox="0 0 60 60" style="enable-background:new 0 0 60 60;" xml:space="preserve">
<style type="text/css">
	.st0{fill:#CBD1D5;}
	.st1{fill:#7D8083;}
</style>
<g id="Layer_1">
	<path class="st0" d="M50,60H10C4.5,60,0,55.5,0,50V10C0,4.5,4.5,0,10,0h40c5.5,0,10,4.5,10,10v40C60,55.5,55.5,60,50,60z"/>
</g>
<g id="Layer_3">
	<g>
		<path class="st1" d="M9.8,41.7h-1v6h1c1.4,0,2.5,1.1,2.5,2.5v1h6v-1C18.3,45.5,14.5,41.7,9.8,41.7z M14.2,49.2
			c-0.4-1.7-1.7-3-3.4-3.4v-2c2.8,0.4,5,2.6,5.4,5.4H14.2z"/>
		<path class="st1" d="M9.8,20.4h-1v5.8h1c13.2,0,24,10.8,24,24v1h5.8v-1C39.6,33.8,26.2,20.4,9.8,20.4z M35.7,49.2
			c-0.5-13.5-11.4-24.4-25-25v-1.8C25.3,23,37,34.7,37.5,49.2H35.7z"/>
		<path class="st1" d="M9.8,8.8h-1v5.9h1c19.6,0,35.6,15.9,35.6,35.6v1h5.9v-1C51.2,27.4,32.6,8.8,9.8,8.8z M47.3,49.2
			c-0.5-19.9-16.6-36-36.5-36.5v-1.9c20.9,0.5,37.9,17.5,38.4,38.4H47.3z"/>
		<path class="st1" d="M9.8,30.6h-1v5.9h1c7.6,0,13.8,6.2,13.8,13.8v1h5.9v-1C29.4,39.4,20.6,30.6,9.8,30.6z M25.5,49.2
			c-0.5-7.9-6.8-14.3-14.8-14.8v-1.9c8.9,0.5,16.1,7.7,16.6,16.6H25.5z"/>
	</g>
</g>
</svg>
