<?xml version="1.0" encoding="utf-8"?>
<!-- Generator: Adobe Illustrator 26.2.1, SVG Export Plug-In . SVG Version: 6.00 Build 0)  -->
<svg version="1.0" id="Layer_1" xmlns="http://www.w3.org/2000/svg" xmlns:xlink="http://www.w3.org/1999/xlink" x="0px" y="0px"
	 viewBox="0 0 45 46" style="enable-background:new 0 0 45 46;" xml:space="preserve">
<style type="text/css">
	.st0{fill:#FFFFFF;}
</style>
<g>
	<path class="st0" d="M43.8,27.2L43.8,27.2L43.8,27.2l-4-2.3c0.1-0.8,0.2-1.7,0.2-2.5c0-0.5,0-1-0.1-1.5l3.9-2.3l0,0
		c1.1-0.7,1.5-2.1,0.9-3.3l0,0l0,0c0,0,0,0,0,0l0,0l-4.6-7.9l0,0C39.4,6.4,38,6,36.8,6.6l0,0l0,0h0l0,0l-3.5,2
		c-1.2-0.9-2.4-1.7-3.8-2.3v-4C29.4,1.1,28.4,0,27,0h-9.1c-1.3,0-2.4,1.1-2.4,2.4v4c-1.4,0.6-2.7,1.4-3.8,2.3l-3.5-2l0,0h0l0,0l0,0
		C7,6,5.6,6.4,4.9,7.5l0,0l-4.6,7.9l0,0c0,0,0,0,0,0l0,0l0,0c-0.7,1.2-0.3,2.6,0.9,3.3l0,0L5.1,21c0,0.5-0.1,1-0.1,1.5
		c0,0.8,0.1,1.7,0.2,2.5l-4,2.3l0,0c-1.1,0.7-1.5,2.1-0.9,3.3l0,0l4.6,7.9l0,0c0.7,1.1,2.1,1.5,3.3,0.9l0,0l4.3-2.5
		c0.9,0.7,1.9,1.2,3,1.7v5.1c0,1.3,1.1,2.4,2.4,2.4h9.1c1.3,0,2.4-1.1,2.4-2.4v-5.1c1-0.5,2-1,3-1.7l4.3,2.5l0,0h0l0,0l0,0
		c1.2,0.7,2.6,0.3,3.3-0.9l0,0l4.6-7.9l0,0C45.4,29.3,44.9,27.9,43.8,27.2z M42.3,16.1L42.3,16.1C42.3,16.1,42.3,16.1,42.3,16.1
		L42.3,16.1z M2.7,16.1L2.7,16.1C2.7,16.1,2.7,16.1,2.7,16.1L2.7,16.1z M2.4,16.6L2.4,16.6l-0.8-0.5L2.4,16.6z M2.4,16.6L2.4,16.6
		l0.5,0.3l0,0L2.4,16.6z M37.8,36.4l-4.7-2.7c-0.5-0.3-1.2-0.3-1.7,0.1c-1.2,1-2.6,1.7-4,2.2c-0.6,0.2-1,0.8-1,1.4V43h-7.9v-5.5
		c0-0.6-0.4-1.2-1-1.4c-1.4-0.5-2.8-1.3-4-2.2c-0.5-0.4-1.2-0.4-1.7-0.1l-4.7,2.7l-4-6.9L7.6,27c0.6-0.3,0.8-1,0.7-1.6
		c-0.2-1-0.3-2-0.3-3c0-0.7,0.1-1.3,0.2-2.1c0.1-0.6-0.2-1.2-0.7-1.5l-4.2-2.4l4-6.9l3.9,2.3c0.6,0.3,1.3,0.3,1.7-0.2
		c1.4-1.2,3-2.2,4.7-2.8c0.6-0.2,1-0.8,1-1.4V3h7.9v4.4c0,0.6,0.4,1.2,1,1.4c1.7,0.6,3.3,1.6,4.7,2.8c0.5,0.4,1.2,0.5,1.7,0.2
		l3.9-2.3l4,6.9l-4.2,2.4c-0.5,0.3-0.8,0.9-0.7,1.5c0.1,0.7,0.2,1.4,0.2,2.1c0,1-0.1,2-0.3,3c-0.1,0.6,0.2,1.3,0.7,1.6l4.3,2.5
		L37.8,36.4z"/>
	<path class="st0" d="M22.5,12c-5.7,0-10.4,4.7-10.4,10.4s4.7,10.4,10.4,10.4c5.7,0,10.4-4.7,10.4-10.4S28.3,12,22.5,12z M22.5,29.9
		c-4.1,0-7.4-3.3-7.4-7.4c0-4.1,3.3-7.4,7.4-7.4c4.1,0,7.4,3.3,7.4,7.4C29.9,26.5,26.6,29.9,22.5,29.9z"/>
</g>
</svg>
