<?xml version="1.0" encoding="utf-8"?>
<!-- Generator: Adobe Illustrator 26.2.1, SVG Export Plug-In . SVG Version: 6.00 Build 0)  -->
<svg version="1.1" xmlns="http://www.w3.org/2000/svg" xmlns:xlink="http://www.w3.org/1999/xlink" x="0px" y="0px"
	 viewBox="0 0 60 60" style="enable-background:new 0 0 60 60;" xml:space="preserve">
<style type="text/css">
	.st0{fill:#CBD1D5;}
	.st1{fill:#7D8083;}
</style>
<g id="Layer_1">
	<path class="st0" d="M50,60H10C4.5,60,0,55.5,0,50V10C0,4.5,4.5,0,10,0h40c5.5,0,10,4.5,10,10v40C60,55.5,55.5,60,50,60z"/>
</g>
<g id="Layer_2">
	<g>
		<path class="st1" d="M53.9,36.4c-0.1-0.5-0.5-0.9-0.9-1.2l-4.8-2.7c0.2-1,0.3-2,0.3-3.1c0-0.6,0-1.3-0.1-1.9l4.6-2.7
			c0.9-0.5,1.3-1.8,0.7-2.7l-5-8.7c-0.5-0.9-1.8-1.3-2.7-0.7l-4.2,2.4c-1.5-1.2-3.1-2.2-4.8-2.9V7.5c0-1.1-0.9-2-2-2H25
			c-1.1,0-2,0.9-2,2v4.8c-1.7,0.7-3.3,1.7-4.8,2.9L14,12.7c-0.5-0.3-1-0.3-1.5-0.2c-0.5,0.1-0.9,0.5-1.2,0.9l-5,8.7
			C5.7,23,6,24.2,7,24.8l4.6,2.7c-0.1,0.7-0.1,1.3-0.1,1.9c0,1,0.1,2.1,0.3,3.1L7,35.2c-0.5,0.3-0.8,0.7-0.9,1.2s-0.1,1,0.2,1.5
			l5,8.7c0.3,0.5,0.7,0.8,1.2,0.9c0.5,0.1,1,0.1,1.5-0.2l5.1-3c1.2,0.9,2.5,1.6,3.9,2.2v6c0,1.1,0.9,2,2,2h10c1.1,0,2-0.9,2-2v-6
			c1.4-0.6,2.7-1.3,3.9-2.2l5.1,3c0.9,0.5,2.2,0.2,2.7-0.7l5-8.7C54,37.5,54.1,36.9,53.9,36.4z M47,45.6L40.7,42l-0.5,0.4
			c-1.4,1.1-2.9,1.9-4.5,2.5L35,45.1l0,7.4l-10,0v-7.4l-0.7-0.2c-1.6-0.6-3.2-1.4-4.5-2.5L19.3,42L13,45.6l-5-8.7l6-3.5l-0.1-0.7
			c-0.2-1.1-0.3-2.2-0.3-3.4c0-0.8,0.1-1.6,0.2-2.3l0.1-0.7L8,23.1l5-8.7l5.5,3.2l0.5-0.5c1.6-1.4,3.4-2.5,5.4-3.2l0.7-0.2l0-6.2
			l10,0v6.2l0.7,0.2c2,0.7,3.8,1.8,5.4,3.2l0.5,0.5l5.5-3.2l5,8.7l-5.8,3.3l0.1,0.7c0.1,0.8,0.2,1.6,0.2,2.3c0,1.1-0.1,2.3-0.3,3.4
			L46,33.5l6,3.5L47,45.6z"/>
		<path class="st1" d="M30,18.6c-5.9,0-10.8,4.8-10.8,10.8c0,5.9,4.8,10.8,10.8,10.8s10.8-4.8,10.8-10.8
			C40.8,23.5,35.9,18.6,30,18.6z M30,38.2c-4.8,0-8.8-3.9-8.8-8.8c0-4.8,3.9-8.8,8.8-8.8c4.8,0,8.8,3.9,8.8,8.8
			C38.8,34.2,34.8,38.2,30,38.2z"/>
	</g>
</g>
</svg>
