<?xml version="1.0" encoding="utf-8"?>
<!-- Generator: Adobe Illustrator 26.2.1, SVG Export Plug-In . SVG Version: 6.00 Build 0)  -->
<svg version="1.0" id="Layer_1" xmlns="http://www.w3.org/2000/svg" xmlns:xlink="http://www.w3.org/1999/xlink" x="0px" y="0px"
	 viewBox="0 0 45 62.6" style="enable-background:new 0 0 45 62.6;" xml:space="preserve">
<style type="text/css">
	.st0{fill:#7D8083;}
</style>
<g>
	<path class="st0" d="M3.4,18.7h5.4v4.4c0,0.8,0.7,1.5,1.5,1.5h3.3v10.3c0,0.5,0.2,0.9,0.6,1.2l7.4,5.5c0.5,0.4,1.3,0.4,1.8,0
		l7.4-5.5c0.4-0.3,0.6-0.7,0.6-1.2v-2.7h1.2c4.2,0,7.6-3.5,7.6-7.6v-5.9h1.5c0.8,0,1.5-0.7,1.5-1.5V1.5c0-0.8-0.7-1.5-1.5-1.5H3.4
		C2.6,0,1.9,0.7,1.9,1.5v15.7C1.9,18,2.6,18.7,3.4,18.7z M4.9,3h35.3v12.7h-4.9c-0.1,0-0.3-0.1-0.4-0.1H10.3c-0.1,0-0.3,0-0.4,0.1
		h-5V3z M33.4,18.7v2.9H11.8v-2.9H33.4z M16.6,34.2v-9.5h11.8v9.5l-5.9,4.4L16.6,34.2z M37.2,24.6c0,2.5-2,4.6-4.6,4.6h-1.2v-4.6
		h3.4c0.8,0,1.5-0.7,1.5-1.5v-4.4h0.9V24.6z"/>
	<path class="st0" d="M30.6,45.4c-0.5-0.3-1.1-0.2-1.6,0.1l-6.5,4.8L16,45.5c-0.5-0.3-1.1-0.4-1.6-0.1c-0.5,0.3-0.8,0.8-0.8,1.3
		v14.4c0,0.8,0.7,1.5,1.5,1.5H30c0.8,0,1.5-0.7,1.5-1.5V46.7C31.5,46.1,31.1,45.6,30.6,45.4z M23.4,53.4l5-3.7v9.9H16.6v-9.9l5,3.7
		C22.2,53.8,22.9,53.8,23.4,53.4z"/>
	<path class="st0" d="M37.9,34.1c-0.5-0.4-1.3-0.4-1.8,0L22.6,44.4L8.7,33.8c-0.6-0.4-1.3-0.4-1.9,0L0,39.5l1,1.2l1,1.2l5.9-4.9
		l13.8,10.6c0.5,0.4,1.3,0.4,1.8,0L37,37.2l6.2,4.7l0.9-1.2l0.9-1.2L37.9,34.1z"/>
</g>
</svg>
