<?xml version="1.0" encoding="utf-8"?>
<!-- Generator: Adobe Illustrator 26.2.1, SVG Export Plug-In . SVG Version: 6.00 Build 0)  -->
<svg version="1.1" xmlns="http://www.w3.org/2000/svg" xmlns:xlink="http://www.w3.org/1999/xlink" x="0px" y="0px"
	 viewBox="0 0 60 60" style="enable-background:new 0 0 60 60;" xml:space="preserve">
<style type="text/css">
	.st0{fill:#CBD1D5;}
	.st1{fill:#7D8083;}
</style>
<g id="Layer_1">
	<path class="st0" d="M50,60H10C4.5,60,0,55.5,0,50V10C0,4.5,4.5,0,10,0h40c5.5,0,10,4.5,10,10v40C60,55.5,55.5,60,50,60z"/>
</g>
<g id="Layer_3">
	<g>
		<path class="st1" d="M48.4,27.9c0-1.9-0.7-3.8-1.9-5.3l0,0c-1.4-1.6-2.9-3.9-5-7.4c-0.6-0.9-2-0.9-2.6,0.1
			c-0.5,0.9-1.1,1.9-1.8,2.9c-2.5-3.1-3.7-5.3-5-7.6c-0.4-0.8-0.8-1.6-1.4-2.4c-0.4-0.6-1.1-1-1.9-1s-1.4,0.4-1.9,1l-0.1,0.1
			c-2.9,6-6.5,11.3-11.2,16.4c-3.2,3.8-4.5,8.6-3.8,13.5c1.1,7.5,7.4,13.6,14.9,14.5c0.7,0.1,1.3,0.1,2,0.1c4.2,0,8.3-1.5,11.4-4.3
			c3.6-3.2,5.7-7.9,5.7-12.8c0-0.6,0-1.2-0.1-1.8C47.4,32.3,48.4,30.2,48.4,27.9z M40.1,16.9c1.9,3.1,3.4,5.4,4.8,6.9
			c0.9,1.1,1.5,2.5,1.5,4c0,1.8-0.8,3.5-2.1,4.7c-1.3,1.2-3.1,1.7-4.9,1.5c-2.8-0.3-5-2.5-5.4-5.3c-0.3-1.8,0.2-3.5,1.4-5
			C37.4,21.2,39,18.9,40.1,16.9z M38.8,47c-3.3,2.9-7.5,4.2-11.8,3.7c-6.7-0.8-12.2-6.1-13.2-12.8c-0.6-4.4,0.6-8.6,3.3-11.9
			c4.8-5.2,8.5-10.7,11.4-16.8c0.1-0.1,0.3-0.1,0.4,0c0.5,0.8,0.9,1.6,1.3,2.3c1.3,2.4,2.7,4.9,5.6,8.4c-0.6,0.9-1.3,1.7-2,2.7
			c-1.5,1.8-2.2,4.1-1.8,6.5c0.5,3.6,3.5,6.6,7.2,7c0.3,0,0.6,0.1,0.9,0.1c1.3,0,2.6-0.3,3.7-0.9c0,0.2,0,0.3,0,0.5
			C43.9,40,42,44.1,38.8,47z"/>
		<path class="st1" d="M29.1,43.1c-1.6-0.6-3.7-1.3-5.2-2.8c-1.5-1.5-2.2-3.5-2.8-5.2c-0.6-1.6-1-2.8-2.1-3.1
			c-1-0.2-1.7,0.5-1.9,0.8c-2.7,2.7-1.7,8,2.3,12c2.5,2.5,5.4,3.8,8,3.8c1.6,0,3-0.5,4-1.5c0.2-0.2,1-1,0.8-1.9
			C31.9,44.1,30.7,43.7,29.1,43.1z M30,45.7c-1.9,1.9-6.1,0.8-9.2-2.3c-3.1-3.1-4.1-7.3-2.3-9.2c0,0,0,0,0.1-0.1
			c0.2,0.4,0.4,1.1,0.6,1.6c0.6,1.7,1.4,4.1,3.2,5.9c1.8,1.8,4.2,2.6,5.9,3.2C29,45.2,29.7,45.4,30,45.7C30,45.6,30,45.7,30,45.7z"
			/>
	</g>
</g>
</svg>
