<svg width="60" height="60" viewBox="0 0 60 60" fill="none" xmlns="http://www.w3.org/2000/svg">
<path d="M9 17.5714C10.26 18.6071 11.52 19.6429 14.25 19.6429C19.5 19.6429 19.5 15.5 24.75 15.5C27.48 15.5 28.74 16.5357 30 17.5714C31.26 18.6071 32.52 19.6429 35.25 19.6429C40.5 19.6429 40.5 15.5 45.75 15.5C48.48 15.5 49.74 16.5357 51 17.5714M9 42.4286C10.26 43.4643 11.52 44.5 14.25 44.5C19.5 44.5 19.5 40.3571 24.75 40.3571C27.48 40.3571 28.74 41.3929 30 42.4286C31.26 43.4643 32.52 44.5 35.25 44.5C40.5 44.5 40.5 40.3571 45.75 40.3571C48.48 40.3571 49.74 41.3929 51 42.4286M9 30C10.26 31.0357 11.52 32.0714 14.25 32.0714C19.5 32.0714 19.5 27.9286 24.75 27.9286C27.48 27.9286 28.74 28.9643 30 30C31.26 31.0357 32.52 32.0714 35.25 32.0714C40.5 32.0714 40.5 27.9286 45.75 27.9286C48.48 27.9286 49.74 28.9643 51 30" stroke="#7D8083" stroke-width="3" stroke-linecap="round" stroke-linejoin="round"/>
</svg>
