<svg width="44" height="39" viewBox="0 0 44 39" fill="none" xmlns="http://www.w3.org/2000/svg">
<path d="M28.9984 9.23473C27.6472 9.23392 26.3021 9.41374 24.9993 9.76933C24.485 8.93689 23.8603 8.17681 23.1419 7.50952L25.019 4.85219C25.138 4.68362 25.2224 4.49346 25.2673 4.29255C25.3122 4.09164 25.3167 3.88393 25.2807 3.68127C25.2447 3.47861 25.1688 3.28497 25.0573 3.11141C24.9459 2.93785 24.8011 2.78777 24.6312 2.66973C24.4612 2.55169 24.2696 2.46802 24.067 2.42347C23.8645 2.37893 23.6552 2.37439 23.4509 2.41013C23.2466 2.44586 23.0514 2.52116 22.8765 2.63172C22.7015 2.74229 22.5502 2.88596 22.4313 3.05452L20.5541 5.7099C19.0104 4.93667 17.3052 4.5342 15.5759 4.53496C15.4614 4.53496 15.3469 4.53496 15.2325 4.53496L14.662 1.34498C14.6321 1.13712 14.5603 0.937361 14.451 0.757559C14.3417 0.577758 14.1971 0.421589 14.0258 0.298332C13.8544 0.175075 13.6598 0.0872463 13.4536 0.0400646C13.2474 -0.00711715 13.0337 -0.012689 12.8252 0.0236804C12.6168 0.0600498 12.4178 0.137618 12.2402 0.251776C12.0626 0.365933 11.9099 0.514351 11.7912 0.688208C11.6726 0.862066 11.5903 1.05781 11.5494 1.26382C11.5085 1.46983 11.5098 1.6819 11.5531 1.88741L12.1216 5.08718C10.3703 5.66184 8.79139 6.66143 7.52835 7.99517L4.83991 6.12896C4.67013 6.00803 4.47783 5.92173 4.27418 5.87508C4.07053 5.82843 3.85956 5.82235 3.65352 5.8572C3.44748 5.89204 3.25047 5.96712 3.0739 6.07808C2.89733 6.18904 2.74472 6.33367 2.62492 6.50359C2.50512 6.6735 2.42051 6.86532 2.37601 7.06792C2.3315 7.27052 2.32798 7.47987 2.36564 7.68383C2.40331 7.88779 2.48142 8.0823 2.59543 8.25609C2.70945 8.42987 2.85711 8.57947 3.02985 8.69622L5.70645 10.5605C4.92427 12.0916 4.51843 13.7846 4.52211 15.5011C4.52211 15.6127 4.52211 15.7263 4.52211 15.8379L1.30664 16.4019C0.917436 16.4695 0.567939 16.6795 0.327136 16.9903C0.0863335 17.301 -0.0282759 17.6901 0.00593231 18.0806C0.0401405 18.4711 0.220681 18.8347 0.511913 19.0997C0.803146 19.3646 1.18391 19.5116 1.57903 19.5116C1.671 19.5115 1.76278 19.5036 1.8534 19.4881L5.0748 18.9241C5.35784 19.779 5.74636 20.5959 6.2315 21.3562C4.72106 22.7481 3.66807 24.5589 3.20967 26.5528C2.75126 28.5468 2.90869 30.6315 3.66143 32.5354C4.41418 34.4393 5.72738 36.0743 7.42999 37.2273C9.13261 38.3804 11.1458 38.9981 13.2072 39H28.9984C32.9771 39 36.7928 37.432 39.6061 34.641C42.4195 31.8499 44 28.0645 44 24.1174C44 20.1702 42.4195 16.3848 39.6061 13.5938C36.7928 10.8027 32.9771 9.23473 28.9984 9.23473ZM7.68034 15.5011C7.68128 13.8422 8.2131 12.2264 9.19914 10.8866C10.1852 9.54681 11.5745 8.55217 13.167 8.04604C14.7594 7.5399 16.4727 7.54841 18.06 8.07033C19.6472 8.59225 21.0265 9.60063 21.999 10.9502C18.7777 12.6319 16.2799 15.4146 14.968 18.7831C12.8921 18.4276 10.7563 18.7127 8.84889 19.5997C8.08524 18.3668 7.68077 16.9482 7.68034 15.5011ZM28.9984 35.8668H13.2072C12.2353 35.865 11.2741 35.6655 10.3831 35.2805C9.49201 34.8955 8.69002 34.3333 8.02669 33.6286C7.36336 32.9239 6.8528 32.0917 6.52657 31.1835C6.20034 30.2752 6.06538 29.3102 6.13004 28.3482C6.1947 27.3861 6.4576 26.4474 6.90249 25.5902C7.34737 24.7329 7.96478 23.9753 8.71655 23.3642C9.46831 22.7531 10.3384 22.3015 11.2731 22.0373C12.2078 21.7731 13.1872 21.7019 14.1508 21.8282C14.0777 22.2923 14.0264 22.7662 13.9988 23.244C13.9747 23.6595 14.118 24.0674 14.3971 24.3781C14.6762 24.6888 15.0683 24.8768 15.4871 24.9007C15.9059 24.9246 16.3171 24.7824 16.6303 24.5055C16.9435 24.2286 17.1329 23.8396 17.157 23.4242C17.2013 22.6428 17.3256 21.8679 17.5281 21.1115C17.5281 21.0801 17.5459 21.0488 17.5518 21.0175C18.1322 18.9015 19.2973 16.9886 20.9157 15.4949C22.534 14.0011 24.5411 12.986 26.7103 12.5641C28.8795 12.1422 31.1243 12.3304 33.1914 13.1074C35.2584 13.8843 37.0654 15.2192 38.4082 16.9611C39.7509 18.703 40.5761 20.7827 40.7904 22.9653C41.0047 25.1479 40.5997 27.3465 39.621 29.3128C38.6423 31.2791 37.129 32.9348 35.252 34.0929C33.3749 35.251 31.2089 35.8655 28.9984 35.8668Z" fill="#7D8083"/>
</svg>
