<svg width="60" height="60" viewBox="0 0 60 60" fill="none" xmlns="http://www.w3.org/2000/svg">
<path d="M41.6667 51C39.1913 51 36.8173 50.0167 35.067 48.2663C33.3167 46.516 32.3333 44.142 32.3333 41.6667V13.6667C32.3333 12.429 32.825 11.242 33.7002 10.3668C34.5753 9.49167 35.7623 9 37 9H46.3333C47.571 9 48.758 9.49167 49.6332 10.3668C50.5083 11.242 51 12.429 51 13.6667V41.6667C51 44.142 50.0167 46.516 48.2663 48.2663C46.516 50.0167 44.142 51 41.6667 51ZM41.6667 51H13.6667C12.429 51 11.242 50.5083 10.3668 49.6332C9.49167 48.758 9 47.571 9 46.3333V37C9 35.7623 9.49167 34.5753 10.3668 33.7002C11.242 32.825 12.429 32.3333 13.6667 32.3333H19.0333M32.3333 19.15L27.6667 14.4833C26.7915 13.6085 25.6048 13.117 24.3673 13.117C23.1299 13.117 21.9431 13.6085 21.068 14.4833L14.4693 21.082C13.5945 21.9571 13.103 23.1439 13.103 24.3813C13.103 25.6188 13.5945 26.8055 14.4693 27.6807L35.4693 48.6807M41.6667 41.6667V41.69" stroke="#7D8083" stroke-width="3" stroke-linecap="round" stroke-linejoin="round"/>
</svg>
