<?xml version="1.0" encoding="utf-8"?>
<!-- Generator: Adobe Illustrator 26.2.1, SVG Export Plug-In . SVG Version: 6.00 Build 0)  -->
<svg version="1.1" xmlns="http://www.w3.org/2000/svg" xmlns:xlink="http://www.w3.org/1999/xlink" x="0px" y="0px"
	 viewBox="0 0 60 60" style="enable-background:new 0 0 60 60;" xml:space="preserve">
<style type="text/css">
	.st0{fill:#CBD1D5;}
	.st1{fill:#7D8083;}
</style>
<g id="Layer_1">
	<path class="st0" d="M50,60H10C4.5,60,0,55.5,0,50V10C0,4.5,4.5,0,10,0h40c5.5,0,10,4.5,10,10v40C60,55.5,55.5,60,50,60z"/>
</g>
<g id="Layer_3">
	<g>
		<path class="st1" d="M13.2,22.4v-9.2h9.2V7H7l0,15.4H13.2z M20.4,9v2.2h-9.2v9.2H9L9,9H20.4z"/>
		<path class="st1" d="M13.2,37.6H7L7,53h15.4v-6.2h-9.2V37.6z M20.4,48.8V51H9l0-11.4h2.2v9.2H20.4z"/>
		<path class="st1" d="M46.8,46.8h-9.2V53H53V37.6h-6.2V46.8z M48.8,39.6H51V51H39.6v-2.2h9.2V39.6z"/>
		<path class="st1" d="M37.6,7v6.2h9.2v9.2H53V7L37.6,7z M51,20.4h-2.2v-9.2h-9.2V9L51,9V20.4z"/>
		<path class="st1" d="M30,23.6c-3.5,0-6.4,2.9-6.4,6.4s2.9,6.4,6.4,6.4s6.4-2.9,6.4-6.4S33.5,23.6,30,23.6z M30,34.4
			c-2.4,0-4.4-2-4.4-4.4s2-4.4,4.4-4.4s4.4,2,4.4,4.4S32.4,34.4,30,34.4z"/>
		<path class="st1" d="M30,19.4c-5.9,0-10.6,4.8-10.6,10.6c0,5.9,4.8,10.6,10.6,10.6S40.6,35.9,40.6,30C40.6,24.1,35.9,19.4,30,19.4
			z M30,38.6c-4.8,0-8.6-3.9-8.6-8.6s3.9-8.6,8.6-8.6c4.8,0,8.6,3.9,8.6,8.6S34.8,38.6,30,38.6z"/>
	</g>
</g>
</svg>
