<?xml version="1.0" encoding="utf-8"?>
<!-- Generator: Adobe Illustrator 26.2.1, SVG Export Plug-In . SVG Version: 6.00 Build 0)  -->
<svg version="1.1" xmlns="http://www.w3.org/2000/svg" xmlns:xlink="http://www.w3.org/1999/xlink" x="0px" y="0px"
	 viewBox="0 0 60 60" style="enable-background:new 0 0 60 60;" xml:space="preserve">
<style type="text/css">
	.st0{fill:#CBD1D5;}
	.st1{fill:#7D8083;}
</style>
<g id="Layer_1">
	<path class="st0" d="M50,60H10C4.5,60,0,55.5,0,50V10C0,4.5,4.5,0,10,0h40c5.5,0,10,4.5,10,10v40C60,55.5,55.5,60,50,60z"/>
</g>
<g id="Layer_3">
	<g>
		<g>
			<path class="st1" d="M51.9,20.9c-2.6,0-3.9-1.2-5.1-2.3c-1.1-1-1.9-1.7-3.7-1.7s-2.6,0.8-3.7,1.7c-1.2,1.1-2.5,2.3-5.1,2.3
				c-2.6,0-3.9-1.2-5.1-2.3c-1.1-1-1.9-1.7-3.7-1.7c-1.8,0-2.6,0.8-3.7,1.7c-1.2,1.1-2.5,2.3-5.1,2.3c-2.6,0-3.9-1.2-5-2.3
				c-1.1-1-1.9-1.7-3.7-1.7c-0.6,0-1-0.4-1-1s0.4-1,1-1c2.6,0,3.9,1.2,5.1,2.3c1.1,1,1.9,1.7,3.7,1.7c1.8,0,2.6-0.8,3.7-1.7
				c1.2-1.1,2.5-2.3,5.1-2.3c2.6,0,3.9,1.2,5.1,2.3c1.1,1,1.9,1.7,3.7,1.7c1.8,0,2.6-0.8,3.7-1.7c1.2-1.1,2.5-2.3,5.1-2.3
				s3.9,1.2,5.1,2.3c1.1,1,1.9,1.7,3.7,1.7c0.6,0,1,0.4,1,1S52.4,20.9,51.9,20.9z"/>
		</g>
		<g>
			<path class="st1" d="M51.9,33c-2.6,0-3.9-1.2-5.1-2.3c-1.1-1-1.9-1.7-3.7-1.7s-2.6,0.8-3.7,1.7c-1.2,1.1-2.5,2.3-5.1,2.3
				c-2.6,0-3.9-1.2-5.1-2.3c-1.1-1-1.9-1.7-3.7-1.7c-1.8,0-2.6,0.8-3.7,1.7c-1.2,1.1-2.5,2.3-5.1,2.3c-2.6,0-3.9-1.2-5-2.3
				c-1.1-1-1.9-1.7-3.7-1.7c-0.6,0-1-0.4-1-1s0.4-1,1-1c2.6,0,3.9,1.2,5.1,2.3c1.1,1,1.9,1.7,3.7,1.7c1.8,0,2.6-0.8,3.7-1.7
				c1.2-1.1,2.5-2.3,5.1-2.3c2.6,0,3.9,1.2,5.1,2.3c1.1,1,1.9,1.7,3.7,1.7c1.8,0,2.6-0.8,3.7-1.7c1.2-1.1,2.5-2.3,5.1-2.3
				s3.9,1.2,5.1,2.3c1.1,1,1.9,1.7,3.7,1.7c0.6,0,1,0.4,1,1S52.4,33,51.9,33z"/>
		</g>
		<g>
			<path class="st1" d="M51.9,45.1c-2.6,0-3.9-1.2-5.1-2.3c-1.1-1-1.9-1.7-3.7-1.7s-2.6,0.8-3.7,1.7c-1.2,1.1-2.5,2.3-5.1,2.3
				c-2.6,0-3.9-1.2-5.1-2.3c-1.1-1-1.9-1.7-3.7-1.7c-1.8,0-2.6,0.8-3.7,1.7c-1.2,1.1-2.5,2.3-5.1,2.3c-2.6,0-3.9-1.2-5-2.3
				c-1.1-1-1.9-1.7-3.7-1.7c-0.6,0-1-0.4-1-1s0.4-1,1-1c2.6,0,3.9,1.2,5.1,2.3c1.1,1,1.9,1.7,3.7,1.7c1.8,0,2.6-0.8,3.7-1.7
				c1.2-1.1,2.5-2.3,5.1-2.3c2.6,0,3.9,1.2,5.1,2.3c1.1,1,1.9,1.7,3.7,1.7c1.8,0,2.6-0.8,3.7-1.7c1.2-1.1,2.5-2.3,5.1-2.3
				s3.9,1.2,5.1,2.3c1.1,1,1.9,1.7,3.7,1.7c0.6,0,1,0.4,1,1S52.4,45.1,51.9,45.1z"/>
		</g>
	</g>
</g>
</svg>
