<?xml version="1.0" encoding="utf-8"?>
<!-- Generator: Adobe Illustrator 26.2.1, SVG Export Plug-In . SVG Version: 6.00 Build 0)  -->
<svg version="1.1" xmlns="http://www.w3.org/2000/svg" xmlns:xlink="http://www.w3.org/1999/xlink" x="0px" y="0px"
	 viewBox="0 0 60 60" style="enable-background:new 0 0 60 60;" xml:space="preserve">
<style type="text/css">
	.st0{fill:#CBD1D5;}
	.st1{fill:#7D8083;}
</style>
<g id="Layer_1">
	<path class="st0" d="M50,60H10C4.5,60,0,55.5,0,50V10C0,4.5,4.5,0,10,0h40c5.5,0,10,4.5,10,10v40C60,55.5,55.5,60,50,60z"/>
</g>
<g id="Layer_2">
	<g>
		<path class="st1" d="M23.9,22.7c-1,0-1.9,0.1-2.8,0.3L21,23c0,0,0,0,0,0c-4.9,1.3-8.6,5.7-8.6,11.1c0,6.3,5.1,11.4,11.4,11.4
			s11.4-5.1,11.4-11.4C35.3,27.8,30.2,22.7,23.9,22.7z M33.3,34.1c0,0.4,0,0.7-0.1,1.1c-0.4,0-0.7,0.1-1.1,0.1
			c-5.2,0-9.4-4.2-9.4-9.4c0-0.4,0-0.7,0.1-1.1c0.4,0,0.7-0.1,1.1-0.1C29.1,24.7,33.3,28.9,33.3,34.1z M23.9,43.6
			c-5.2,0-9.4-4.2-9.4-9.4c0-4.1,2.6-7.6,6.3-8.9c0,0.2,0,0.4,0,0.6c0,6.3,5.1,11.4,11.4,11.4c0.2,0,0.4,0,0.6,0
			C31.5,40.9,28,43.6,23.9,43.6z"/>
		<path class="st1" d="M54.1,36.6c-0.3-0.8-1.1-1.3-1.9-1.3h-4.6c4.3-7,3.4-16.2-2.6-22.2c-3.4-3.4-8-5.3-12.8-5.3
			s-9.4,1.9-12.8,5.3l-8.5,8.5l0,0c-3.2,3.3-5.1,7.7-5.1,12.6c0,10,8.1,18.1,18.1,18.1h14.5c1,0,2-0.4,2.7-1.1l12.5-12.3
			C54.2,38.3,54.4,37.4,54.1,36.6z M20.7,14.5c3-3,7.1-4.7,11.4-4.7s8.3,1.7,11.4,4.7c6.3,6.3,6.3,16.5,0,22.8l-2.4,2.4
			c0.6-1.7,0.9-3.6,0.9-5.5c0-10-8.1-18.1-18.1-18.1c-1.9,0-3.8,0.3-5.5,0.9L20.7,14.5z M7.8,34.1C7.8,25.3,15,18,23.9,18
			C32.7,18,40,25.3,40,34.1c0,8.9-7.2,16.1-16.1,16.1C15,50.2,7.8,43,7.8,34.1z M39.7,49.7c-0.3,0.3-0.8,0.5-1.3,0.5h-6.3
			c1.5-0.8,3-1.8,4.2-3l0,0l8.6-8.6c0.4-0.4,0.8-0.9,1.2-1.4h6l0.1,0.1L39.7,49.7z"/>
	</g>
</g>
</svg>
