<svg width="36" height="36" viewBox="0 0 36 36" fill="none" xmlns="http://www.w3.org/2000/svg" aria-hidden="true">
  <g transform="rotate(180 18 18)">
    <g transform="translate(10.12 5.62)">
      <path d="M13.1718 22.8297C13.2763 22.9342 13.3593 23.0583 13.4158 23.1949C13.4724 23.3314 13.5015 23.4778 13.5015 23.6256C13.5015 23.7734 13.4724 23.9198 13.4158 24.0564C13.3593 24.193 13.2763 24.317 13.1718 24.4216C13.0673 24.5261 12.9432 24.609 12.8066 24.6656C12.6701 24.7221 12.5237 24.7513 12.3759 24.7513C12.2281 24.7513 12.0817 24.7221 11.9451 24.6656C11.8086 24.609 11.6845 24.5261 11.5799 24.4216L0.329947 13.1716C0.225349 13.0671 0.14237 12.943 0.0857556 12.8064C0.0291408 12.6699 0 12.5235 0 12.3756C0 12.2278 0.0291408 12.0814 0.0857556 11.9448C0.14237 11.8082 0.225349 11.6842 0.329947 11.5797L11.5799 0.329688C11.791 0.118592 12.0774 0 12.3759 0C12.6744 0 12.9607 0.118592 13.1718 0.329688C13.3829 0.540784 13.5015 0.827091 13.5015 1.12563C13.5015 1.42416 13.3829 1.71047 13.1718 1.92156L2.71635 12.3756L13.1718 22.8297Z" fill="#000000"/>
    </g>
  </g>
</svg>
