<?xml version="1.0" encoding="utf-8"?>
<!-- Generator: Adobe Illustrator 26.2.1, SVG Export Plug-In . SVG Version: 6.00 Build 0)  -->
<svg version="1.0" id="Layer_1" xmlns="http://www.w3.org/2000/svg" xmlns:xlink="http://www.w3.org/1999/xlink" x="0px" y="0px"
	 viewBox="0 0 53 53" style="enable-background:new 0 0 53 53;" xml:space="preserve">
<style type="text/css">
	.st0{fill:#7D8083;}
</style>
<path class="st0" d="M52.9,19.7c0-0.6-0.4-1.1-1-1.3l-3.9-1.4c-0.4-1.2-0.9-2.3-1.4-3.4l1.8-3.7c0.3-0.5,0.2-1.1-0.2-1.6
	c-0.5-0.7-1.1-1.3-1.7-1.9l-1.1,1.1l-1.1,1.1c0.3,0.3,0.6,0.6,0.8,0.9l-1.7,3.5c-0.2,0.4-0.2,1,0,1.4c0.8,1.4,1.4,2.7,1.7,4.1
	c0.1,0.5,0.5,0.9,1,1.1L50,21c0,0.4,0,0.8,0,1.2c0,0.4,0,0.8,0,1.2l-3.8,1.3c-0.5,0.2-0.8,0.6-1,1.1c-0.3,1.4-0.9,2.8-1.7,4.1
	c-0.3,0.4-0.3,1-0.1,1.4l1.7,3.5c-0.6,0.6-1.1,1.2-1.8,1.7l-3.6-1.7c-0.4-0.2-1-0.2-1.4,0c-1.4,0.8-2.7,1.4-4.2,1.7
	c-0.5,0.1-0.9,0.5-1.1,1l-1.4,3.7c-0.4,0-0.8,0-1.2,0c-0.4,0-0.8,0-1.2,0l-1.3-3.7c-0.2-0.5-0.6-0.9-1.1-1c-0.8-0.2-1.7-0.5-2.5-0.8
	l1.3-1.3c1.5,0.6,3.1,0.9,4.7,0.9C38,35.4,44,29.4,44,22.2S38,8.9,30.7,8.9s-13.3,5.9-13.3,13.2c0,0.7,0.1,1.4,0.1,2L19,24l1.5-0.2
	c-0.1-0.6-0.1-1.1-0.1-1.6c0-5.6,4.6-10.2,10.3-10.2c5.7,0,10.3,4.6,10.3,10.2c0,5.6-4.6,10.2-10.3,10.2c-0.8,0-1.6-0.1-2.3-0.3
	l1.4-1.3c2.6,0.4,5.3-0.4,7.3-2.4c2.5-2.5,3.2-6.2,2-9.3c-0.2-0.5-0.6-0.8-1.1-0.9c-0.5-0.1-1,0-1.4,0.4l-3.3,3.3l-1.4-0.3l-0.3-1.4
	l3.3-3.3c0.4-0.3,0.5-0.8,0.4-1.3c-0.1-0.5-0.4-0.9-0.9-1.1c-3.2-1.4-7-0.8-9.7,1.8c-2,2-2.8,4.8-2.4,7.4l-5,4.9
	c-0.4-0.9-0.8-1.8-1-2.8c-0.1-0.5-0.5-0.9-1-1.1l-3.8-1.3c0-0.4,0-0.8,0-1.2c0-0.4,0-0.8,0-1.2l3.7-1.3c0.5-0.2,0.9-0.6,1-1.1
	c0.3-1.4,0.9-2.8,1.7-4.1c0.3-0.4,0.3-1,0.1-1.4l-1.7-3.5c0.6-0.6,1.1-1.2,1.8-1.7l3.6,1.7c0.4,0.2,1,0.2,1.4,0
	c1.4-0.8,2.7-1.4,4.2-1.7c0.5-0.1,0.9-0.5,1.1-1L29.5,3c0.4,0,0.8,0,1.2,0c0.4,0,0.8,0,1.2,0l1.3,3.7c0.2,0.5,0.6,0.9,1.1,1
	c1.4,0.3,2.9,0.9,4.1,1.7c0.4,0.3,1,0.3,1.4,0L42,8.4l-0.7-1.3l-0.7-1.3l-1.4,0.7c-1.1-0.6-2.2-1-3.4-1.4l-1.4-3.9
	c-0.2-0.6-0.7-1-1.3-1C32.4,0.1,31.5,0,30.7,0c-0.9,0-1.7,0.1-2.4,0.1c-0.6,0-1.1,0.4-1.3,1L25.6,5c-1.2,0.4-2.4,0.9-3.4,1.4
	l-3.7-1.8c-0.5-0.2-1.1-0.2-1.6,0.2c-1.3,1.1-2.5,2.2-3.5,3.5C13,8.8,12.9,9.4,13.2,10l1.8,3.7c-0.6,1.1-1.1,2.2-1.4,3.4l-3.9,1.4
	c-0.6,0.2-1,0.7-1,1.3c-0.1,0.7-0.1,1.6-0.1,2.4c0,0.9,0.1,1.7,0.1,2.4c0,0.6,0.4,1.1,1,1.3l4,1.4c0.4,1.2,0.9,2.4,1.5,3.5l-5.2,5.1
	c-2.6-0.4-5.3,0.4-7.3,2.4c-2.5,2.5-3.2,6.2-2,9.3c0.2,0.5,0.6,0.8,1.1,0.9c0.5,0.1,1,0,1.4-0.4l3.3-3.3l1.4,0.3l0.3,1.4l-3.3,3.3
	c-0.3,0.3-0.5,0.8-0.4,1.3s0.4,0.9,0.9,1.1c1.8,0.8,3.9,1,5.8,0.5l-0.4-1.4l-0.4-1.4C9.7,49.9,9.3,50,8.8,50l2-1.9
	c0.4-0.4,0.5-0.9,0.4-1.4l-0.7-3.1c-0.1-0.5-0.6-1-1.1-1.1l-3.1-0.7c-0.5-0.1-1,0-1.4,0.4L3,43.8c0.1-1.3,0.7-2.5,1.6-3.5
	c1.4-1.4,3.4-1.9,5.3-1.5c0.5,0.1,1,0,1.4-0.4l13.5-13.3c0.4-0.4,0.5-0.9,0.4-1.4c-0.5-1.9,0-4,1.5-5.4c1.1-1.1,2.5-1.6,3.9-1.7
	l-2,2c-0.4,0.4-0.5,0.9-0.4,1.4l0.7,3.1c0.1,0.5,0.6,1,1.1,1.1l3.1,0.7c0.5,0.1,1,0,1.4-0.4l1.8-1.8c-0.1,1.3-0.7,2.5-1.6,3.5
	c-1.4,1.4-3.4,1.9-5.3,1.5c-0.5-0.1-1,0-1.4,0.4L14.5,41.4c-0.4,0.4-0.5,0.9-0.4,1.5c0.4,1.6,0.1,3.3-0.8,4.7
	c-0.2,0.3-0.4,0.5-0.7,0.8l1.1,1.1l1.1,1.1c0.4-0.4,0.7-0.7,0.9-1.1c0,0,0,0,0-0.1c1.3-1.9,1.8-4.1,1.5-6.3l5.1-5
	c1,0.5,2.1,1,3.3,1.3l1.4,3.9c0.2,0.6,0.7,1,1.3,1c0.7,0.1,1.6,0.1,2.4,0.1c0.9,0,1.7-0.1,2.4-0.1c0.6,0,1.1-0.4,1.3-1l1.4-3.9
	c1.2-0.4,2.4-0.9,3.4-1.4l3.7,1.8c0.5,0.2,1.1,0.2,1.6-0.2c1.3-1.1,2.5-2.2,3.5-3.5c0.4-0.5,0.4-1.1,0.2-1.6l-1.8-3.7
	c0.6-1.1,1.1-2.2,1.4-3.4l4-1.4c0.6-0.2,0.9-0.7,1-1.3c0.1-0.7,0.1-1.6,0.1-2.4C53,21.3,52.9,20.5,52.9,19.7z"/>
</svg>
