<?xml version="1.0" encoding="utf-8"?>
<!-- Generator: Adobe Illustrator 26.2.1, SVG Export Plug-In . SVG Version: 6.00 Build 0)  -->
<svg version="1.1" xmlns="http://www.w3.org/2000/svg" xmlns:xlink="http://www.w3.org/1999/xlink" x="0px" y="0px"
	 viewBox="0 0 60 60" style="enable-background:new 0 0 60 60;" xml:space="preserve">
<style type="text/css">
	.st0{fill:#CBD1D5;}
	.st1{fill:#7D8083;}
</style>
<g id="Layer_1">
	<path class="st0" d="M50,60H10C4.5,60,0,55.5,0,50V10C0,4.5,4.5,0,10,0h40c5.5,0,10,4.5,10,10v40C60,55.5,55.5,60,50,60z"/>
</g>
<g id="Layer_3">
	<g>
		<path class="st1" d="M49.7,18.6c-1.8-3-5.9-4.2-11-3.7c-2.1-4.8-5.2-7.7-8.7-7.7s-6.6,3-8.7,7.7c-5.2-0.6-9.3,0.6-11,3.7
			c-1.6,2.8-1,6.6,1.8,10.7c0.2,0.2,0.3,0.5,0.5,0.7c-3.1,4.2-4.1,8.4-2.4,11.4c1.5,2.6,4.6,3.8,8.7,3.8c0.8,0,1.6-0.1,2.4-0.1
			c2.1,4.8,5.2,7.7,8.7,7.7c3.5,0,6.6-3,8.7-7.7c0.8,0.1,1.6,0.1,2.4,0.1c4,0,7.2-1.3,8.7-3.8c1.8-3,0.7-7.2-2.3-11.4
			C50.5,25.8,51.5,21.6,49.7,18.6z M41.2,16.8c3.3,0,5.7,0.9,6.8,2.8c1.3,2.2,0.4,5.4-1.9,8.8c-1.4-1.6-3.1-3.2-5-4.7
			c-0.3-2.4-0.9-4.7-1.6-6.7C40.1,16.8,40.6,16.8,41.2,16.8z M34.8,38.2c-1.6,0.9-3.2,1.7-4.8,2.4c-1.6-0.7-3.2-1.4-4.8-2.4
			c-1.6-0.9-3-1.9-4.4-2.9c-0.2-1.7-0.3-3.5-0.3-5.3c0-1.8,0.1-3.6,0.3-5.3c1.4-1,2.8-2,4.4-2.9c1.6-0.9,3.2-1.7,4.8-2.4
			c1.6,0.7,3.2,1.4,4.8,2.4c1.6,0.9,3.1,1.9,4.4,2.9c0.2,1.7,0.3,3.5,0.3,5.3c0,1.8-0.1,3.6-0.3,5.3C37.8,36.3,36.3,37.3,34.8,38.2z
			 M38.7,38.1c-0.3,1.7-0.8,3.3-1.3,4.8c-1.5-0.3-3.1-0.7-4.8-1.2c1-0.5,2.1-1,3.1-1.6C36.8,39.4,37.8,38.7,38.7,38.1z M27.4,41.6
			c-1.7,0.6-3.3,1-4.8,1.2c-0.5-1.4-1-3-1.3-4.8c1,0.7,1.9,1.3,3,1.9C25.3,40.6,26.3,41.1,27.4,41.6z M18.6,33.5
			c-1.3-1.1-2.4-2.3-3.5-3.5c1-1.2,2.1-2.4,3.4-3.5c-0.1,1.1-0.1,2.3-0.1,3.5C18.5,31.2,18.5,32.4,18.6,33.5z M21.3,21.9
			c0.3-1.7,0.8-3.3,1.3-4.8c1.5,0.3,3.1,0.7,4.8,1.2c-1,0.5-2.1,1-3.1,1.6C23.2,20.6,22.2,21.3,21.3,21.9z M32.7,18.4
			c1.6-0.6,3.2-1,4.8-1.2c0.5,1.5,1,3,1.3,4.8c-1-0.7-1.9-1.3-3-1.9C34.7,19.4,33.7,18.9,32.7,18.4z M41.4,26.5
			c1.3,1.1,2.5,2.3,3.4,3.5c-1,1.2-2.1,2.4-3.4,3.5c0.1-1.1,0.1-2.3,0.1-3.5C41.5,28.8,41.5,27.6,41.4,26.5z M30,9.2
			c2.5,0,4.9,2.3,6.6,6c-2.1,0.4-4.3,1.1-6.6,2c-2.3-0.9-4.5-1.6-6.6-2C25.1,11.5,27.5,9.2,30,9.2z M13.8,28.2
			c-2.3-3.4-3-6.5-1.8-8.6c1.1-1.9,3.6-2.8,6.8-2.8c0.5,0,1.1,0,1.7,0.1c-0.7,2-1.3,4.3-1.6,6.7c-1.9,1.5-3.6,3.1-5,4.7
			C13.9,28.3,13.8,28.2,13.8,28.2z M12,40.4c-1.3-2.2-0.4-5.4,1.9-8.8c1.4,1.7,3.1,3.3,5,4.8c0.3,2.4,0.9,4.7,1.6,6.7
			C16.5,43.5,13.3,42.6,12,40.4z M30,50.8c-2.5,0-4.9-2.3-6.6-6c2.1-0.4,4.3-1.1,6.6-2c2.3,0.9,4.5,1.6,6.6,2
			C34.9,48.5,32.6,50.8,30,50.8z M48,40.4c-1.3,2.2-4.5,3.1-8.5,2.7c0.7-2,1.3-4.3,1.6-6.7c1.9-1.5,3.6-3.1,5-4.7
			C48.4,35,49.3,38.2,48,40.4z"/>
	</g>
</g>
</svg>
