<?xml version="1.0" encoding="utf-8"?>
<!-- Generator: Adobe Illustrator 26.2.1, SVG Export Plug-In . SVG Version: 6.00 Build 0)  -->
<svg version="1.0" id="Layer_1" xmlns="http://www.w3.org/2000/svg" xmlns:xlink="http://www.w3.org/1999/xlink" x="0px" y="0px"
	 viewBox="0 0 48 51" style="enable-background:new 0 0 48 51;" xml:space="preserve">
<style type="text/css">
	.st0{fill:#7D8083;}
</style>
<g>
	<polygon class="st0" points="32.5,24.2 33.6,25.3 39.7,19.3 38.6,18.2 37.6,17.1 31.4,23.2 	"/>
	<polygon class="st0" points="31.4,29.2 32.5,30.3 33.6,31.4 37.1,27.9 36,26.8 34.9,25.8 	"/>
	<polygon class="st0" points="11.9,26.8 10.9,27.9 14.4,31.4 15.4,30.3 16.5,29.2 13,25.8 	"/>
	<path class="st0" d="M46.5,33.5H35c-0.8,0-1.5,0.7-1.5,1.5v2.8c0,1.8-1.4,3.2-3.2,3.2H17.7c-1.8,0-3.2-1.4-3.2-3.2V35
		c0-0.8-0.7-1.5-1.5-1.5H1.5C0.7,33.5,0,34.2,0,35v14.5C0,50.3,0.7,51,1.5,51h45c0.8,0,1.5-0.7,1.5-1.5V35
		C48,34.2,47.3,33.5,46.5,33.5z M17.7,44h12.6c3.4,0,6.2-2.8,6.2-6.2v-1.3H45V48H3V36.5h8.5v1.3C11.5,41.2,14.3,44,17.7,44z"/>
	<polygon class="st0" points="15.4,24.2 16.5,23.2 10.4,17.1 9.3,18.2 8.3,19.3 14.4,25.3 	"/>
	<path class="st0" d="M13,11.8h3.3v5.2c0,0.8,0.7,1.5,1.5,1.5h1v17.8c0,0.8,0.7,1.5,1.5,1.5h7.4c0.8,0,1.5-0.7,1.5-1.5V18.6h0.9
		c0.8,0,1.5-0.7,1.5-1.5v-5.2h3.4c0.8,0,1.5-0.7,1.5-1.5V1.5c0-0.8-0.7-1.5-1.5-1.5H13c-0.8,0-1.5,0.7-1.5,1.5v8.8
		C11.5,11.2,12.2,11.8,13,11.8z M14.5,3h19.1v5.8h-3.4H17.8h-3.3V3z M26.2,34.9h-0.8l0.8-0.5V34.9z M26.2,18.6v0.2l-4.4,2.5v-2.7
		H26.2z M26.2,31l-4.4,2.5v-2.7l4.4-2.5V31z M26.2,24.8l-4.4,2.5v-2.6l4.4-2.5V24.8z M28.6,15.6h-0.9h-7.4h-1v-3.7h9.3V15.6z"/>
</g>
</svg>
